SplineFontDB: 3.0
FontName: NinaDalBold
FullName: NinaDal Bold
FamilyName: Nina-dal
Weight: Bold
Copyright: This work is licensed under a Creative Commons Attribution-ShareAlike 3.0 Unported License.\n\n(c) Nina Paley  http://www.archive.org/details/NinaPaleyFonts
Version: 1.0
ItalicAngle: 0
UnderlinePosition: -123
UnderlineWidth: 20
Ascent: 800
Descent: 200
sfntRevision: 0x00010000
LayerCount: 2
Layer: 0 1 "Back"  1
Layer: 1 1 "Fore"  0
NeedsXUIDChange: 1
XUID: [1021 289 695065309 11648666]
FSType: 0
OS2Version: 0
OS2_WeightWidthSlopeOnly: 0
OS2_UseTypoMetrics: 1
CreationTime: 919541884
ModificationTime: 1330491149
PfmFamily: 81
TTFWeight: 700
TTFWidth: 5
LineGap: 0
VLineGap: 0
Panose: 0 0 7 0 0 0 0 0 0 0
OS2TypoAscent: 146
OS2TypoAOffset: 1
OS2TypoDescent: 0
OS2TypoDOffset: 1
OS2TypoLinegap: 0
OS2WinAscent: 0
OS2WinAOffset: 1
OS2WinDescent: 0
OS2WinDOffset: 1
HheadAscent: 0
HheadAOffset: 1
HheadDescent: -10
HheadDOffset: 1
OS2SubXSize: 700
OS2SubYSize: 650
OS2SubXOff: 0
OS2SubYOff: 143
OS2SupXSize: 700
OS2SupYSize: 650
OS2SupXOff: 0
OS2SupYOff: 453
OS2StrikeYSize: 50
OS2StrikeYPos: 259
OS2Vendor: 'Alts'
OS2UnicodeRanges: 00000000.00000000.00000000.00000000
MarkAttachClasses: 1
DEI: 91125
TtTable: prep
NPUSHB
 9
 7
 7
 2
 2
 1
 1
 0
 0
 1
SCANTYPE
PUSHW_1
 511
SCANCTRL
RCVT
ROUND[Grey]
WCVTP
RCVT
ROUND[Grey]
WCVTP
RCVT
ROUND[Grey]
WCVTP
RCVT
ROUND[Grey]
WCVTP
PUSHB_4
 4
 3
 70
 0
CALL
PUSHB_4
 6
 5
 70
 0
CALL
PUSHB_2
 3
 3
RCVT
ROUND[Grey]
WCVTP
PUSHB_2
 5
 5
RCVT
ROUND[Grey]
WCVTP
EndTTInstrs
TtTable: fpgm
NPUSHB
 1
 0
FDEF
SROUND
RCVT
DUP
PUSHB_1
 3
CINDEX
RCVT
SWAP
SUB
ROUND[Grey]
RTG
SWAP
ROUND[Grey]
ADD
WCVTP
ENDF
EndTTInstrs
ShortTable: cvt  8
  -36
  810
  856
  135
  146
  142
  126
  129
EndShort
ShortTable: maxp 16
  1
  0
  84
  107
  4
  0
  0
  2
  8
  64
  10
  0
  64
  120
  1
  1
EndShort
LangName: 1033 "" "" "" "" "" "1.0" 
Encoding: UnicodeBmp
UnicodeInterp: none
NameList: Adobe Glyph List
DisplaySize: -48
AntiAlias: 1
FitToEm: 1

StartChar: .notdef
Encoding: 65536 -1 0
Width: 500
Flags: W
LayerCount: 2
Fore
SplineSet
63 0 m 1,0,-1
 63 800 l 1,1,-1
 438 800 l 1,2,-1
 438 0 l 1,3,-1
 63 0 l 1,0,-1
125 63 m 1,4,-1
 375 63 l 1,5,-1
 375 738 l 1,6,-1
 125 738 l 1,7,-1
 125 63 l 1,4,-1
EndSplineSet
Validated: 1
EndChar

StartChar: exclam
Encoding: 33 33 4
Width: 482
Flags: W
LayerCount: 2
Fore
SplineSet
106 209 m 2,0,1
 103 212 103 212 103 223 c 0,2,3
 103 259 103 259 129 343 c 0,4,5
 158 434 158 434 201 522 c 0,6,7
 257 638 257 638 315 720 c 0,8,9
 376 808 376 808 407 808 c 0,10,11
 444 808 444 808 465 778 c 0,12,13
 482 755 482 755 482 729 c 0,14,15
 482 711 482 711 425 631 c 0,16,17
 389 580 389 580 352 530 c 1,18,19
 338 508 338 508 306 438 c 0,20,21
 251 319 251 319 221 273 c 0,22,23
 146 157 146 157 100 213 c 1,24,-1
 106 209 l 2,0,1
104 -41 m 1,25,-1
 12 -41 l 1,26,27
 12 -21 12 -21 8 -8 c 0,28,29
 2 11 2 11 2 27 c 0,30,31
 2 61 2 61 21 83 c 128,-1,32
 40 105 40 105 73 105 c 0,33,34
 105 105 105 105 129 78 c 128,-1,35
 153 51 153 51 153 27 c 0,36,37
 153 -27 153 -27 104 -41 c 1,25,-1
EndSplineSet
Validated: 33
EndChar

StartChar: quotedbl
Encoding: 34 34 5
Width: 446
Flags: W
LayerCount: 2
Fore
SplineSet
453 826 m 4,0,1
 453 783 453 783 362.5 669.5 c 132,-1,2
 272 556 272 556 236 551 c 5,3,4
 213 570 213 570 213 596 c 4,5,6
 213 629 213 629 286 749 c 132,-1,7
 359 869 359 869 393 881 c 4,8,9
 398 883 398 883 403 883 c 4,10,11
 422 883 422 883 439 859 c 4,12,13
 453 839 453 839 453 826 c 4,0,1
233 846 m 1,14,15
 183 763 183 763 153 686 c 0,16,17
 126 614 126 614 118 603 c 0,18,19
 99 574 99 574 47 551 c 1,20,21
 24 572 24 572 22 574 c 0,22,23
 13 584 13 584 13 601 c 0,24,25
 13 624 13 624 71 749 c 0,26,27
 136 891 136 891 178 891 c 0,28,29
 210 891 210 891 216 884 c 1,30,31
 225 865 225 865 233 846 c 1,14,15
EndSplineSet
Validated: 1
EndChar

StartChar: dollar
Encoding: 36 36 6
Width: 655
Flags: W
LayerCount: 2
Fore
SplineSet
357 115 m 1,0,1
 358 95 358 95 366 50 c 0,2,3
 372 12 372 12 371 -7 c 2,4,-1
 366 -74 l 1,5,6
 342 -89 342 -89 333 -94 c 0,7,8
 312 -105 312 -105 297 -106 c 0,9,10
 265 -107 265 -107 234 -59 c 1,11,12
 259 11 259 11 259 57 c 0,13,14
 259 138 259 138 166 160 c 1,15,16
 126 165 126 165 49 184 c 1,17,18
 3 202 3 202 3 244 c 0,19,20
 3 257 3 257 7 272 c 1,21,22
 13 275 13 275 47 299 c 0,23,24
 72 317 72 317 90 317 c 0,25,26
 103 317 103 317 145 294 c 0,27,28
 175 278 175 278 204 261 c 0,29,30
 224 250 224 250 231 250 c 2,31,-1
 249 250 l 1,32,33
 250 259 250 259 247 384 c 1,34,35
 221 386 221 386 169 394 c 0,36,37
 4 420 4 420 4 519 c 0,38,39
 4 588 4 588 97 667 c 0,40,41
 168 728 168 728 219 746 c 1,42,43
 209 765 209 765 209 781 c 2,44,-1
 209 873 l 1,45,46
 236 909 236 909 280 909 c 0,47,48
 320 909 320 909 353 873 c 1,49,50
 329 814 329 814 329 780 c 0,51,52
 329 744 329 744 357 727 c 1,53,54
 369 721 369 721 417 708 c 0,55,56
 521 679 521 679 521 601 c 0,57,58
 521 590 521 590 520 578 c 0,59,60
 513 532 513 532 460 522 c 1,61,62
 434 528 434 528 414 541 c 0,63,64
 411 543 411 543 377 571 c 0,65,66
 362 583 362 583 343 594 c 1,67,68
 336 572 336 572 338 535 c 0,69,70
 340 503 340 503 344 502 c 0,71,72
 416 491 416 491 515 427 c 0,73,74
 634 349 634 349 634 273 c 0,75,76
 634 206 634 206 528 159 c 0,77,78
 448 124 448 124 357 115 c 1,0,1
236 601 m 1,79,80
 184 596 184 596 142 533 c 1,81,-1
 146 525 l 1,82,83
 183 521 183 521 243 525 c 1,84,-1
 236 601 l 1,79,80
361 365 m 1,85,86
 357 287 357 287 361 245 c 1,87,88
 393 247 393 247 426 249 c 1,89,90
 467 253 467 253 487 264 c 1,91,92
 488 333 488 333 361 365 c 1,85,86
EndSplineSet
Validated: 33
EndChar

StartChar: percent
Encoding: 37 37 7
Width: 863
Flags: W
LayerCount: 2
Fore
SplineSet
818 195 m 5,0,1
 818 143 818 143 734 62 c 132,-1,2
 650 -19 650 -19 593 -19 c 4,3,4
 538 -19 538 -19 496 14 c 5,5,6
 448 50 448 50 448 106 c 4,7,8
 448 173 448 173 505 268 c 4,9,10
 572 381 572 381 653 381 c 4,11,12
 656 381 656 381 670.5 382 c 132,-1,13
 685 383 685 383 696 383 c 4,14,15
 790 383 790 383 818 319 c 5,16,17
 831 295 831 295 831 264 c 4,18,19
 831 231 831 231 818 195 c 5,0,1
718 721 m 0,20,21
 718 705 718 705 510 394 c 0,22,23
 298 77 298 77 286 22 c 1,24,-1
 239 22 l 1,25,26
 222 49 222 49 222 70 c 0,27,28
 222 93 222 93 239 115 c 1,29,30
 238 127 238 127 395 370 c 1,31,32
 566 637 566 637 568 641 c 1,33,34
 511 624 511 624 431 624 c 0,35,36
 378 624 378 624 332 631 c 0,37,38
 291 638 291 638 289 644 c 1,39,40
 299 625 299 625 299 583 c 0,41,42
 299 498 299 498 262 434 c 1,43,44
 216 351 216 351 128 351 c 0,45,46
 68 351 68 351 38 424 c 0,47,48
 18 472 18 472 18 521 c 0,49,50
 18 606 18 606 72 678.5 c 128,-1,51
 126 751 126 751 198 751 c 1,52,53
 196 751 196 751 281 721 c 128,-1,54
 366 691 366 691 408 691 c 0,55,56
 435 691 435 691 547 726 c 0,57,58
 655 760 655 760 654 760 c 2,59,-1
 707 760 l 1,60,61
 707 757 707 757 712.5 746 c 128,-1,62
 718 735 718 735 718 721 c 0,20,21
751 253 m 4,63,64
 737 301 737 301 718 301 c 4,65,66
 713 301 713 301 702 296 c 132,-1,67
 691 291 691 291 684 291 c 4,68,69
 644 291 644 291 593 241 c 4,70,71
 538 187 538 187 538 131 c 4,72,73
 538 81 538 81 588 81 c 4,74,75
 621 81 621 81 685 134 c 5,76,77
 753 192 753 192 753 239 c 4,78,79
 753 246 753 246 751 253 c 4,63,64
228 571 m 0,80,81
 228 585 228 585 222.5 600.5 c 128,-1,82
 217 616 217 616 217 620 c 1,83,84
 213 620 213 620 202.5 625.5 c 128,-1,85
 192 631 192 631 178 631 c 0,86,87
 143 631 143 631 115.5 590 c 128,-1,88
 88 549 88 549 88 506 c 0,89,90
 88 493 88 493 104 469 c 128,-1,91
 120 445 120 445 120 442 c 1,92,93
 174 446 174 446 205 495 c 0,94,95
 228 533 228 533 228 571 c 0,80,81
EndSplineSet
Validated: 37
EndChar

StartChar: quotesingle
Encoding: 39 39 8
Width: 300
Flags: W
LayerCount: 2
Fore
SplineSet
88 886 m 1,0,1
 91 946 91 946 138 946 c 0,2,3
 175 946 175 946 206 900 c 1,4,5
 216 868 216 868 216 849 c 0,6,7
 216 845 216 845 195 753 c 1,8,9
 187 725 187 725 160 695 c 0,10,11
 130 661 130 661 104 661 c 0,12,13
 75 661 75 661 60 708 c 1,14,15
 65 728 65 728 85 780 c 0,16,17
 99 817 99 817 99 840 c 256,18,19
 99 863 99 863 88 886 c 1,0,1
EndSplineSet
Validated: 1
EndChar

StartChar: parenleft
Encoding: 40 40 9
Width: 417
Flags: W
LayerCount: 2
Fore
SplineSet
285 -102 m 0,0,1
 198 -102 198 -102 132 115 c 0,2,3
 75 299 75 299 76 449 c 0,4,5
 76 476 76 476 105 578 c 0,6,7
 138 697 138 697 175 776 c 0,8,9
 223 878 223 878 264 878 c 0,10,11
 303 878 303 878 316.5 864.5 c 128,-1,12
 330 851 330 851 334 808 c 1,13,14
 274 712 274 712 236.5 607 c 128,-1,15
 199 502 199 502 199 425 c 0,16,17
 199 243 199 243 324 31 c 0,18,19
 351 -15 351 -15 351 -24 c 0,20,21
 351 -60 351 -60 333 -81 c 128,-1,22
 315 -102 315 -102 285 -102 c 0,0,1
EndSplineSet
Validated: 33
EndChar

StartChar: parenright
Encoding: 41 41 10
Width: 421
Flags: W
LayerCount: 2
Fore
SplineSet
139 -73 m 0,0,1
 91 -73 91 -73 78 -5 c 0,2,3
 73 21 73 21 100 75 c 1,4,5
 121 112 121 112 142 150 c 1,6,7
 201 266 201 266 201 405 c 0,8,9
 201 442 201 442 198 492 c 0,10,11
 186 665 186 665 53 782 c 1,12,-1
 53 857 l 1,13,-1
 75 878 l 2,14,15
 74 878 74 878 71 879 c 1,16,17
 104 897 104 897 118 897 c 0,18,19
 183 897 183 897 259 714 c 0,20,21
 326 552 326 552 326 473 c 0,22,23
 328 287 328 287 277 116 c 0,24,25
 220 -73 220 -73 139 -73 c 0,0,1
EndSplineSet
Validated: 33
EndChar

StartChar: plus
Encoding: 43 43 11
Width: 643
Flags: W
LayerCount: 2
Fore
SplineSet
616 374 m 5,0,1
 543 340 543 340 503 338 c 4,2,3
 391 331 391 331 376 329 c 5,4,5
 376 299 376 299 381.5 212.5 c 132,-1,6
 387 126 387 126 387 79 c 5,7,8
 381 70 381 70 375 62 c 5,9,10
 363 50 363 50 331 47 c 5,11,12
 304 64 304 64 297 130 c 4,13,14
 297 135 297 135 294 241 c 4,15,16
 292 297 292 297 277 297 c 4,17,18
 267 297 267 297 185 282 c 132,-1,19
 103 267 103 267 87 267 c 4,20,21
 62 267 62 267 28 299 c 5,22,-1
 28 336 l 5,23,24
 87 355 87 355 155 365 c 4,25,26
 247 379 247 379 284 387 c 5,27,28
 286 396 286 396 286 410 c 4,29,30
 286 427 286 427 282.5 476.5 c 132,-1,31
 279 526 279 526 279 551 c 4,32,33
 279 635 279 635 309 647 c 5,34,-1
 356 647 l 5,35,36
 377 614 377 614 377 572 c 4,37,38
 377 554 377 554 372 517.5 c 132,-1,39
 367 481 367 481 367 462 c 4,40,41
 367 427 367 427 379 398 c 5,42,43
 395 406 395 406 445 414 c 4,44,45
 505 424 505 424 557 442 c 4,46,47
 564 444 564 444 572 444 c 4,48,49
 587 444 587 444 616 430 c 5,50,51
 623 420 623 420 623 407 c 5,52,53
 623 414 623 414 616 374 c 5,0,1
EndSplineSet
Validated: 33
EndChar

StartChar: comma
Encoding: 44 44 12
Width: 316
Flags: W
LayerCount: 2
Fore
SplineSet
90 73 m 5,0,1
 94 132 94 132 141 132 c 4,2,3
 177 132 177 132 208 87 c 5,4,5
 218 54 218 54 218 35 c 4,6,7
 218 31 218 31 197 -60 c 5,8,9
 178 -85 178 -85 159 -110 c 5,10,11
 125 -148 125 -148 101 -148 c 4,12,13
 76 -148 76 -148 63 -106 c 5,14,15
 68 -85 68 -85 87 -34 c 4,16,17
 101 3 101 3 101 26 c 260,18,19
 101 49 101 49 90 73 c 5,0,1
EndSplineSet
Validated: 1
EndChar

StartChar: hyphen
Encoding: 45 45 13
AltUni2: 002010.ffffffff.0 002010.ffffffff.0 002010.ffffffff.0 002010.ffffffff.0 002010.ffffffff.0 002010.ffffffff.0 002010.ffffffff.0 002010.ffffffff.0 002010.ffffffff.0 002010.ffffffff.0 002010.ffffffff.0
Width: 490
Flags: W
LayerCount: 2
Fore
SplineSet
35 334 m 5,0,1
 58 364 58 364 80 364 c 4,2,3
 99 364 99 364 193 368.5 c 132,-1,4
 287 373 287 373 311 373 c 4,5,6
 319 373 319 373 358 382 c 132,-1,7
 397 391 397 391 405 391 c 4,8,9
 444 391 444 391 452 377 c 4,10,11
 454 374 454 374 454 342 c 4,12,13
 455 306 455 306 351 285 c 5,14,15
 262 266 262 266 153 266 c 4,16,17
 48 266 48 266 35 284 c 5,18,-1
 35 334 l 5,0,1
EndSplineSet
Validated: 33
EndChar

StartChar: period
Encoding: 46 46 14
Width: 271
VWidth: 0
Flags: HW
LayerCount: 2
Fore
SplineSet
217.31 52.1123 m 0,0,1
 217.31 -19.0879 217.31 -19.0879 126.84 -19.0879 c 0,2,3
 95.2305 -19.0879 95.2305 -19.0879 72.3398 -5.7373 c 0,4,5
 46.1797 9.83789 46.1797 9.83789 46.1797 35.4248 c 0,6,7
 46.1797 74.3623 46.1797 74.3623 84.3301 101.062 c 0,8,9
 115.94 123.312 115.94 123.312 148.64 123.312 c 0,10,11
 168.26 123.312 168.26 123.312 192.785 97.7246 c 128,-1,12
 217.31 72.1377 217.31 72.1377 217.31 52.1123 c 0,0,1
EndSplineSet
EndChar

StartChar: slash
Encoding: 47 47 15
Width: 511
Flags: W
LayerCount: 2
Fore
SplineSet
484 707 m 5,0,1
 486 701 486 701 486 690 c 5,2,3
 488 692 488 692 490 694 c 5,4,5
 486 687 486 687 466 645 c 4,6,7
 367 434 367 434 162 16 c 5,8,9
 150 9 150 9 133 9 c 4,10,11
 101 9 101 9 71 29 c 132,-1,12
 41 49 41 49 41 78 c 4,13,14
 41 91 41 91 49 105 c 4,15,16
 94 190 94 190 196 437 c 5,17,18
 283 652 283 652 355 762 c 4,19,20
 388 813 388 813 420 813 c 4,21,22
 431 813 431 813 440 807 c 5,23,24
 466 802 466 802 482 767 c 4,25,26
 495 738 495 738 495 707 c 5,27,-1
 484 707 l 5,0,1
EndSplineSet
Validated: 1
EndChar

StartChar: zero
Encoding: 48 48 16
Width: 624
Flags: W
LayerCount: 2
Fore
SplineSet
229 692 m 1,0,1
 306 789 306 789 392 789 c 0,2,3
 508 789 508 789 557 682 c 0,4,5
 589 613 589 613 589 513 c 0,6,7
 589 333 589 333 502 202 c 0,8,9
 401 49 401 49 225 49 c 0,10,11
 110 49 110 49 55 118 c 0,12,13
 8 178 8 178 9 282 c 0,14,15
 10 372 10 372 65 508 c 0,16,17
 128 661 128 661 198 693 c 0,18,19
 217 701 217 701 229 692 c 1,0,1
383 652 m 0,20,21
 304 652 304 652 217 518 c 0,22,23
 133 390 133 390 129 285 c 0,24,25
 127 238 127 238 152 205 c 0,26,27
 181 166 181 166 234 166 c 0,28,29
 341 166 341 166 408 294 c 0,30,31
 464 400 464 400 464 513 c 0,32,33
 464 556 464 556 451 593 c 0,34,35
 430 652 430 652 383 652 c 0,20,21
EndSplineSet
Validated: 33
EndChar

StartChar: one
Encoding: 49 49 17
Width: 350
Flags: W
LayerCount: 2
Fore
SplineSet
231.75 758.094 m 1,0,1
 249.858 767.126 249.858 767.126 277.121 762.735 c 128,-1,2
 304.383 758.344 304.383 758.344 303.062 738.031 c 2,3,-1
 266.75 87.2188 l 2,4,5
 264.667 49.8828 264.667 49.8828 258.125 29.0625 c 0,6,7
 251.343 7.47609 251.343 7.47609 239.531 2.75 c 0,8,9
 229.552 -1.22778 229.552 -1.22778 218.312 4.9375 c 0,10,11
 212.756 8.43188 212.756 8.43188 203.133 13.9245 c 128,-1,12
 193.51 19.4172 193.51 19.4172 187.824 22.7728 c 128,-1,13
 182.137 26.1284 182.137 26.1284 173.222 32.3018 c 128,-1,14
 164.307 38.4753 164.307 38.4753 160.166 43.3312 c 128,-1,15
 156.026 48.1871 156.026 48.1871 149.496 56.6803 c 128,-1,16
 142.966 65.1735 142.966 65.1735 142.049 73.1688 c 128,-1,17
 141.132 81.164 141.132 81.164 138.664 93.6161 c 128,-1,18
 136.195 106.068 136.195 106.068 140.179 118.842 c 1,19,20
 147.588 227.738 147.588 227.738 171.812 425.062 c 1,21,-1
 188.594 567.938 l 1,22,23
 132.57 497.398 132.57 497.398 104.788 476.874 c 0,24,25
 85.1918 462.397 85.1918 462.397 45.4375 449.094 c 0,26,27
 44.7427 448.858 44.7427 448.858 44.0625 449.125 c 0,28,29
 32.6546 453.709 32.6546 453.709 28.2188 467.969 c 0,30,31
 23.9625 481.651 23.9625 481.651 26.1875 504.594 c 1,32,33
 31.6783 531.883 31.6783 531.883 48.324 557.146 c 128,-1,34
 64.9698 582.41 64.9698 582.41 93.8557 613.44 c 128,-1,35
 122.742 644.471 122.742 644.471 130.375 654.188 c 1,36,37
 157.55 677.879 157.55 677.879 180.469 705.636 c 128,-1,38
 203.387 733.393 203.387 733.393 207.719 737.531 c 0,39,40
 222.181 751.349 222.181 751.349 231.75 758.094 c 1,0,1
EndSplineSet
Validated: 33
EndChar

StartChar: two
Encoding: 50 50 18
Width: 657
Flags: W
LayerCount: 2
Fore
SplineSet
449 639 m 1,0,1
 449 639 449 639 446 639 c 1,2,3
 444 638 444 638 442 638 c 0,4,5
 387 638 387 638 305 582 c 0,6,7
 282 567 282 567 170 477 c 0,8,9
 100 421 100 421 74 421 c 0,10,11
 58 421 58 421 35 432 c 1,12,13
 37 432 37 432 23 439 c 1,14,15
 18 452 18 452 18 452 c 2,16,17
 7 478 7 478 7 494 c 0,18,19
 7 537 7 537 113 614 c 0,20,21
 202 678 202 678 323 738 c 0,22,23
 439 795 439 795 474 795 c 0,24,25
 539 795 539 795 576 742 c 0,26,27
 607 698 607 698 607 641 c 0,28,29
 607 476 607 476 310 147 c 1,30,-1
 314 148 l 1,31,32
 360 164 360 164 407 179 c 0,33,34
 478 201 478 201 514 201 c 0,35,36
 535 201 535 201 544 193 c 0,37,38
 548 189 548 189 571 179 c 0,39,40
 587 171 587 171 597 151 c 1,41,-1
 597 92 l 1,42,43
 564 65 564 65 408 29 c 0,44,45
 261 -5 261 -5 205 -5 c 0,46,47
 143 -5 143 -5 121 4 c 0,48,49
 81 20 81 20 81 77 c 0,50,51
 81 120 81 120 147 185 c 1,52,53
 213 245 213 245 279 304 c 1,54,55
 363 382 363 382 405 443 c 0,56,57
 462 526 462 526 463 605 c 1,58,-1
 451 637 l 1,59,-1
 449 639 l 1,0,1
EndSplineSet
Validated: 1
EndChar

StartChar: three
Encoding: 51 51 19
Width: 722
Flags: W
LayerCount: 2
Fore
SplineSet
299 -28 m 0,0,1
 287 -28 287 -28 262.5 -22.5 c 128,-1,2
 238 -17 238 -17 225 -17 c 0,3,4
 196 -17 196 -17 139 2 c 0,5,6
 87 19 87 19 53 38 c 1,7,8
 42 76 42 76 42 102 c 0,9,10
 42 177 42 177 131 177 c 0,11,12
 142 177 142 177 153 170.5 c 128,-1,13
 164 164 164 164 174 158 c 1,14,15
 217 138 217 138 327 120 c 0,16,17
 333 119 333 119 346 119 c 0,18,19
 434 119 434 119 469 137 c 1,20,21
 495 149 495 149 521 161 c 0,22,23
 554 176 554 176 570 192 c 1,24,25
 544 228 544 228 467 250 c 0,26,27
 445 256 445 256 319 280 c 0,28,29
 228 297 228 297 189 319 c 1,30,31
 167 341 167 341 167 369 c 0,32,33
 167 398 167 398 190 418 c 1,34,35
 276 460 276 460 362 502 c 0,36,37
 464 553 464 553 515 614 c 1,38,39
 505 617 505 617 474 617 c 0,40,41
 399 617 399 617 109 466 c 1,42,43
 99 464 99 464 90 464 c 0,44,45
 30 464 30 464 30 539 c 0,46,47
 30 585 30 585 138 640 c 0,48,49
 224 683 224 683 351 721 c 0,50,51
 463 754 463 754 502 754 c 0,52,53
 557 754 557 754 625 732 c 0,54,55
 711 705 711 705 711 666 c 0,56,57
 711 569 711 569 434 400 c 1,58,59
 542 375 542 375 618 327 c 0,60,61
 720 264 720 264 720 179 c 0,62,63
 720 73 720 73 551 14 c 0,64,65
 421 -32 421 -32 299 -28 c 0,0,1
EndSplineSet
Validated: 33
EndChar

StartChar: four
Encoding: 52 52 20
Width: 618
Flags: W
LayerCount: 2
Fore
SplineSet
334 285 m 1,0,1
 325 285 325 285 306 280.5 c 128,-1,2
 287 276 287 276 276 276 c 0,3,4
 177 276 177 276 111 310 c 1,5,6
 18 356 18 356 18 459 c 0,7,8
 18 487 18 487 85 634 c 0,9,10
 158 793 158 793 192 793 c 0,11,12
 218 793 218 793 246 764.5 c 128,-1,13
 274 736 274 736 274 710 c 0,14,15
 274 693 274 693 222.5 596 c 128,-1,16
 171 499 171 499 171 493 c 2,17,-1
 171 434 l 1,18,19
 262 405 262 405 314 405 c 0,20,21
 332 405 332 405 335 411 c 0,22,23
 347 434 347 434 358 500 c 0,24,25
 366 547 366 547 374 594 c 0,26,27
 402 746 402 746 474 794 c 1,28,-1
 547 779 l 1,29,30
 553 756 553 756 553 732 c 0,31,32
 553 685 553 685 516.5 591 c 128,-1,33
 480 497 480 497 482 445 c 1,34,35
 515 470 515 470 536 470 c 0,36,37
 552 470 552 470 572 456 c 0,38,39
 603 434 603 434 606 433 c 1,40,41
 607 423 607 423 607 414 c 0,42,43
 607 370 607 370 574 343 c 0,44,45
 555 328 555 328 502 307 c 0,46,47
 483 300 483 300 475 295 c 1,48,49
 466 271 466 271 457 181 c 0,50,51
 448 82 448 82 438 43 c 0,52,53
 420 -25 420 -25 384 -28 c 1,54,55
 311 9 311 9 311 101 c 0,56,57
 311 134 311 134 321 195 c 1,58,59
 333 260 333 260 334 284 c 1,60,-1
 334 285 l 1,0,1
EndSplineSet
Validated: 33
EndChar

StartChar: five
Encoding: 53 53 21
Width: 711
Flags: W
LayerCount: 2
Fore
SplineSet
224 432 m 2,0,1
 274 432 274 432 374 438 c 0,2,3
 470 443 470 443 476 443 c 0,4,5
 542 443 542 443 603.5 390.5 c 128,-1,6
 665 338 665 338 665 284 c 0,7,8
 665 177 665 177 564 93 c 0,9,10
 484 26 484 26 357 -15 c 0,11,12
 250 -49 250 -49 184 -46 c 0,13,14
 165 -45 165 -45 118 -20 c 0,15,16
 68 6 68 6 50 29 c 1,17,18
 18 54 18 54 18 87 c 0,19,20
 18 126 18 126 57 168 c 1,21,22
 109 160 109 160 134 148 c 1,23,24
 164 135 164 135 194 103 c 0,25,26
 204 91 204 91 223 91 c 0,27,28
 305 91 305 91 413 152 c 0,29,30
 526 217 526 217 531 276 c 1,31,32
 507 285 507 285 446 296 c 0,33,34
 392 305 392 305 382 305 c 256,35,36
 372 305 372 305 302.5 295.5 c 128,-1,37
 233 286 233 286 223 286 c 0,38,39
 172 286 172 286 128 322 c 0,40,41
 80 362 80 362 80 421 c 0,42,43
 80 470 80 470 120 529 c 1,44,45
 117 598 117 598 117 611 c 0,46,47
 117 694 117 694 141 736 c 0,48,49
 174 794 174 794 256 794 c 0,50,51
 271 794 271 794 295.5 780 c 128,-1,52
 320 766 320 766 321 766 c 0,53,54
 331 766 331 766 439 784 c 1,55,56
 551 804 551 804 565 804 c 0,57,58
 605 804 605 804 624 796 c 0,59,60
 651 785 651 785 668 754 c 1,61,62
 682 734 682 734 683 664 c 1,63,64
 642 648 642 648 620 648 c 0,65,66
 597 648 597 648 570 664 c 0,67,68
 566 666 566 666 565 666 c 0,69,70
 561 666 561 666 517 655 c 0,71,72
 375 622 375 622 313 622 c 0,73,74
 289 622 289 622 270 626 c 1,75,76
 255 586 255 586 239 516 c 0,77,78
 225 452 225 452 225 436 c 1,79,80
 225 438 225 438 223 432 c 1,81,-1
 224 432 l 2,0,1
EndSplineSet
Validated: 33
EndChar

StartChar: six
Encoding: 54 54 22
Width: 629
Flags: W
LayerCount: 2
Fore
SplineSet
145 249 m 1,0,1
 181 342 181 342 264 412 c 128,-1,2
 347 482 347 482 418 482 c 0,3,4
 511 482 511 482 551 453 c 0,5,6
 600 417 600 417 606 319 c 0,7,8
 614 179 614 179 508 82 c 0,9,10
 411 -7 411 -7 288 -7 c 256,11,12
 165 -7 165 -7 89 99 c 0,13,14
 29 184 29 184 16 302 c 0,15,16
 6 391 6 391 82 523 c 0,17,18
 155 651 155 651 262 743 c 0,19,20
 379 843 379 843 474 843 c 0,21,22
 516 843 516 843 549 810 c 1,23,-1
 549 730 l 1,24,25
 479 709 479 709 350 611 c 0,26,27
 188 487 188 487 140 370 c 1,28,29
 132 340 132 340 132 309 c 0,30,31
 132 256 132 256 145 249 c 1,0,1
418 335 m 0,32,33
 351 335 351 335 298 261 c 0,34,35
 253 198 253 198 253 151 c 2,36,-1
 253 126 l 1,37,38
 268 121 268 121 292 121 c 0,39,40
 353 121 353 121 412 175 c 128,-1,41
 471 229 471 229 471 290 c 0,42,43
 471 335 471 335 418 335 c 0,32,33
EndSplineSet
Validated: 33
EndChar

StartChar: seven
Encoding: 55 55 23
Width: 643
Flags: W
LayerCount: 2
Fore
SplineSet
455 671 m 1,0,1
 403 662 403 662 255 630 c 0,2,3
 99 596 99 596 86 589 c 0,4,5
 69 580 69 580 52 580 c 0,6,7
 13 580 13 580 -29 620 c 1,8,-1
 -29 679 l 1,9,10
 10 734 10 734 264 781 c 0,11,12
 474 819 474 819 583 819 c 0,13,14
 601 819 601 819 623 809 c 1,15,16
 641 799 641 799 659 790 c 1,17,-1
 659 726 l 1,18,19
 525 569 525 569 434 396 c 1,20,21
 350 228 350 228 266 60 c 1,22,23
 234 1 234 1 189 -1 c 0,24,25
 154 -2 154 -2 135 38 c 0,26,27
 121 67 121 67 120 91 c 1,28,29
 120 138 120 138 264 373 c 1,30,31
 359 522 359 522 455 671 c 1,0,1
EndSplineSet
Validated: 33
EndChar

StartChar: eight
Encoding: 56 56 24
Width: 580
Flags: W
LayerCount: 2
Fore
SplineSet
439 483 m 0,0,1
 414 453 414 453 371 402 c 0,2,3
 365 394 365 394 355.5 391.5 c 128,-1,4
 346 389 346 389 347 388 c 0,5,6
 437 322 437 322 470 287 c 0,7,8
 534 218 534 218 534 146 c 0,9,10
 534 86 534 86 442 35 c 0,11,12
 364 -8 364 -8 311 -8 c 2,13,-1
 251 -8 l 2,14,15
 203 -8 203 -8 137 47 c 0,16,17
 68 105 68 105 68 155 c 0,18,19
 68 184 68 184 104.5 250 c 128,-1,20
 141 316 141 316 182 359 c 1,21,22
 173 351 173 351 167 356 c 0,23,24
 118 399 118 399 68 442 c 1,25,26
 13 499 13 499 13 557 c 0,27,28
 13 626 13 626 159 704 c 0,29,30
 288 772 288 772 352 772 c 0,31,32
 425 772 425 772 477 751 c 0,33,34
 553 719 553 719 553 647 c 0,35,36
 553 613 553 613 439 483 c 0,0,1
345 646 m 1,37,38
 327 648 327 648 266 623 c 0,39,40
 193 592 193 592 148 552 c 1,41,42
 154 528 154 528 186 492 c 0,43,44
 221 451 221 451 246 451 c 0,45,46
 276 451 276 451 334 537 c 1,47,48
 370 595 370 595 405 653 c 1,49,50
 385 656 385 656 345 646 c 1,37,38
258 288 m 1,51,-1
 285 295 l 1,52,53
 264 267 264 267 242 239 c 0,54,55
 216 204 216 204 216 176 c 0,56,57
 216 166 216 166 219 157 c 1,58,59
 244 120 244 120 301 120 c 0,60,61
 308 120 308 120 327 129.5 c 128,-1,62
 346 139 346 139 361 139 c 0,63,64
 391 139 391 139 391 151 c 0,65,66
 391 181 391 181 336 230 c 0,67,68
 296 266 296 266 258 288 c 1,51,-1
EndSplineSet
Validated: 37
EndChar

StartChar: nine
Encoding: 57 57 25
Width: 538
Flags: W
LayerCount: 2
Fore
SplineSet
279 -91 m 0,0,1
 250 -96 250 -96 230 -75.5 c 128,-1,2
 210 -55 210 -55 210 -13 c 0,3,4
 210 3 210 3 250 122 c 0,5,6
 299 267 299 267 312 314 c 1,7,-1
 314 323 l 1,8,9
 230 271 230 271 189 271 c 0,10,11
 117 271 117 271 65 328 c 0,12,13
 17 381 17 381 17 445 c 0,14,15
 17 579 17 579 119 701 c 0,16,17
 225 829 225 829 354 829 c 0,18,19
 440 829 440 829 484 759 c 0,20,21
 517 706 517 706 517 636 c 0,22,23
 517 607 517 607 475 432 c 1,24,25
 428 231 428 231 381 94 c 0,26,27
 320 -85 320 -85 279 -91 c 0,0,1
354 681 m 0,28,29
 270 681 270 681 206 595 c 1,30,31
 150 522 150 522 150 459 c 0,32,33
 150 436 150 436 165 405 c 1,34,35
 179 400 179 400 202 410 c 1,36,37
 271 410 271 410 331 489 c 128,-1,38
 391 568 391 568 384 648 c 0,39,40
 383 659 383 659 372.5 670 c 128,-1,41
 362 681 362 681 354 681 c 0,28,29
EndSplineSet
Validated: 33
EndChar

StartChar: colon
Encoding: 58 58 26
Width: 269
Flags: W
LayerCount: 2
Fore
SplineSet
104 357 m 4,0,1
 76 357 76 357 58 372 c 4,2,3
 37 390 37 390 37 422 c 4,4,5
 37 445 37 445 51 475 c 4,6,7
 69 514 69 514 97 514 c 4,8,9
 136 514 136 514 177 468 c 5,10,11
 192 426 192 426 176 392 c 5,12,13
 160 377 160 377 137.5 367 c 132,-1,14
 115 357 115 357 104 357 c 4,0,1
120 53 m 4,15,16
 93 53 93 53 72 67 c 4,17,18
 44 85 44 85 44 118 c 4,19,20
 44 162 44 162 79 189 c 4,21,22
 107 210 107 210 135 210 c 4,23,24
 157 210 157 210 180 183.5 c 132,-1,25
 203 157 203 157 203 132 c 4,26,27
 203 53 203 53 120 53 c 4,15,16
EndSplineSet
Validated: 33
EndChar

StartChar: semicolon
Encoding: 59 59 27
Width: 273
Flags: W
LayerCount: 2
Fore
SplineSet
117 286 m 0,0,1
 86 286 86 286 65 303 c 128,-1,2
 44 320 44 320 44 353 c 0,3,4
 44 376 44 376 59 407 c 0,5,6
 79 447 79 447 109 447 c 0,7,8
 151 447 151 447 197 399 c 1,9,10
 204 354 204 354 196 324 c 1,11,12
 178 308 178 308 151 296 c 0,13,14
 128 286 128 286 117 286 c 0,0,1
38 -190 m 0,15,16
 -30 -190 -30 -190 -30 -99 c 0,17,18
 -30 -87 -30 -87 -29 -75 c 1,19,20
 26 -32 26 -32 44 5 c 0,21,22
 61 38 61 38 68 107 c 0,23,24
 74 171 74 171 125 200 c 1,25,26
 164 200 164 200 195 168 c 1,27,28
 224 140 224 140 224 110 c 0,29,30
 224 66 224 66 163 -54 c 0,31,32
 94 -190 94 -190 38 -190 c 0,15,16
EndSplineSet
Validated: 33
EndChar

StartChar: equal
Encoding: 61 61 28
Width: 726
Flags: W
LayerCount: 2
Fore
SplineSet
530 401 m 4,0,1
 519 401 519 401 432.5 405.5 c 132,-1,2
 346 410 346 410 334 410 c 4,3,4
 284 410 284 410 249 401 c 4,5,6
 238 398 238 398 174 374 c 4,7,8
 152 365 152 365 133 365 c 4,9,10
 97 365 97 365 73 387 c 5,11,12
 46 410 46 410 46 449 c 4,13,14
 46 461 46 461 49 475 c 5,15,16
 77 504 77 504 189.5 522 c 132,-1,17
 302 540 302 540 465 540 c 4,18,19
 556 540 556 540 624 503 c 5,20,21
 636 479 636 479 636 460 c 4,22,23
 636 401 636 401 530 401 c 4,0,1
157 150 m 0,24,25
 132 150 132 150 103 175 c 128,-1,26
 74 200 74 200 74 227 c 0,27,28
 74 290 74 290 236 303 c 1,29,30
 317 308 317 308 398 313 c 0,31,32
 509 321 509 321 592 334 c 0,33,34
 600 335 600 335 608 335 c 0,35,36
 642 335 642 335 670 309 c 0,37,38
 685 296 685 296 685 274 c 0,39,40
 685 254 685 254 672 228 c 1,41,42
 621 203 621 203 396 175 c 1,43,44
 205 150 205 150 157 150 c 0,24,25
EndSplineSet
Validated: 1
EndChar

StartChar: question
Encoding: 63 63 29
Width: 588
Flags: W
LayerCount: 2
Fore
SplineSet
134 277 m 1,0,-1
 73 277 l 1,1,2
 73 298 73 298 68 314 c 0,3,4
 62 335 62 335 62 349 c 0,5,6
 62 419 62 419 161 476 c 0,7,8
 188 492 188 492 345 559 c 0,9,10
 444 601 444 601 444 633 c 0,11,12
 444 664 444 664 388 687 c 0,13,14
 355 700 355 700 319 706 c 1,15,16
 287 705 287 705 171 650 c 0,17,18
 60 597 60 597 30 601 c 0,19,20
 -34 609 -34 609 -32 659 c 0,21,22
 -32 661 -32 661 -32 663 c 0,23,24
 -31 666 -31 666 -31 666 c 1,25,26
 -31 743 -31 743 136 788 c 1,27,28
 269 825 269 825 368 820 c 0,29,30
 431 817 431 817 503 769 c 0,31,32
 589 712 589 712 589 638 c 0,33,34
 589 578 589 578 523 522 c 0,35,36
 474 481 474 481 382 438 c 1,37,38
 317 410 317 410 253 382 c 1,39,40
 173 274 173 274 136 277 c 1,41,-1
 134 277 l 1,0,-1
223 68 m 1,42,43
 163 30 163 30 120 30 c 0,44,45
 94 30 94 30 77 54 c 0,46,47
 62 75 62 75 62 99 c 0,48,49
 62 135 62 135 86 166 c 128,-1,50
 110 197 110 197 136 197 c 0,51,52
 190 197 190 197 233 155 c 1,53,-1
 223 68 l 1,42,43
EndSplineSet
Validated: 33
EndChar

StartChar: at
Encoding: 64 64 30
Width: 932
Flags: W
LayerCount: 2
Fore
SplineSet
649 102 m 2,0,-1
 621 102 l 2,1,2
 528 102 528 102 528 233 c 0,3,4
 528 253 528 253 531 275 c 1,5,6
 483 193 483 193 468 177 c 0,7,8
 430 137 430 137 358 137 c 0,9,10
 310 137 310 137 277 179 c 0,11,12
 249 216 249 216 249 260 c 0,13,14
 249 358 249 358 348 454 c 128,-1,15
 447 550 447 550 540 550 c 0,16,17
 552 550 552 550 602 540 c 0,18,19
 619 536 619 536 688 521 c 1,20,21
 688 514 688 514 692 509 c 0,22,23
 698 500 698 500 698 485 c 0,24,25
 698 474 698 474 669 383 c 0,26,27
 639 286 639 286 631 231 c 1,28,29
 634 218 634 218 643 222 c 0,30,31
 796 291 796 291 837 534 c 0,32,33
 838 544 838 544 838 553 c 0,34,35
 838 628 838 628 742 679 c 0,36,37
 662 721 662 721 584 721 c 0,38,39
 498 721 498 721 381 653.5 c 128,-1,40
 264 586 264 586 184 491 c 0,41,42
 96 386 96 386 96 295 c 0,43,44
 96 220 96 220 178 152 c 0,45,46
 243 98 243 98 345 60 c 0,47,48
 431 28 431 28 478 28 c 0,49,50
 481 28 481 28 528 17 c 0,51,52
 560 9 560 9 588 9 c 0,53,54
 646 9 646 9 698 44 c 0,55,56
 717 57 717 57 738 69.5 c 128,-1,57
 759 82 759 82 777 82 c 0,58,59
 797 82 797 82 819 70 c 2,60,-1
 840 59 l 1,61,-1
 838 51 l 2,62,63
 838 50 838 50 840 42 c 0,64,65
 844 30 844 30 849 3 c 1,66,67
 802 -36 802 -36 746 -58 c 0,68,69
 703 -75 703 -75 677 -75 c 1,70,71
 622 -88 622 -88 551 -88 c 0,72,73
 479 -88 479 -88 412 -75 c 1,74,75
 388 -74 388 -74 300 -40 c 0,76,77
 197 0 197 0 128 44 c 0,78,79
 38 101 38 101 37 148 c 1,80,81
 3 216 3 216 3 293 c 0,82,83
 3 369 3 369 37 445 c 0,84,85
 93 567 93 567 255 691 c 1,86,87
 432 825 432 825 575 825 c 0,88,89
 713 825 713 825 807 768 c 1,90,91
 928 697 928 697 928 552 c 0,92,93
 928 480 928 480 891 375 c 1,94,95
 850 262 850 262 791 188 c 0,96,97
 722 102 722 102 649 102 c 2,0,-1
501 437 m 1,98,99
 458 438 458 438 407 367 c 1,100,101
 361 305 361 305 361 277 c 0,102,103
 361 268 361 268 370 243 c 1,104,105
 470 283 470 283 568 444 c 1,106,-1
 501 437 l 1,98,99
EndSplineSet
Validated: 33
EndChar

StartChar: A
Encoding: 65 65 31
Width: 598
Flags: W
LayerCount: 2
Fore
SplineSet
410 234 m 1,0,1
 402 234 402 234 398 234 c 0,2,3
 390 234 390 234 307 197 c 1,4,5
 257 176 257 176 207 154 c 1,6,7
 196 97 196 97 184 40 c 0,8,9
 170 -24 170 -24 133 -69 c 1,10,11
 111 -74 111 -74 92 -74 c 0,12,13
 12 -74 12 -74 12 31 c 0,14,15
 12 55 12 55 146 439 c 0,16,17
 286 839 286 839 317 839 c 0,18,19
 376 839 376 839 438 677 c 0,20,21
 491 539 491 539 532 325 c 0,22,23
 559 181 559 181 559 131 c 0,24,25
 559 -11 559 -11 457 25 c 0,26,27
 409 41 409 41 409 174 c 0,28,29
 409 187 409 187 409 208 c 1,30,31
 410 228 410 228 410 234 c 1,0,1
349 551 m 0,32,33
 343 564 343 564 327 588 c 1,34,35
 249 379 249 379 249 354 c 2,36,-1
 249 342 l 1,37,38
 309 355 309 355 397 383 c 1,39,40
 370 509 370 509 349 551 c 0,32,33
EndSplineSet
EndChar

StartChar: B
Encoding: 66 66 32
Width: 616
Flags: W
LayerCount: 2
Fore
SplineSet
94 448 m 1,0,1
 75 479 75 479 38 620 c 0,2,3
 29 655 29 655 29 668 c 0,4,5
 29 706 29 706 55 744 c 0,6,7
 88 793 88 793 145 794 c 1,8,9
 207 814 207 814 269 835 c 1,10,11
 366 866 366 866 384 866 c 0,12,13
 572 866 572 866 572 711 c 0,14,15
 572 647 572 647 544 602 c 1,16,17
 512 557 512 557 481 513 c 1,18,19
 546 495 546 495 576 464 c 0,20,21
 609 429 609 429 609 367 c 0,22,23
 609 288 609 288 518 179 c 1,24,25
 432 78 432 78 314 4 c 0,26,27
 191 -74 191 -74 106 -74 c 0,28,29
 38 -74 38 -74 38 0 c 0,30,31
 38 17 38 17 64.5 51 c 128,-1,32
 91 85 91 85 91 86 c 0,33,34
 91 113 91 113 85 181 c 0,35,36
 79 241 79 241 81 277 c 1,37,38
 50 308 50 308 47 312 c 0,39,40
 29 335 29 335 29 358 c 0,41,42
 29 374 29 374 78 438 c 1,43,-1
 86 449 l 2,44,45
 89 453 89 453 94 448 c 1,0,1
437 704 m 1,46,47
 407 718 407 718 389 718 c 0,48,49
 323 718 323 718 262 692 c 0,50,51
 186 659 186 659 186 604 c 0,52,53
 186 590 186 590 196 549 c 0,54,55
 208 497 208 497 209 490 c 1,56,57
 375 533 375 533 437 681 c 1,58,-1
 437 704 l 1,46,47
430 384 m 0,59,60
 355 384 355 384 335 375 c 1,61,62
 313 363 313 363 211 323 c 1,63,64
 211 306 211 306 213 221 c 0,65,66
 215 158 215 158 213 123 c 1,67,-1
 228 123 l 1,68,69
 287 149 287 149 362 205 c 0,70,71
 474 290 474 290 474 353 c 0,72,73
 474 384 474 384 430 384 c 0,59,60
EndSplineSet
Validated: 33
EndChar

StartChar: C
Encoding: 67 67 33
Width: 524
Flags: W
LayerCount: 2
Fore
SplineSet
256 -29 m 0,0,1
 130 -24 130 -24 60 148 c 0,2,3
 7 276 7 276 11 382 c 0,4,5
 17 544 17 544 89 665 c 0,6,7
 177 811 177 811 325 811 c 0,8,9
 407 811 407 811 456 718 c 0,10,11
 493 649 493 649 493 590 c 0,12,13
 493 540 493 540 470 482 c 0,14,15
 444 417 444 417 412 417 c 0,16,17
 328 417 328 417 328 496 c 0,18,19
 328 521 328 521 337.5 567 c 128,-1,20
 347 613 347 613 347 625 c 0,21,22
 347 664 347 664 302 664 c 0,23,24
 216 664 216 664 172 533 c 0,25,26
 144 450 144 450 144 382 c 0,27,28
 144 299 144 299 169 221 c 0,29,30
 204 109 204 109 275 109 c 0,31,32
 329 109 329 109 363 130 c 0,33,34
 377 139 377 139 415 178 c 0,35,36
 447 211 447 211 482 226 c 1,37,38
 511 197 511 197 511 159 c 0,39,40
 511 65 511 65 410 11 c 0,41,42
 331 -32 331 -32 256 -29 c 0,0,1
EndSplineSet
Validated: 33
EndChar

StartChar: D
Encoding: 68 68 34
Width: 581
Flags: W
LayerCount: 2
Fore
SplineSet
122 14 m 0,0,1
 43 18 43 18 50 298 c 0,2,3
 55 496 55 496 55 519 c 0,4,5
 54 641 54 641 37 705 c 0,6,7
 31 730 31 730 31 749 c 0,8,9
 31 820 31 820 112 820 c 0,10,11
 197 820 197 820 303 772 c 0,12,13
 414 721 414 721 486 644 c 0,14,15
 567 558 567 558 567 467 c 0,16,17
 567 371 567 371 483 258 c 0,18,19
 408 156 408 156 300.5 83.5 c 128,-1,20
 193 11 193 11 122 14 c 0,0,1
187 663 m 1,21,-1
 175 663 l 1,22,23
 196 472 196 472 199 201 c 1,24,25
 301 227 301 227 373 312 c 0,26,27
 443 394 443 394 433 469 c 1,28,29
 425 537 425 537 337 595 c 0,30,31
 272 638 272 638 187 663 c 1,21,-1
EndSplineSet
Validated: 33
EndChar

StartChar: E
Encoding: 69 69 35
Width: 567
Flags: W
LayerCount: 2
Fore
SplineSet
166 402 m 1,0,1
 191 408 191 408 307 455 c 1,2,3
 409 495 409 495 427 495 c 2,4,-1
 516 495 l 1,5,-1
 516 409 l 1,6,7
 417 334 417 334 307 296 c 1,8,9
 253 281 253 281 147 249 c 1,10,11
 145 239 145 239 145 199 c 0,12,13
 145 131 145 131 163 104.5 c 128,-1,14
 181 78 181 78 226 78 c 0,15,16
 277 78 277 78 363 114 c 1,17,18
 488 168 488 168 497 171 c 1,19,-1
 524 150 l 2,20,21
 523 152 523 152 523 154 c 1,22,23
 535 130 535 130 535 113 c 0,24,25
 535 69 535 69 462 21 c 0,26,27
 407 -14 407 -14 323 -45 c 0,28,29
 253 -70 253 -70 235 -70 c 0,30,31
 89 -70 89 -70 39 45 c 0,32,33
 10 111 10 111 10 251 c 0,34,35
 10 352 10 352 39 503 c 0,36,37
 82 724 82 724 156 724 c 0,38,39
 166 724 166 724 182.5 719.5 c 128,-1,40
 199 715 199 715 208 715 c 0,41,42
 238 715 238 715 361 761 c 0,43,44
 490 810 490 810 547 810 c 0,45,46
 571 810 571 810 587.5 793 c 128,-1,47
 604 776 604 776 604 757 c 0,48,49
 604 742 604 742 593 736 c 1,50,51
 543 671 543 671 458 641 c 1,52,53
 378 619 378 619 298 598 c 0,54,55
 234 581 234 581 208 549 c 1,56,57
 170 505 170 505 166 402 c 1,0,1
EndSplineSet
Validated: 1
EndChar

StartChar: F
Encoding: 70 70 36
Width: 538
Flags: W
LayerCount: 2
Fore
SplineSet
531 701 m 1,0,1
 523 694 523 694 509 679 c 1,2,3
 482 681 482 681 409 696 c 0,4,5
 398 699 398 699 393 699 c 0,6,7
 331 699 331 699 272 674.5 c 128,-1,8
 213 650 213 650 156 624 c 1,9,10
 157 582 157 582 160 498 c 1,11,12
 171 502 171 502 252 538 c 0,13,14
 314 565 314 565 339 569 c 1,15,16
 388 582 388 582 434 569 c 1,17,-1
 449 548 l 2,18,19
 448 550 448 550 448 553 c 1,20,21
 460 533 460 533 460 516 c 0,22,23
 460 478 460 478 352 427 c 1,24,25
 277 395 277 395 201 364 c 0,26,27
 185 358 185 358 162 346 c 1,28,29
 175 242 175 242 190 84 c 1,30,31
 192 -2 192 -2 140 -42 c 1,32,33
 108 -46 108 -46 63 -10 c 1,34,35
 45 100 45 100 23 392 c 0,36,37
 3 654 3 654 3 711 c 0,38,39
 3 750 3 750 32 773 c 1,40,41
 54 789 54 789 75 789 c 0,42,43
 92 789 92 789 109.5 775 c 128,-1,44
 127 761 127 761 130 761 c 1,45,46
 166 778 166 778 204 797 c 1,47,48
 293 837 293 837 375 837 c 0,49,50
 387 837 387 837 399 832 c 0,51,52
 419 823 419 823 419 823 c 1,53,54
 427 824 427 824 435 824 c 0,55,56
 477 824 477 824 510 798 c 128,-1,57
 543 772 543 772 543 739 c 0,58,59
 543 716 543 716 531 701 c 1,0,1
EndSplineSet
Validated: 33
EndChar

StartChar: G
Encoding: 71 71 37
Width: 609
Flags: W
LayerCount: 2
Fore
SplineSet
413 640 m 0,0,1
 416 657 416 657 441 677 c 1,2,-1
 441 691 l 1,3,4
 394 716 394 716 373 716 c 0,5,6
 291 716 291 716 225 611 c 0,7,8
 167 518 167 518 167 438 c 1,9,10
 156 327 156 327 156 292 c 1,11,12
 157 269 157 269 167 190 c 1,13,14
 167 151 167 151 190.5 115.5 c 128,-1,15
 214 80 214 80 242 83 c 0,16,17
 297 88 297 88 361 155.5 c 128,-1,18
 425 223 425 223 431 285 c 1,19,-1
 426 292 l 1,20,21
 415 304 415 304 409 302 c 0,22,23
 387 295 387 295 296 249 c 0,24,25
 279 240 279 240 267 240 c 0,26,27
 244 240 244 240 224 254 c 0,28,29
 200 271 200 271 200 300 c 0,30,31
 200 365 200 365 288 410 c 0,32,33
 357 445 357 445 410 445 c 0,34,35
 454 445 454 445 503 419 c 0,36,37
 565 386 565 386 565 333 c 0,38,39
 565 209 565 209 466 84 c 0,40,41
 361 -47 361 -47 243 -46 c 0,42,43
 151 -45 151 -45 90 26 c 0,44,45
 34 92 34 92 33 178 c 1,46,47
 20 221 20 221 20 284 c 0,48,49
 20 349 20 349 33 420 c 1,50,51
 34 502 34 502 74 601 c 0,52,53
 119 713 119 713 190 782 c 0,54,55
 275 864 275 864 378 864 c 0,56,57
 454 864 454 864 514 820 c 0,58,59
 584 768 584 768 584 681 c 0,60,61
 584 619 584 619 549 581 c 0,62,63
 519 549 519 549 478 549 c 0,64,65
 450 549 450 549 432 566 c 0,66,67
 411 586 411 586 411 620 c 0,68,69
 411 630 411 630 413 640 c 0,0,1
EndSplineSet
Validated: 33
EndChar

StartChar: H
Encoding: 72 72 38
Width: 619
Flags: W
LayerCount: 2
Fore
SplineSet
407 439 m 1,0,1
 408 453 408 453 417 532 c 0,2,3
 425 597 425 597 425 637 c 0,4,5
 425 717 425 717 397 760 c 1,6,7
 411 770 411 770 425 791 c 0,8,9
 444 818 444 818 467 818 c 0,10,11
 514 818 514 818 557 774 c 1,12,-1
 557 324 l 2,13,14
 557 227 557 227 591 148 c 0,15,16
 594 140 594 140 594 135 c 0,17,18
 594 81 594 81 583 57 c 0,19,20
 569 26 569 26 521 6 c 1,21,22
 512 1 512 1 504 1 c 0,23,24
 454 1 454 1 439 155 c 1,25,26
 436 212 436 212 422 326 c 1,27,28
 302 305 302 305 251 284 c 0,29,30
 209 267 209 267 200 242 c 0,31,32
 193 222 193 222 202 164 c 1,33,34
 214 76 214 76 214 23 c 0,35,36
 214 -39 214 -39 192 -65 c 0,37,38
 190 -68 190 -68 181 -93 c 1,39,-1
 124 -70 l 1,40,41
 91 -61 91 -61 64 208 c 0,42,43
 56 292 56 292 38 567 c 0,44,45
 30 693 30 693 25 716 c 0,46,47
 24 720 24 720 24 725 c 0,48,49
 24 752 24 752 52.5 775.5 c 128,-1,50
 81 799 81 799 106 799 c 0,51,52
 132 799 132 799 153 746 c 128,-1,53
 174 693 174 693 180 617 c 0,54,55
 185 559 185 559 186 418 c 1,56,57
 190 412 190 412 200 412 c 0,58,59
 201 412 201 412 253 423 c 0,60,61
 284 430 284 430 315 438 c 0,62,63
 353 447 353 447 379 447 c 0,64,65
 393 447 393 447 407 439 c 1,0,1
EndSplineSet
Validated: 33
EndChar

StartChar: I
Encoding: 73 73 39
Width: 426
Flags: W
LayerCount: 2
Fore
SplineSet
309.156 822.685 m 4,0,1
 346.377 822.869 346.377 822.869 357.125 815.271 c 4,2,3
 361.84 812.188 361.84 812.188 364.844 807.681 c 4,4,5
 376.192 790.653 376.192 790.653 368.5 757.066 c 4,6,7
 362.061 729.521 362.061 729.521 352.375 719.293 c 4,8,9
 340.285 706.528 340.285 706.528 309.593 701.026 c 4,10,11
 283.281 696.31 283.281 696.31 226.281 690.28 c 5,12,13
 253.492 570.586 253.492 570.586 258 447 c 4,14,15
 264.463 270.008 264.463 270.008 260.47 132.072 c 5,16,17
 308.599 138.677 308.599 138.677 339 137.889 c 4,18,19
 370.537 137.071 370.537 137.071 383.844 128.276 c 5,20,-1
 383.906 128.241 l 6,21,22
 388.938 125.19 388.938 125.19 392.375 120.58 c 4,23,24
 405.318 103.219 405.318 103.219 397.719 69.7539 c 4,25,26
 391.329 42.2422 391.329 42.2422 380.938 32.2637 c 4,27,28
 364.144 16.1338 364.144 16.1338 319.093 6.93848 c 4,29,30
 274.377 -2.18848 274.377 -2.18848 201.75 -4.58887 c 132,-1,31
 129.14 -6.99023 129.14 -6.99023 86.0625 -1.50293 c 4,32,33
 42.5293 4.04199 42.5293 4.04199 28.875 17.8271 c 4,34,35
 28.2383 18.4814 28.2383 18.4814 28.2188 19.459 c 4,36,37
 27.1885 55.292 27.1885 55.292 47.75 75.0381 c 4,38,39
 57.9189 84.8057 57.9189 84.8057 85.5 94.4756 c 4,40,41
 112.018 103.774 112.018 103.774 155.812 113.31 c 5,42,43
 151.068 235.05 151.068 235.05 138.031 442.211 c 4,44,45
 126.243 625.718 126.243 625.718 124.406 683.61 c 5,46,47
 84.3779 681.263 84.3779 681.263 61.1562 683.61 c 4,48,49
 36.6152 686.094 36.6152 686.094 29.5 694.004 c 4,50,51
 28.9131 694.661 28.9131 694.661 28.9062 695.6 c 4,52,53
 28.791 742.94 28.791 742.94 48.25 763.487 c 4,54,55
 60.3369 776.248 60.3369 776.248 79.9062 783.137 c 4,56,57
 99.1279 789.906 99.1279 789.906 162.594 803.957 c 4,58,59
 245.623 822.341 245.623 822.341 309.156 822.685 c 4,0,1
EndSplineSet
Validated: 33
EndChar

StartChar: J
Encoding: 74 74 40
Width: 590
Flags: W
LayerCount: 2
Fore
SplineSet
553 708 m 1,0,1
 528 697 528 697 479 672 c 1,2,-1
 479 409 l 2,3,4
 479 267 479 267 443 138 c 0,5,6
 386 -61 386 -61 267 -54 c 1,7,8
 208 -59 208 -59 141 17 c 0,9,10
 83 83 83 83 40 183 c 0,11,12
 -1 278 -1 278 -1 339 c 0,13,14
 -1 368 -1 368 31 408 c 1,15,16
 47 416 47 416 62 416 c 0,17,18
 108 416 108 416 146 330 c 1,19,20
 175 250 175 250 205 170 c 0,21,22
 238 84 238 84 270 83 c 1,23,24
 344 137 344 137 344 355 c 0,25,26
 344 373 344 373 344 404 c 0,27,28
 343 435 343 435 343 446 c 0,29,30
 343 585 343 585 335 615 c 0,31,32
 324 653 324 653 290 653 c 0,33,34
 266 653 266 653 226 638 c 1,35,36
 216 677 216 677 216 698 c 0,37,38
 216 744 216 744 255 764 c 0,39,40
 269 772 269 772 271.5 774 c 128,-1,41
 274 776 274 776 281 790 c 1,42,43
 291 789 291 789 301 789 c 0,44,45
 336 789 336 789 414.5 817.5 c 128,-1,46
 493 846 493 846 533 846 c 256,47,48
 573 846 573 846 633 800 c 1,49,50
 611 738 611 738 553 708 c 1,0,1
EndSplineSet
Validated: 33
EndChar

StartChar: K
Encoding: 75 75 41
Width: 601
Flags: W
LayerCount: 2
Fore
SplineSet
40 112 m 1,0,-1
 53 349 l 1,1,2
 23 375 23 375 23 420 c 0,3,4
 23 459 23 459 38 472 c 0,5,6
 71 500 71 500 71 548 c 0,7,8
 71 577 71 577 46 661 c 0,9,10
 32 710 32 710 32 737 c 0,11,12
 32 817 32 817 138 822 c 0,13,14
 175 824 175 824 191 776 c 1,15,16
 204 741 204 741 205 676 c 0,17,18
 205 632 205 632 205 589 c 1,19,20
 489 765 489 765 529 765 c 0,21,22
 571 765 571 765 605 696 c 1,23,24
 549 637 549 637 483 595 c 0,25,26
 442 569 442 569 360 530 c 0,27,28
 273 488 273 488 225 460 c 1,29,30
 323 389 323 389 420 319 c 1,31,32
 554 214 554 214 554 159 c 0,33,34
 554 132 554 132 528 105 c 0,35,36
 499 76 499 76 468 76 c 0,37,38
 442 76 442 76 421 98 c 1,39,40
 407 115 407 115 381 149 c 0,41,42
 310 240 310 240 179 314 c 1,43,-1
 173 314 l 1,44,-1
 173 34 l 2,45,46
 173 4 173 4 143 -17 c 1,47,-1
 138 -20 l 2,48,49
 137 -21 137 -21 135 -23 c 0,50,51
 109 -41 109 -41 84 -41 c 0,52,53
 72 -41 72 -41 62 -36 c 1,54,55
 55 -41 55 -41 49 -41 c 0,56,57
 21 -41 21 -41 29 53 c 0,58,59
 31 77 31 77 40 112 c 1,0,-1
EndSplineSet
Validated: 33
EndChar

StartChar: L
Encoding: 76 76 42
Width: 555
Flags: W
LayerCount: 2
Fore
SplineSet
203 -17 m 0,0,1
 118 -17 118 -17 67.5 36.5 c 128,-1,2
 17 90 17 90 17 171 c 0,3,4
 17 191 17 191 20 212 c 0,5,6
 39 346 39 346 84 608 c 1,7,8
 133 853 133 853 205 862 c 1,9,10
 242 868 242 868 266 825 c 0,11,12
 283 794 283 794 283 775 c 0,13,14
 283 741 283 741 257 656 c 1,15,16
 237 597 237 597 218 538 c 0,17,18
 154 336 154 336 154 223 c 0,19,20
 154 108 154 108 208 108 c 0,21,22
 236 108 236 108 301 140 c 1,23,24
 347 165 347 165 392 190 c 0,25,26
 451 222 451 222 488 222 c 0,27,28
 502 222 502 222 514 218 c 0,29,30
 539 209 539 209 563 209 c 1,31,-1
 563 124 l 1,32,33
 490 69 490 69 380 26 c 128,-1,34
 270 -17 270 -17 203 -17 c 0,0,1
EndSplineSet
Validated: 33
EndChar

StartChar: M
Encoding: 77 77 43
Width: 876
Flags: W
LayerCount: 2
Fore
SplineSet
839 236 m 0,0,1
 830 148 830 148 805 90 c 0,2,3
 778 28 778 28 742 28 c 0,4,5
 716 28 716 28 693.5 54.5 c 128,-1,6
 671 81 671 81 671 107 c 0,7,8
 671 128 671 128 687 185 c 0,9,10
 708 258 708 258 710 267 c 1,11,12
 715 359 715 359 715 413 c 0,13,14
 715 477 715 477 711 535 c 1,15,16
 660 457 660 457 592 294 c 1,17,18
 520 117 520 117 479 46 c 1,19,20
 441 19 441 19 420 19 c 0,21,22
 394 19 394 19 372 51 c 1,23,24
 343 121 343 121 334 284 c 0,25,26
 322 487 322 487 314 534 c 1,27,28
 270 468 270 468 224 308 c 1,29,30
 154 71 154 71 151 63 c 0,31,32
 111 -49 111 -49 63 -49 c 0,33,34
 50 -49 50 -49 27 -36 c 1,35,36
 29 -36 29 -36 29 -36 c 1,37,-1
 8 -14 l 1,38,39
 -3 18 -3 18 -3 32 c 0,40,41
 -3 64 -3 64 62 241 c 0,42,43
 134 436 134 436 204 572 c 0,44,45
 292 745 292 745 341 745 c 0,46,47
 425 745 425 745 466 343 c 1,48,49
 532 465 532 465 599 587 c 1,50,51
 709 774 709 774 754 774 c 0,52,53
 792 774 792 774 816 729 c 1,54,55
 838 690 838 690 845 627 c 0,56,57
 847 604 847 604 847 477 c 0,58,59
 847 321 847 321 839 236 c 0,0,1
EndSplineSet
Validated: 1
EndChar

StartChar: N
Encoding: 78 78 44
Width: 685
Flags: W
LayerCount: 2
Fore
SplineSet
199 455 m 1,0,1
 196 375 196 375 184 234 c 1,2,3
 163 94 163 94 64 73 c 1,4,5
 26 105 26 105 26 133 c 0,6,7
 26 144 26 144 48 246 c 0,8,9
 70 344 70 344 70 399 c 0,10,11
 70 543 70 543 34 631 c 0,12,13
 26 652 26 652 26 668 c 0,14,15
 26 697 26 697 64 728 c 0,16,17
 95 754 95 754 117 760 c 0,18,19
 184 777 184 777 337 497 c 0,20,21
 408 367 408 367 418 350 c 0,22,23
 477 249 477 249 514 215 c 1,24,25
 521 252 521 252 521 283 c 1,26,27
 535 424 535 424 521 514 c 1,28,29
 521 524 521 524 489 636 c 0,30,31
 455 753 455 753 455 767 c 0,32,33
 455 810 455 810 468.5 823 c 128,-1,34
 482 836 482 836 528 836 c 0,35,36
 595 836 595 836 632 624 c 0,37,38
 656 489 656 489 656 408 c 0,39,40
 656 257 656 257 645 195 c 0,41,42
 619 46 619 46 532 46 c 0,43,44
 442 46 442 46 216 428 c 1,45,-1
 199 455 l 1,0,1
EndSplineSet
Validated: 33
EndChar

StartChar: O
Encoding: 79 79 45
Width: 663
Flags: W
LayerCount: 2
Fore
SplineSet
239 2 m 0,0,1
 22 2 22 2 22 312 c 0,2,3
 22 473 22 473 105 611 c 0,4,5
 207 782 207 782 379 782 c 0,6,7
 499 782 499 782 575.5 703 c 128,-1,8
 652 624 652 624 652 496 c 0,9,10
 652 419 652 419 590 301 c 0,11,12
 525 179 525 179 435 97 c 1,13,14
 333 2 333 2 239 2 c 0,0,1
426 636 m 0,15,16
 422 636 422 636 409 626.5 c 128,-1,17
 396 617 396 617 379 617 c 0,18,19
 351 617 351 617 336 638 c 1,20,-1
 334 640 l 1,21,22
 253 637 253 637 202 526 c 0,23,24
 157 427 157 427 157 298 c 0,25,26
 157 224 157 224 166 192 c 0,27,28
 184 129 184 129 239 130 c 0,29,30
 329 132 329 132 423 257 c 128,-1,31
 517 382 517 382 517 492 c 0,32,33
 517 532 517 532 498 575 c 0,34,35
 472 636 472 636 426 636 c 0,15,16
EndSplineSet
Validated: 33
EndChar

StartChar: P
Encoding: 80 80 46
Width: 601
Flags: W
LayerCount: 2
Fore
SplineSet
446 745 m 1,0,-1
 450 755 l 1,1,2
 500 732 500 732 523 714 c 0,3,4
 542 699 542 699 582 651 c 1,5,6
 587 617 587 617 587 591 c 0,7,8
 587 443 587 443 445 359 c 0,9,10
 356 307 356 307 185 272 c 1,11,12
 182 228 182 228 184 159 c 0,13,14
 188 64 188 64 188 46 c 0,15,16
 188 -86 188 -86 105 -84 c 1,17,-1
 84 -84 l 1,18,19
 57 -45 57 -45 57 35 c 0,20,21
 57 62 57 62 60.5 111 c 128,-1,22
 64 160 64 160 64 179 c 0,23,24
 64 273 64 273 22 312 c 1,25,26
 43 416 43 416 43 479 c 0,27,28
 43 543 43 543 22 636 c 1,29,30
 92 693 92 693 201 727 c 0,31,32
 299 757 299 757 388 757 c 0,33,34
 408 757 408 757 446 745 c 1,0,-1
364 628 m 0,35,36
 306 628 306 628 249 610 c 0,37,38
 167 584 167 584 167 535 c 0,39,40
 167 518 167 518 177 485 c 128,-1,41
 187 452 187 452 187 435 c 0,42,43
 187 425 187 425 184 416 c 1,44,-1
 289 416 l 2,45,46
 322 416 322 416 379 464 c 0,47,48
 441 515 441 515 441 554 c 0,49,50
 441 598 441 598 426 613 c 128,-1,51
 411 628 411 628 364 628 c 0,35,36
EndSplineSet
Validated: 33
EndChar

StartChar: Q
Encoding: 81 81 47
Width: 657
Flags: W
LayerCount: 2
Fore
SplineSet
447 106 m 1,0,1
 446 81 446 81 453 36 c 1,2,3
 462 -13 462 -13 462 -35 c 0,4,5
 462 -106 462 -106 409 -157 c 1,6,7
 359 -143 359 -143 340 -103 c 0,8,9
 329 -80 329 -80 324 -25 c 0,10,11
 320 24 320 24 308 42 c 1,12,13
 124 36 124 36 57 137 c 0,14,15
 13 202 13 202 13 344 c 0,16,17
 13 476 13 476 76 599 c 0,18,19
 166 775 166 775 342 775 c 0,20,21
 378 775 378 775 398 765.5 c 128,-1,22
 418 756 418 756 440 729 c 0,23,24
 447 720 447 720 460 720 c 0,25,26
 568 723 568 723 608 639 c 0,27,28
 633 586 633 586 633 477 c 0,29,30
 633 262 633 262 447 106 c 1,0,1
273 168 m 1,31,-1
 273 216 l 2,32,33
 273 224 273 224 255 260.5 c 128,-1,34
 237 297 237 297 237 315 c 0,35,36
 237 331 237 331 253 359 c 0,37,38
 274 394 274 394 300 394 c 0,39,40
 352 394 352 394 378 335 c 1,41,42
 394 284 394 284 410 233 c 1,43,44
 504 310 504 310 517 498 c 0,45,46
 519 531 519 531 480 582 c 2,47,-1
 474 590 l 1,48,49
 458 580 458 580 435 580 c 0,50,51
 411 580 411 580 372 608 c 1,52,53
 366 607 366 607 341.5 592 c 128,-1,54
 317 577 317 577 299 577 c 0,55,56
 269 577 269 577 255 598 c 1,57,-1
 253 600 l 1,58,59
 200 600 200 600 169 490 c 0,60,61
 148 413 148 413 148 348 c 0,62,63
 148 165 148 165 262 165 c 0,64,65
 269 165 269 165 271 166 c 2,66,-1
 273 168 l 1,31,-1
EndSplineSet
Validated: 33
EndChar

StartChar: R
Encoding: 82 82 48
Width: 661
Flags: W
LayerCount: 2
Fore
SplineSet
538 -73 m 1,0,1
 522 -66 522 -66 374 95 c 0,2,3
 262 217 262 217 210 268 c 1,4,5
 209 125 209 125 206 94 c 0,6,7
 192 -32 192 -32 139 -44 c 1,8,-1
 102 -44 l 1,9,10
 66 -36 66 -36 66 90 c 0,11,12
 66 187 66 187 81 235 c 1,13,-1
 81 338 l 1,14,15
 56 350 56 350 6 376 c 1,16,-1
 6 452 l 1,17,18
 45 489 45 489 87 487 c 1,19,-1
 81 721 l 1,20,21
 103 778 103 778 199 809 c 0,22,23
 288 838 288 838 416 838 c 0,24,25
 488 838 488 838 565 808 c 0,26,27
 684 762 684 762 685 669 c 0,28,29
 687 560 687 560 508 464 c 0,30,31
 383 397 383 397 256 369 c 1,32,-1
 268 403 l 1,33,34
 270 401 270 401 326 349 c 0,35,36
 620 77 620 77 620 -4 c 0,37,38
 620 -81 620 -81 563 -81 c 0,39,40
 543 -81 543 -81 526 -69 c 1,41,-1
 538 -73 l 1,0,1
406 709 m 0,42,43
 374 709 374 709 308 690 c 0,44,45
 252 674 252 674 217 659 c 1,46,-1
 222 484 l 1,47,48
 336 508 336 508 418 539 c 0,49,50
 552 591 552 591 549 648 c 1,51,52
 548 691 548 691 488 704 c 0,53,54
 465 709 465 709 406 709 c 0,42,43
EndSplineSet
Validated: 37
EndChar

StartChar: S
Encoding: 83 83 49
Width: 538
Flags: W
LayerCount: 2
Fore
SplineSet
436 531 m 1,0,1
 409 525 409 525 392 525 c 0,2,3
 345 525 345 525 345 575 c 0,4,5
 345 592 345 592 349 617 c 1,6,7
 381 625 381 625 398 643 c 1,8,9
 390 653 390 653 344 653 c 0,10,11
 159 653 159 653 157 579 c 0,12,13
 155 527 155 527 253 464 c 0,14,15
 345 406 345 406 437 348 c 1,16,17
 537 272 537 272 536 188 c 0,18,19
 536 110 536 110 420 64 c 0,20,21
 334 30 334 30 261 30 c 0,22,23
 -6 30 -6 30 -6 182 c 0,24,25
 -6 211 -6 211 14 227 c 128,-1,26
 34 243 34 243 63 243 c 0,27,28
 102 243 102 243 124 217 c 0,29,30
 129 210 129 210 140 198 c 0,31,32
 170 167 170 167 261 167 c 0,33,34
 326 167 326 167 327 167 c 0,35,36
 355 171 355 171 388 196 c 1,37,38
 362 247 362 247 260 312 c 0,39,40
 126 398 126 398 95 425 c 0,41,42
 13 499 13 499 13 585 c 0,43,44
 13 695 13 695 151 752 c 0,45,46
 259 797 259 797 373 790 c 0,47,48
 433 786 433 786 486 755 c 0,49,50
 555 714 555 714 555 651 c 0,51,52
 555 607 555 607 508 568 c 0,53,54
 470 537 470 537 436 531 c 1,0,1
EndSplineSet
Validated: 33
EndChar

StartChar: T
Encoding: 84 84 50
Width: 623
Flags: W
LayerCount: 2
Fore
SplineSet
274 694 m 1,0,1
 273 691 273 691 272 687 c 1,2,3
 232 687 232 687 149 650 c 128,-1,4
 66 613 66 613 21 613 c 0,5,6
 -10 613 -10 613 -27 643 c 0,7,8
 -40 665 -40 665 -40 690 c 0,9,10
 -40 731 -40 731 92 784 c 0,11,12
 197 826 197 826 352 863 c 0,13,14
 491 896 491 896 538 896 c 0,15,16
 645 896 645 896 645 830 c 0,17,18
 645 794 645 794 598 778 c 0,19,20
 578 771 578 771 507 762 c 1,21,22
 455 754 455 754 447 741 c 0,23,24
 330 535 330 535 330 4 c 0,25,26
 330 -77 330 -77 236 -77 c 0,27,28
 222 -77 222 -77 207 -75 c 1,29,30
 181 -3 181 -3 181 30 c 0,31,32
 181 144 181 144 227 363.5 c 128,-1,33
 273 583 273 583 274 694 c 1,0,1
EndSplineSet
Validated: 1
EndChar

StartChar: U
Encoding: 85 85 51
Width: 519
Flags: W
LayerCount: 2
Fore
SplineSet
193 60 m 0,0,1
 93 60 93 60 48 178 c 0,2,3
 14 265 14 265 22 351 c 1,4,5
 26 430 26 430 42 582 c 1,6,7
 66 730 66 730 140 723 c 0,8,9
 209 716 209 716 209 650 c 0,10,11
 209 636 209 636 181 504 c 0,12,13
 154 378 154 378 154 368 c 0,14,15
 155 318 155 318 155 268 c 1,16,17
 163 201 163 201 206 200 c 0,18,19
 290 198 290 198 335 351 c 1,20,21
 366 452 366 452 366 532 c 0,22,23
 366 541 366 541 354 622.5 c 128,-1,24
 342 704 342 704 342 716 c 0,25,26
 342 741 342 741 363.5 760.5 c 128,-1,27
 385 780 385 780 408 780 c 0,28,29
 452 780 452 780 481 674 c 0,30,31
 502 597 502 597 502 551 c 0,32,33
 502 479 502 479 471 373 c 0,34,35
 433 243 433 243 372 162 c 0,36,37
 294 60 294 60 193 60 c 0,0,1
EndSplineSet
Validated: 33
EndChar

StartChar: V
Encoding: 86 86 52
Width: 641
Flags: W
LayerCount: 2
Fore
SplineSet
512 289 m 0,0,1
 454 150 454 150 390 60 c 1,2,3
 322 -38 322 -38 275 -38 c 0,4,5
 265 -38 265 -38 256 -33 c 0,6,7
 183 6 183 6 98 268 c 0,8,9
 70 354 70 354 -5 643 c 0,10,11
 -8 654 -8 654 -9 657 c 1,12,13
 -6 656 -6 656 -2 649 c 1,14,15
 1 669 1 669 14 669 c 0,16,17
 22 669 22 669 31 662 c 1,18,19
 31 664 31 664 31 666 c 1,20,-1
 -11 664 l 1,21,22
 -12 687 -12 687 11 710 c 0,23,24
 29 729 29 729 49 737 c 0,25,26
 64 742 64 742 76 742 c 0,27,28
 109 742 109 742 131 698 c 0,29,30
 150 659 150 659 168 569 c 0,31,32
 221 306 221 306 302 130 c 1,33,34
 361 231 361 231 412 396 c 0,35,36
 454 534 454 534 496 672 c 1,37,38
 525 757 525 757 559 775 c 1,39,-1
 624 775 l 1,40,41
 649 751 649 751 649 707 c 0,42,43
 649 676 649 676 608 550 c 0,44,45
 565 417 565 417 512 289 c 0,0,1
EndSplineSet
Validated: 37
EndChar

StartChar: W
Encoding: 87 87 53
Width: 810
Flags: W
LayerCount: 2
Fore
SplineSet
401 327 m 1,0,1
 383 289 383 289 360 228 c 1,2,3
 328 138 328 138 323 127 c 0,4,5
 255 -44 255 -44 166 -35 c 1,6,7
 69 -5 69 -5 37 298 c 0,8,9
 22 439 22 439 22 698 c 0,10,11
 22 742 22 742 40 764.5 c 128,-1,12
 58 787 58 787 84 787 c 0,13,14
 116 787 116 787 142 757 c 128,-1,15
 168 727 168 727 168 680 c 2,16,-1
 168 343 l 2,17,18
 168 337 168 337 173 298.5 c 128,-1,19
 178 260 178 260 178 244 c 0,20,21
 178 215 178 215 196 157 c 1,22,23
 231 216 231 216 284 390 c 0,24,25
 331 545 331 545 387 609 c 1,26,27
 454 614 454 614 503 438 c 0,28,29
 532 336 532 336 539 314 c 0,30,31
 561 244 561 244 586 194 c 1,32,33
 609 252 609 252 614 369 c 0,34,35
 615 392 615 392 615 549 c 1,36,37
 616 698 616 698 630 768 c 0,38,39
 652 881 652 881 717 918 c 1,40,41
 794 879 794 879 794 848 c 0,42,43
 794 840 794 840 790 833 c 1,44,45
 782 811 782 811 769 669 c 0,46,47
 761 574 761 574 742 379 c 1,48,49
 723 214 723 214 687 109 c 1,50,51
 646 -7 646 -7 597 -7 c 0,52,53
 514 -7 514 -7 405 315 c 1,54,-1
 401 327 l 1,0,1
EndSplineSet
Validated: 33
EndChar

StartChar: X
Encoding: 88 88 54
Width: 658
Flags: W
LayerCount: 2
Fore
SplineSet
320 538 m 1,0,1
 378 609 378 609 436 680 c 1,2,3
 517 768 517 768 579 768 c 0,4,5
 595 768 595 768 618 756 c 1,6,7
 616 756 616 756 615 757 c 2,8,-1
 636 735 l 1,9,-1
 636 665 l 1,10,11
 626 653 626 653 579 614 c 0,12,13
 367 439 367 439 367 398 c 0,14,15
 367 343 367 343 514 46 c 0,16,17
 544 -14 544 -14 544 -22 c 0,18,19
 545 -52 545 -52 538 -66 c 0,20,21
 534 -75 534 -75 523 -83.5 c 128,-1,22
 512 -92 512 -92 507 -102 c 1,23,24
 495 -106 495 -106 484 -106 c 0,25,26
 415 -106 415 -106 358 45 c 1,27,28
 337 104 337 104 317 164 c 1,29,30
 292 235 292 235 268 279 c 1,31,32
 247 262 247 262 212 193 c 0,33,34
 167 105 167 105 151 82 c 0,35,36
 115 27 115 27 81 27 c 0,37,38
 78 27 78 27 40 38 c 1,39,40
 20 59 20 59 18 129 c 0,41,42
 17 143 17 143 115 276.5 c 128,-1,43
 213 410 213 410 213 422 c 0,44,45
 213 451 213 451 174 556 c 0,46,47
 132 667 132 667 113 667 c 0,48,49
 98 667 98 667 77 673 c 1,50,51
 68 728 68 728 68 762 c 0,52,53
 68 808 68 808 85 826 c 128,-1,54
 102 844 102 844 141 844 c 0,55,56
 208 844 208 844 309 570 c 1,57,-1
 320 538 l 1,0,1
EndSplineSet
Validated: 33
EndChar

StartChar: Y
Encoding: 89 89 55
Width: 623
Flags: W
LayerCount: 2
Fore
SplineSet
186 -94 m 1,0,1
 137 -83 137 -83 129 -71 c 128,-1,2
 121 -59 121 -59 121 -5 c 0,3,4
 121 23 121 23 151 76 c 0,5,6
 174 116 174 116 197 156 c 0,7,8
 198 159 198 159 202 161 c 128,-1,9
 206 163 206 163 205 164 c 0,10,11
 159 234 159 234 97 401 c 0,12,13
 21 604 21 604 21 720 c 0,14,15
 21 737 21 737 23 752 c 1,16,17
 64 797 64 797 100 797 c 1,18,19
 139 770 139 770 167 686 c 0,20,21
 173 667 173 667 200 556 c 0,22,23
 246 362 246 362 296 278 c 1,24,25
 331 338 331 338 403 522 c 0,26,27
 480 718 480 718 527 758 c 1,28,-1
 594 758 l 1,29,30
 618 734 618 734 618 695 c 0,31,32
 618 599 618 599 436 268 c 1,33,34
 255 -59 255 -59 186 -94 c 1,0,1
EndSplineSet
Validated: 1
EndChar

StartChar: Z
Encoding: 90 90 56
Width: 656
Flags: W
LayerCount: 2
Fore
SplineSet
450 345 m 0,0,1
 405 302 405 302 336 243 c 0,2,3
 278 194 278 194 219 144 c 0,4,5
 192 121 192 121 174 103 c 1,6,7
 182 96 182 96 204 96 c 0,8,9
 213 96 213 96 372 129 c 0,10,11
 536 162 536 162 550 162 c 0,12,13
 566 162 566 162 589 151 c 1,14,15
 587 151 587 151 586 151 c 2,16,-1
 603 142 l 1,17,18
 622 113 622 113 622 85 c 0,19,20
 622 52 622 52 594 37 c 1,21,22
 516 9 516 9 400 -15 c 0,23,24
 268 -42 268 -42 185 -42 c 0,25,26
 118 -42 118 -42 69 -18 c 0,27,28
 6 13 6 13 5 74 c 0,29,30
 5 118 5 118 86 199 c 1,31,32
 205 307 205 307 325 416 c 1,33,34
 487 570 487 570 500 651 c 1,35,36
 498 645 498 645 498 642 c 1,37,38
 491 642 491 642 378 593 c 0,39,40
 307 562 307 562 235 531 c 1,41,42
 181 509 181 509 171 509 c 0,43,44
 144 509 144 509 118 532.5 c 128,-1,45
 92 556 92 556 89 580 c 1,46,47
 84 644 84 644 239 703 c 0,48,49
 294 723 294 723 459 767 c 0,50,51
 534 786 534 786 547 794.5 c 128,-1,52
 560 803 560 803 572 803 c 0,53,54
 602 803 602 803 626 751 c 0,55,56
 645 710 645 710 645 687 c 0,57,58
 645 535 645 535 450 345 c 0,0,1
EndSplineSet
Validated: 33
EndChar

StartChar: a
Encoding: 97 97 57
Width: 565
Flags: W
LayerCount: 2
Fore
SplineSet
554 -63 m 0,0,1
 549 -72 549 -72 534 -102 c 1,2,-1
 450 -102 l 1,3,4
 410 -45 410 -45 399 49 c 0,5,6
 387 152 387 152 368 189 c 1,7,8
 244 149 244 149 140 96 c 0,9,10
 130 91 130 91 121 50 c 0,11,12
 116 24 116 24 112 -1 c 1,13,14
 96 -27 96 -27 54 -27 c 0,15,16
 15 -27 15 -27 -8 2 c 0,17,18
 -27 26 -27 26 -27 52 c 0,19,20
 -27 97 -27 97 39 268 c 1,21,22
 72 350 72 350 110 447 c 1,23,24
 143 550 143 550 209 730 c 1,25,26
 260 849 260 849 320 849 c 0,27,28
 335 849 335 849 350 841 c 1,29,30
 387 774 387 774 478 382 c 0,31,32
 563 14 563 14 563 -24 c 0,33,34
 563 -43 563 -43 554 -63 c 0,0,1
294 586 m 1,35,36
 174 302 174 302 174 295 c 2,37,-1
 174 275 l 1,38,39
 258 305 258 305 342 320 c 1,40,41
 327 475 327 475 294 586 c 1,35,36
EndSplineSet
Validated: 1
EndChar

StartChar: b
Encoding: 98 98 58
Width: 664
Flags: W
LayerCount: 2
Fore
SplineSet
141 -33 m 0,0,1
 94 -33 94 -33 63 -3 c 0,2,3
 36 23 36 23 36 55 c 0,4,5
 36 72 36 72 54.5 126.5 c 128,-1,6
 73 181 73 181 73 202 c 0,7,8
 73 304 73 304 47 339 c 0,9,10
 25 369 25 369 25 396 c 0,11,12
 25 422 25 422 45 443.5 c 128,-1,13
 65 465 65 465 69.5 481.5 c 128,-1,14
 74 498 74 498 73 530 c 0,15,16
 71 571 71 571 68 614 c 1,17,18
 45 618 45 618 -1 631 c 1,19,-1
 -1 706 l 1,20,21
 43 766 43 766 131 808 c 1,22,23
 229 857 229 857 333 857 c 0,24,25
 508 857 508 857 508 735 c 0,26,27
 508 686 508 686 464 625 c 1,28,29
 424 578 424 578 384 531 c 1,30,31
 509 505 509 505 559 481 c 0,32,33
 658 432 658 432 658 340 c 0,34,35
 658 247 658 247 545 153 c 0,36,37
 455 77 455 77 318 18 c 1,38,39
 197 -33 197 -33 141 -33 c 0,0,1
309 719 m 0,40,41
 279 719 279 719 253 705.5 c 128,-1,42
 227 692 227 692 202 678 c 1,43,44
 210 613 210 613 211 541 c 1,45,46
 283 588 283 588 314 623 c 0,47,48
 352 665 352 665 353 713 c 1,49,50
 336 719 336 719 309 719 c 0,40,41
384 395 m 0,51,52
 317 395 317 395 267 382 c 0,53,54
 190 362 190 362 190 317 c 0,55,56
 190 306 190 306 202 229 c 0,57,58
 208 195 208 195 217 130 c 1,59,60
 306 155 306 155 385 202 c 0,61,62
 489 265 489 265 519 340 c 1,63,64
 491 361 491 361 448.5 378 c 128,-1,65
 406 395 406 395 384 395 c 0,51,52
EndSplineSet
Validated: 33
EndChar

StartChar: c
Encoding: 99 99 59
Width: 553
Flags: W
LayerCount: 2
Fore
SplineSet
297 7 m 0,0,1
 145 5 145 5 67 192 c 0,2,3
 13 321 13 321 13 455 c 0,4,5
 13 565 13 565 73 676 c 0,6,7
 150 817 150 817 274 817 c 0,8,9
 363 817 363 817 414 729 c 1,10,11
 451 663 451 663 451 597 c 0,12,13
 451 570 451 570 425 513 c 0,14,15
 394 446 394 446 363 443 c 0,16,17
 317 439 317 439 290 457.5 c 128,-1,18
 263 476 263 476 263 514 c 0,19,20
 263 536 263 536 273 562 c 0,21,22
 276 570 276 570 292 587 c 128,-1,23
 308 604 308 604 308 606 c 0,24,25
 308 628 308 628 289.5 649 c 128,-1,26
 271 670 271 670 255 670 c 0,27,28
 201 670 201 670 166 573 c 0,29,30
 137 495 137 495 138 427 c 0,31,32
 139 331 139 331 186 241 c 0,33,34
 236 145 236 145 301 145 c 0,35,36
 354 145 354 145 403.5 179.5 c 128,-1,37
 453 214 453 214 478 271 c 1,38,39
 500 283 500 283 517 283 c 0,40,41
 552 283 552 283 552 238 c 0,42,43
 552 217 552 217 543 184 c 0,44,45
 521 107 521 107 433 54 c 0,46,47
 358 8 358 8 297 7 c 0,0,1
EndSplineSet
Validated: 33
EndChar

StartChar: d
Encoding: 100 100 60
Width: 611
Flags: W
LayerCount: 2
Fore
SplineSet
99 -79 m 0,0,1
 85 -78 85 -78 69.5 -73 c 128,-1,2
 54 -68 54 -68 35 -68 c 1,3,-1
 35 23 l 1,4,5
 45 35 45 35 61.5 46 c 128,-1,6
 78 57 78 57 94.5 68.5 c 128,-1,7
 111 80 111 80 111 85 c 0,8,9
 111 88 111 88 109 91 c 1,10,-1
 34 652 l 1,11,12
 20 705 20 705 20 736 c 0,13,14
 20 811 20 811 116 818 c 0,15,16
 135 820 135 820 212 821 c 0,17,18
 324 822 324 822 447 724 c 0,19,20
 582 616 582 616 595 477 c 0,21,22
 604 380 604 380 513 239 c 0,23,24
 429 108 429 108 309 13 c 0,25,26
 183 -87 183 -87 99 -79 c 0,0,1
194 673 m 0,27,28
 175 673 175 673 170 657 c 0,29,30
 168 651 168 651 168 623 c 0,31,32
 168 604 168 604 189 433 c 0,33,34
 212 247 212 247 231 133 c 1,35,36
 309 166 309 166 383 261 c 0,37,38
 463 362 463 362 460 446 c 1,39,40
 458 553 458 553 381 615 c 0,41,42
 309 673 309 673 194 673 c 0,27,28
EndSplineSet
Validated: 33
EndChar

StartChar: e
Encoding: 101 101 61
Width: 620
Flags: W
LayerCount: 2
Fore
SplineSet
167 774 m 1,0,1
 182 775 182 775 294 815 c 0,2,3
 415 859 415 859 477 859 c 0,4,5
 489 859 489 859 515 863 c 128,-1,6
 541 867 541 867 556 866 c 0,7,8
 617 863 617 863 655 796 c 1,9,10
 632 745 632 745 536 730 c 0,11,12
 450 717 450 717 364 705 c 1,13,14
 266 684 266 684 220 637 c 0,15,16
 160 577 160 577 166 465 c 1,17,18
 169 461 169 461 178 461 c 1,19,20
 177 461 177 461 317 507 c 0,21,22
 463 556 463 556 522 555 c 1,23,24
 554 535 554 535 550 498 c 1,25,26
 541 432 541 432 433 398 c 1,27,28
 337 374 337 374 241 351 c 1,29,30
 142 322 142 322 148 266 c 0,31,32
 153 220 153 220 162 199 c 0,33,34
 177 167 177 167 211 167 c 0,35,36
 256 167 256 167 325 184 c 0,37,38
 411 206 411 206 427 235 c 1,39,-1
 520 217 l 1,40,41
 523 209 523 209 523 200 c 0,42,43
 523 136 523 136 394 78 c 0,44,45
 284 29 284 29 216 29 c 0,46,47
 119 29 119 29 62 103 c 1,48,49
 12 166 12 166 12 250 c 0,50,51
 12 273 12 273 17 293 c 1,52,53
 23 325 23 325 29 411 c 0,54,55
 41 572 41 572 50 625 c 0,56,57
 76 779 76 779 135 783 c 0,58,59
 156 785 156 785 167 774 c 1,0,1
EndSplineSet
Validated: 33
EndChar

StartChar: f
Encoding: 102 102 62
Width: 558
Flags: W
LayerCount: 2
Fore
SplineSet
534 800 m 0,0,1
 513 780 513 780 486 780 c 0,2,3
 478 780 478 780 465.5 779 c 128,-1,4
 453 778 453 778 447 778 c 0,5,6
 425 778 425 778 407 795 c 1,7,8
 397 803 397 803 293 763 c 0,9,10
 183 720 183 720 161 689 c 1,11,12
 165 656 165 656 171 592 c 0,13,14
 174 563 174 563 175 560 c 0,15,16
 179 546 179 546 190 546 c 0,17,18
 239 546 239 546 291.5 572.5 c 128,-1,19
 344 599 344 599 379 599 c 0,20,21
 426 599 426 599 482 553 c 1,22,23
 482 491 482 491 406 461 c 0,24,25
 398 457 398 457 264 424 c 0,26,27
 188 405 188 405 188 372 c 0,28,29
 188 363 188 363 206.5 222 c 128,-1,30
 225 81 225 81 225 66 c 0,31,32
 225 52 225 52 220 24.5 c 128,-1,33
 215 -3 215 -3 215 -17 c 1,34,35
 199 -34 199 -34 193 -37 c 0,36,37
 184 -42 184 -42 163 -42 c 0,38,39
 117 -42 117 -42 88 89 c 0,40,41
 67 184 67 184 55 353 c 1,42,43
 49 458 49 458 43 563 c 1,44,45
 33 701 33 701 18 753 c 0,46,47
 16 760 16 760 16 773 c 0,48,49
 16 812 16 812 31 841 c 1,50,51
 50 881 50 881 89 881 c 0,52,53
 106 881 106 881 126.5 861.5 c 128,-1,54
 147 842 147 842 149 842 c 0,55,56
 157 842 157 842 266 884 c 0,57,58
 383 929 383 929 398 929 c 0,59,60
 401 929 401 929 421.5 932.5 c 128,-1,61
 442 936 442 936 457 936 c 0,62,63
 516 935 516 935 543 890 c 1,64,65
 558 874 558 874 558 853 c 0,66,67
 558 833 558 833 543 808 c 1,68,69
 539 805 539 805 534 800 c 0,0,1
EndSplineSet
Validated: 33
EndChar

StartChar: g
Encoding: 103 103 63
Width: 740
Flags: W
LayerCount: 2
Fore
SplineSet
571 506 m 0,0,1
 552 503 552 503 538 503 c 0,2,3
 475 503 475 503 475 567 c 0,4,5
 475 579 475 579 477 595 c 0,6,7
 481 622 481 622 519.5 625.5 c 128,-1,8
 558 629 558 629 567 653 c 1,9,10
 551 658 551 658 535 658 c 0,11,12
 417 657 417 657 324 571 c 0,13,14
 247 500 247 500 201 385 c 0,15,16
 161 285 161 285 161 203 c 0,17,18
 161 120 161 120 202 78 c 0,19,20
 238 42 238 42 296 42 c 0,21,22
 361 42 361 42 418.5 79.5 c 128,-1,23
 476 117 476 117 476 161 c 0,24,25
 476 201 476 201 384 201 c 0,26,27
 380 201 380 201 342 188 c 0,28,29
 298 173 298 173 253 173 c 1,30,31
 223 227 223 227 223 268 c 1,32,33
 270 319 270 319 300 332 c 0,34,35
 335 348 335 348 413 348 c 0,36,37
 478 348 478 348 535 310 c 0,38,39
 603 265 603 265 603 194 c 0,40,41
 603 59 603 59 485 -16 c 0,42,43
 392 -75 392 -75 281 -75 c 0,44,45
 152 -75 152 -75 77 16 c 0,46,47
 10 97 10 97 15 200 c 0,48,49
 23 340 23 340 96 479 c 0,50,51
 170 622 170 622 284 709 c 0,52,53
 410 805 410 805 549 805 c 0,54,55
 603 805 603 805 655 778 c 0,56,57
 725 741 725 741 725 674 c 0,58,59
 725 625 725 625 667 566 c 1,60,61
 612 512 612 512 571 506 c 0,0,1
EndSplineSet
Validated: 33
EndChar

StartChar: h
Encoding: 104 104 64
Width: 608
Flags: W
LayerCount: 2
Fore
SplineSet
508 11 m 0,0,1
 485 -2 485 -2 469 -2 c 0,2,3
 448 -2 448 -2 436 21 c 0,4,5
 431 31 431 31 421 70 c 1,6,7
 429 121 429 121 452 229 c 1,8,9
 446 292 446 292 429 432.5 c 128,-1,10
 412 573 412 573 393 631 c 1,11,12
 394 636 394 636 394 641 c 0,13,14
 394 653 394 653 384 681 c 128,-1,15
 374 709 374 709 374 724 c 0,16,17
 374 754 374 754 405 774 c 1,18,19
 425 791 425 791 445 791 c 0,20,21
 480 791 480 791 505 745 c 0,22,23
 542 677 542 677 564 492 c 0,24,25
 573 411 573 411 585 228 c 0,26,27
 586 212 586 212 586 196 c 0,28,29
 586 53 586 53 508 11 c 0,0,1
193 232 m 1,30,31
 195 200 195 200 217 80 c 0,32,33
 222 53 222 53 222 44 c 0,34,35
 222 28 222 28 212.5 8.5 c 128,-1,36
 203 -11 203 -11 194 -29 c 1,37,38
 174 -29 174 -29 146 -24 c 128,-1,39
 118 -19 118 -19 102 -19 c 1,40,41
 71 139 71 139 39 336 c 0,42,43
 -6 613 -6 613 -6 689 c 0,44,45
 -6 719 -6 719 17 733 c 0,46,47
 26 739 26 739 64 752 c 0,48,49
 71 754 71 754 77 754 c 0,50,51
 126 754 126 754 146 625 c 1,52,53
 154 540 154 540 161 454 c 1,54,55
 167 401 167 401 175 375 c 1,56,57
 293 394 293 394 369 394 c 0,58,59
 388 394 388 394 396 392 c 0,60,61
 418 387 418 387 441 382 c 1,62,63
 473 373 473 373 479 361 c 0,64,65
 484 350 484 350 477 330 c 0,66,67
 473 318 473 318 471 290 c 1,68,69
 324 256 324 256 193 232 c 1,30,31
EndSplineSet
Validated: 5
EndChar

StartChar: i
Encoding: 105 105 65
Width: 306
Flags: W
LayerCount: 2
Fore
SplineSet
196 33 m 1,0,1
 167 11 167 11 147 11 c 0,2,3
 118 11 118 11 98 52 c 1,4,-1
 90 404 l 2,5,6
 89 465 89 465 76 587 c 0,7,8
 63 706 63 706 63 711 c 256,9,10
 63 716 63 716 70 755 c 0,11,12
 71 758 71 758 71 791 c 1,13,14
 108 791 108 791 114 796 c 0,15,16
 125 805 125 805 136 805 c 0,17,18
 175 805 175 805 191 717 c 0,19,20
 210 617 210 617 213 463 c 0,21,22
 213 460 213 460 213 208 c 0,23,24
 213 149 213 149 196 33 c 1,0,1
EndSplineSet
Validated: 1
EndChar

StartChar: j
Encoding: 106 106 66
Width: 547
Flags: W
LayerCount: 2
Fore
SplineSet
445 642 m 1,0,1
 473 580 473 580 493 446 c 1,2,3
 509 332 509 332 509 259 c 0,4,5
 509 152 509 152 455 84 c 128,-1,6
 401 16 401 16 308 16 c 0,7,8
 195 16 195 16 81 101 c 0,9,10
 -45 195 -45 195 -24 305 c 0,11,12
 -15 351 -15 351 38 361 c 1,13,14
 75 359 75 359 106 310 c 0,15,16
 157 229 157 229 171 214 c 0,17,18
 224 158 224 158 311 143 c 0,19,20
 351 136 351 136 371 190 c 1,21,22
 384 228 384 228 384 278 c 0,23,24
 384 399 384 399 294 634 c 1,25,26
 253 620 253 620 229 620 c 0,27,28
 192 620 192 620 184 625 c 0,29,30
 161 639 161 639 152 702 c 1,31,32
 167 746 167 746 261 768 c 1,33,34
 333 786 333 786 419 786 c 0,35,36
 475 786 475 786 536 735 c 1,37,38
 536 726 536 726 541 709.5 c 128,-1,39
 546 693 546 693 546 683 c 1,40,41
 536 671 536 671 525.5 660 c 128,-1,42
 515 649 515 649 493 649 c 0,43,44
 488 649 488 649 478 645 c 128,-1,45
 468 641 468 641 459 641 c 0,46,47
 452 641 452 641 445 642 c 1,0,1
EndSplineSet
Validated: 33
EndChar

StartChar: k
Encoding: 107 107 67
Width: 590
Flags: W
LayerCount: 2
Fore
SplineSet
217 415 m 1,0,1
 392 310 392 310 427 284 c 0,2,3
 567 183 567 183 559 112 c 0,4,5
 557 92 557 92 540.5 69 c 128,-1,6
 524 46 524 46 503 36 c 1,7,-1
 445 36 l 1,8,9
 363 173 363 173 186 272 c 1,10,11
 182 229 182 229 171 147 c 1,12,13
 188 25 188 25 188 -44 c 0,14,15
 188 -86 188 -86 181 -104 c 128,-1,16
 174 -122 174 -122 158 -122 c 0,17,18
 149 -122 149 -122 140 -116 c 1,19,-1
 69 -116 l 1,20,21
 34 -75 34 -75 34 23 c 0,22,23
 34 71 34 71 45 170.5 c 128,-1,24
 56 270 56 270 56 307 c 0,25,26
 56 366 56 366 37 391.5 c 128,-1,27
 18 417 18 417 18 435 c 0,28,29
 18 452 18 452 34.5 473.5 c 128,-1,30
 51 495 51 495 52 497 c 0,31,32
 58 528 58 528 58 564 c 0,33,34
 58 604 58 604 42 717 c 0,35,36
 36 755 36 755 36 774 c 0,37,38
 36 828 36 828 106 852 c 0,39,40
 115 855 115 855 123 855 c 0,41,42
 172 855 172 855 185 745 c 0,43,44
 189 714 189 714 189 596 c 0,45,46
 189 566 189 566 191 548 c 1,47,48
 222 565 222 565 459 703 c 0,49,50
 503 729 503 729 511 729 c 0,51,52
 543 729 543 729 579 692 c 1,53,54
 569 605 569 605 470 540 c 0,55,56
 437 518 437 518 296 453 c 0,57,58
 246 431 246 431 217 415 c 1,0,1
EndSplineSet
Validated: 33
EndChar

StartChar: l
Encoding: 108 108 68
Width: 445
Flags: W
LayerCount: 2
Fore
SplineSet
227 -55 m 0,0,1
 129 -55 129 -55 68 -14 c 0,2,3
 -4 34 -4 34 -4 126 c 0,4,5
 -4 139 -4 139 -2 153 c 0,6,7
 11 297 11 297 41 543 c 1,8,9
 71 730 71 730 142 725 c 0,10,11
 170 723 170 723 190.5 696 c 128,-1,12
 211 669 211 669 211 642 c 0,13,14
 211 628 211 628 165 408 c 0,15,16
 120 193 120 193 120 183 c 0,17,18
 120 89 120 89 198 89 c 0,19,20
 217 89 217 89 250 95 c 0,21,22
 266 97 266 97 361 121 c 1,23,24
 398 121 398 121 412 109.5 c 128,-1,25
 426 98 426 98 442 51 c 1,26,27
 406 -11 406 -11 347 -36 c 0,28,29
 301 -55 301 -55 227 -55 c 0,0,1
EndSplineSet
Validated: 33
EndChar

StartChar: m
Encoding: 109 109 69
Width: 890
Flags: W
LayerCount: 2
Fore
SplineSet
797 60 m 1,0,1
 771 51 771 51 751 51 c 0,2,3
 686 51 686 51 686 137 c 0,4,5
 686 142 686 142 698 191 c 0,6,7
 713 250 713 250 721 315 c 0,8,9
 733 412 733 412 733 534 c 0,10,11
 733 559 733 559 725 601 c 1,12,13
 673 556 673 556 630 464 c 0,14,15
 608 416 608 416 565 291 c 0,16,17
 526 179 526 179 499 128 c 0,18,19
 454 46 454 46 397 45 c 1,20,21
 350 40 350 40 340 125 c 0,22,23
 335 171 335 171 337 288 c 1,24,25
 341 438 341 438 341 442 c 0,26,27
 341 562 341 562 323 633 c 1,28,29
 282 620 282 620 250 530 c 0,30,31
 233 482 233 482 198 342 c 1,32,33
 181 264 181 264 145 128 c 1,34,35
 111 16 111 16 64 17 c 1,36,37
 21 23 21 23 2 70 c 0,38,39
 -9 97 -9 97 -9 123 c 0,40,41
 -9 215 -9 215 40 369 c 0,42,43
 94 539 94 539 169 650 c 0,44,45
 259 784 259 784 351 784 c 0,46,47
 377 784 377 784 403 773 c 1,48,49
 457 714 457 714 469 598 c 0,50,51
 472 572 472 572 474 404 c 1,52,53
 534 555 534 555 602 657 c 1,54,55
 687 787 687 787 754 787 c 0,56,57
 871 787 871 787 871 510 c 0,58,59
 871 339 871 339 864 281 c 0,60,61
 850 168 850 168 797 60 c 1,0,1
EndSplineSet
Validated: 33
EndChar

StartChar: n
Encoding: 110 110 70
Width: 662
Flags: W
LayerCount: 2
Fore
SplineSet
53 -57 m 1,0,1
 28 -42 28 -42 28 57 c 0,2,3
 28 120 28 120 48 246 c 128,-1,4
 68 372 68 372 68 435 c 0,5,6
 68 495 68 495 27 622 c 0,7,8
 18 650 18 650 18 662 c 0,9,10
 18 721 18 721 89 726 c 0,11,12
 142 730 142 730 225 624 c 0,13,14
 271 564 271 564 369 406 c 0,15,16
 456 265 456 265 490 230 c 1,17,18
 493 240 493 240 493 348 c 0,19,20
 493 525 493 525 466 626 c 1,21,22
 456 659 456 659 446.5 693.5 c 128,-1,23
 437 728 437 728 437 762 c 0,24,25
 437 788 437 788 455 812 c 0,26,27
 476 841 476 841 509 841 c 0,28,29
 563 841 563 841 601 588 c 0,30,31
 628 406 628 406 628 333 c 0,32,33
 628 211 628 211 617 157 c 0,34,35
 593 36 593 36 516 45 c 0,36,37
 444 54 444 54 337 199 c 0,38,39
 296 254 296 254 197 416 c 1,40,41
 197 255 197 255 180 127 c 0,42,43
 159 -25 159 -25 121 -57 c 1,44,45
 91 -63 91 -63 79 -63 c 0,46,47
 61 -63 61 -63 48 -55 c 1,48,-1
 53 -57 l 1,0,1
EndSplineSet
Validated: 33
EndChar

StartChar: o
Encoding: 111 111 71
Width: 675
Flags: W
LayerCount: 2
Fore
SplineSet
255 17 m 0,0,1
 131 17 131 17 63 124 c 0,2,3
 10 207 10 207 10 308 c 0,4,5
 10 389 10 389 45 497 c 0,6,7
 88 631 88 631 162 713 c 0,8,9
 256 817 256 817 381 817 c 0,10,11
 528 817 528 817 598 703 c 0,12,13
 650 618 650 618 650 493 c 0,14,15
 650 399 650 399 604 292 c 0,16,17
 553 174 553 174 470 102 c 0,18,19
 373 17 373 17 255 17 c 0,0,1
514 550 m 0,20,21
 509 613 509 613 479 641.5 c 128,-1,22
 449 670 449 670 381 670 c 0,23,24
 309 670 309 670 249 595 c 0,25,26
 199 533 199 533 168 436 c 0,27,28
 141 350 141 350 145 295 c 0,29,30
 149 244 149 244 173 204 c 0,31,32
 207 145 207 145 274 145 c 0,33,34
 383 145 383 145 456 275 c 0,35,36
 515 381 515 381 515 483 c 0,37,38
 515 537 515 537 514 550 c 0,20,21
EndSplineSet
Validated: 33
EndChar

StartChar: p
Encoding: 112 112 72
Width: 580
Flags: W
LayerCount: 2
Fore
SplineSet
386 411 m 0,0,1
 277 366 277 366 235 361 c 1,2,3
 227 362 227 362 218 362 c 0,4,5
 204 361 204 361 205 359 c 1,6,7
 203 343 203 343 203 326 c 0,8,9
 203 289 203 289 211.5 215 c 128,-1,10
 220 141 220 141 220 103 c 0,11,12
 220 -3 220 -3 171 -35 c 0,13,14
 148 -50 148 -50 134 -50 c 0,15,16
 111 -50 111 -50 87 -1 c 1,17,18
 87 155 87 155 66 320 c 1,19,20
 60 327 60 327 47 330 c 128,-1,21
 34 333 34 333 29 340 c 0,22,23
 21 352 21 352 21 383 c 0,24,25
 21 423 21 423 69 458 c 1,26,27
 68 519 68 519 22 698 c 0,28,29
 12 738 12 738 12 745 c 0,30,31
 12 796 12 796 46 821 c 0,32,33
 84 849 84 849 186 862 c 1,34,-1
 370 862 l 2,35,36
 451 862 451 862 520.5 791 c 128,-1,37
 590 720 590 720 592 631 c 0,38,39
 594 496 594 496 386 411 c 0,0,1
283 733 m 0,40,41
 273 733 273 733 243 730 c 1,42,43
 208 725 208 725 197 724 c 1,44,-1
 195 720 l 2,45,46
 184 697 184 697 184 693 c 0,47,48
 184 686 184 686 192 606 c 0,49,50
 201 521 201 521 203 476 c 1,51,52
 280 493 280 493 356 530 c 0,53,54
 457 579 457 579 457 626 c 0,55,56
 457 682 457 682 392 712 c 1,57,58
 343 733 343 733 283 733 c 0,40,41
EndSplineSet
Validated: 33
EndChar

StartChar: q
Encoding: 113 113 73
Width: 651
Flags: W
LayerCount: 2
Fore
SplineSet
463 707 m 1,0,1
 485 714 485 714 504 714 c 0,2,3
 576 714 576 714 612 630 c 0,4,5
 641 563 641 563 641 465 c 0,6,7
 641 250 641 250 455 94 c 1,8,9
 454 68 454 68 461 23 c 1,10,11
 470 -26 470 -26 470 -48 c 0,12,13
 470 -119 470 -119 421 -166 c 1,14,15
 411 -167 411 -167 401 -167 c 0,16,17
 358 -167 358 -167 342 -127 c 0,18,19
 333 -104 333 -104 329 -43 c 0,20,21
 325 13 325 13 315 30 c 1,22,23
 131 24 131 24 65 124 c 0,24,25
 21 190 21 190 21 331 c 0,26,27
 21 458 21 458 85 577 c 0,28,29
 174 744 174 744 347 763 c 0,30,31
 365 765 365 765 379 765 c 0,32,33
 447 765 447 765 463 707 c 1,0,1
281 156 m 1,34,-1
 281 204 l 2,35,36
 281 212 281 212 263 248.5 c 128,-1,37
 245 285 245 285 245 303 c 0,38,39
 245 319 245 319 261 347 c 1,40,41
 282 381 282 381 308 381 c 0,42,43
 360 381 360 381 386 323 c 1,44,45
 402 272 402 272 418 221 c 1,46,47
 462 258 462 258 492 327 c 0,48,49
 524 403 524 403 524 484 c 0,50,51
 524 519 524 519 487 570 c 1,52,-1
 482 578 l 1,53,54
 465 568 465 568 443 568 c 0,55,56
 426 568 426 568 406.5 582 c 128,-1,57
 387 596 387 596 382 596 c 0,58,59
 370 596 370 596 339.5 582 c 128,-1,60
 309 568 309 568 294 568 c 0,61,62
 270 568 270 568 260 587 c 1,63,64
 207 585 207 585 177 476 c 0,65,66
 156 400 156 400 156 336 c 0,67,68
 156 153 156 153 270 153 c 0,69,70
 277 153 277 153 279 154 c 2,71,-1
 281 156 l 1,34,-1
EndSplineSet
Validated: 33
EndChar

StartChar: r
Encoding: 114 114 74
Width: 668
Flags: W
LayerCount: 2
Fore
SplineSet
359 329 m 1,0,1
 385 305 385 305 523 200 c 0,2,3
 570 165 570 165 591 135 c 0,4,5
 618 95 618 95 618 45 c 0,6,7
 618 -38 618 -38 553 -52 c 1,8,9
 520 -42 520 -42 453 37 c 0,10,11
 343 167 343 167 328 182 c 0,12,13
 250 263 250 263 188 279 c 1,14,15
 186 270 186 270 186 258 c 0,16,17
 186 234 186 234 197 174.5 c 128,-1,18
 208 115 208 115 208 87 c 0,19,20
 208 39 208 39 184 18 c 1,21,22
 150 9 150 9 136 9 c 0,23,24
 114 9 114 9 98 21 c 1,25,26
 67 56 67 56 39 313 c 0,27,28
 15 526 15 526 15 620 c 0,29,30
 15 686 15 686 147 746 c 0,31,32
 258 796 258 796 325 798 c 0,33,34
 432 800 432 800 541 738 c 0,35,36
 665 667 665 667 665 568 c 0,37,38
 665 487 665 487 560 415 c 0,39,40
 472 355 472 355 359 329 c 1,0,1
312 660 m 0,41,42
 283 660 283 660 235 646 c 0,43,44
 182 631 182 631 162 614 c 1,45,46
 163 557 163 557 177 447 c 1,47,48
 201 450 201 450 238 448 c 1,49,50
 296 447 296 447 298 447 c 0,51,52
 342 447 342 447 429 474 c 0,53,54
 538 508 538 508 530 549 c 0,55,56
 518 608 518 608 442 638 c 0,57,58
 383 661 383 661 312 660 c 0,41,42
EndSplineSet
Validated: 33
EndChar

StartChar: s
Encoding: 115 115 75
Width: 697
Flags: W
LayerCount: 2
Fore
SplineSet
561 20 m 0,0,1
 488 -1 488 -1 391 -1 c 0,2,3
 300 -1 300 -1 185 20 c 0,4,5
 13 50 13 50 13 105 c 0,6,7
 13 183 13 183 81 183 c 0,8,9
 96 183 96 183 179 159 c 0,10,11
 257 136 257 136 266 136 c 2,12,-1
 489 136 l 2,13,14
 563 136 563 136 576 176 c 1,15,16
 564 228 564 228 488 264 c 0,17,18
 467 274 467 274 308 330 c 0,19,20
 193 370 193 370 141 416 c 0,21,22
 67 480 67 480 67 584 c 0,23,24
 67 608 67 608 71 634 c 1,25,26
 158 703 158 703 236 724 c 0,27,28
 294 739 294 739 415 739 c 0,29,30
 479 739 479 739 536 712 c 0,31,32
 610 677 610 677 610 614 c 0,33,34
 610 568 610 568 570 529 c 128,-1,35
 530 490 530 490 490 490 c 0,36,37
 483 490 483 490 469 487.5 c 128,-1,38
 455 485 455 485 448 485 c 0,39,40
 407 485 407 485 388 532 c 1,41,42
 399 563 399 563 420.5 573 c 128,-1,43
 442 583 442 583 463 593 c 1,44,45
 458 612 458 612 419 612 c 0,46,47
 348 612 348 612 313 607 c 0,48,49
 246 596 246 596 220 562 c 1,50,51
 227 517 227 517 354 467 c 0,52,53
 542 392 542 392 585 366 c 0,54,55
 709 292 709 292 713 189 c 0,56,57
 718 65 718 65 561 20 c 0,0,1
EndSplineSet
Validated: 33
EndChar

StartChar: t
Encoding: 116 116 76
Width: 705
Flags: W
LayerCount: 2
Fore
SplineSet
551 674 m 0,0,1
 517 669 517 669 458 660 c 0,2,3
 449 659 449 659 441 667 c 0,4,5
 439 669 439 669 437 671 c 1,6,7
 422 541 422 541 413 394 c 0,8,9
 407 296 407 296 402 197 c 1,10,11
 389 19 389 19 318 19 c 0,12,13
 301 19 301 19 278 30 c 1,14,15
 280 30 280 30 281 30 c 2,16,-1
 262 42 l 1,17,18
 247 75 247 75 247 104 c 0,19,20
 247 111 247 111 248 122.5 c 128,-1,21
 249 134 249 134 249 140 c 0,22,23
 249 152 249 152 273 340 c 128,-1,24
 297 528 297 528 297 540 c 2,25,-1
 297 635 l 1,26,27
 225 628 225 628 73 550 c 0,28,29
 36 531 36 531 24 531 c 0,30,31
 11 531 11 531 -14 536 c 128,-1,32
 -39 541 -39 541 -53 541 c 1,33,34
 -73 579 -73 579 -73 632 c 1,35,36
 -54 660 -54 660 -22.5 678.5 c 128,-1,37
 9 697 9 697 33 697 c 0,38,39
 40 697 40 697 48 699.5 c 128,-1,40
 56 702 56 702 66 702 c 1,41,42
 62 702 62 702 137 733 c 1,43,44
 220 766 220 766 290 768 c 1,45,46
 341 775 341 775 416 792 c 0,47,48
 479 807 479 807 542 821 c 0,49,50
 571 827 571 827 584 828 c 1,51,52
 609 839 609 839 645 839 c 0,53,54
 669 839 669 839 751 826 c 1,55,56
 764 783 764 783 753 752 c 1,57,58
 704 698 704 698 551 674 c 0,0,1
EndSplineSet
Validated: 33
EndChar

StartChar: u
Encoding: 117 117 77
Width: 605
Flags: W
LayerCount: 2
Fore
SplineSet
230 89 m 1,0,1
 117 95 117 95 62 220 c 0,2,3
 20 313 20 313 20 436 c 0,4,5
 20 446 20 446 18 482.5 c 128,-1,6
 16 519 16 519 16 541 c 0,7,8
 16 678 16 678 95 687 c 0,9,10
 171 696 171 696 171 584 c 0,11,12
 171 568 171 568 169 541 c 0,13,14
 158 390 158 390 158 392 c 1,15,16
 158 244 158 244 247 216 c 1,17,18
 253 213 253 213 260 213 c 0,19,20
 325 213 325 213 392 361 c 1,21,22
 457 502 457 502 457 622 c 0,23,24
 457 683 457 683 435 711 c 1,25,26
 432 727 432 727 432 739 c 0,27,28
 432 770 432 770 449 788 c 0,29,30
 458 797 458 797 495 821 c 1,31,32
 554 806 554 806 571 745 c 1,33,34
 581 713 581 713 581 633 c 0,35,36
 581 456 581 456 510 298 c 0,37,38
 412 81 412 81 230 89 c 1,0,1
EndSplineSet
EndChar

StartChar: v
Encoding: 118 118 78
Width: 674
Flags: W
LayerCount: 2
Fore
SplineSet
598 513 m 2,0,-1
 415 34 l 2,1,2
 404 3 404 3 380 -13 c 0,3,4
 365 -24 365 -24 329 -36 c 0,5,6
 323 -38 323 -38 317 -38 c 0,7,8
 269 -38 269 -38 200 79 c 0,9,10
 148 168 148 168 99 295 c 0,11,12
 53 414 53 414 11 545 c 0,13,14
 -27 662 -27 662 -27 676 c 0,15,16
 -27 705 -27 705 -9 723 c 0,17,18
 1 733 1 733 32 749 c 1,19,20
 46 762 46 762 61 762 c 0,21,22
 96 762 96 762 124 699 c 0,23,24
 145 651 145 651 182 516 c 0,25,26
 227 350 227 350 234 328 c 0,27,28
 269 214 269 214 307 148 c 1,29,30
 343 229 343 229 437 502 c 0,31,32
 520 742 520 742 598 846 c 1,33,34
 629 854 629 854 649 854 c 0,35,36
 702 854 702 854 702 800 c 0,37,38
 702 787 702 787 598 513 c 2,0,-1
EndSplineSet
Validated: 1
EndChar

StartChar: w
Encoding: 119 119 79
Width: 826
Flags: W
LayerCount: 2
Fore
SplineSet
568 60 m 0,0,1
 507 60 507 60 467 143 c 0,2,3
 456 165 456 165 420 281 c 0,4,5
 413 305 413 305 407 322 c 1,6,7
 347 153 347 153 324 109 c 0,8,9
 258 -23 258 -23 174 -36 c 1,10,11
 46 -54 46 -54 46 304 c 0,12,13
 46 346 46 346 48 408 c 0,14,15
 50 465 50 465 50 476 c 0,16,17
 50 493 50 493 40.5 526.5 c 128,-1,18
 31 560 31 560 31 577 c 0,19,20
 31 722 31 722 109 722 c 0,21,22
 178 722 178 722 178 621 c 2,23,-1
 178 380 l 2,24,25
 178 347 178 347 166 315 c 0,26,27
 163 307 163 307 163 292 c 0,28,29
 163 255 163 255 186 146 c 1,30,31
 244 197 244 197 277 301 c 0,32,33
 299 368 299 368 320 499 c 0,34,35
 341 635 341 635 356 681 c 1,36,37
 387 713 387 713 414 713 c 0,38,39
 486 713 486 713 514 487 c 0,40,41
 527 386 527 386 531 358 c 0,42,43
 546 274 546 274 566 235 c 1,44,45
 624 343 624 343 643 507 c 1,46,47
 654 649 654 649 666 791 c 1,48,49
 675 878 675 878 712 893 c 1,50,-1
 768 893 l 1,51,52
 796 863 796 863 805 830 c 0,53,54
 811 807 811 807 811 758 c 0,55,56
 811 720 811 720 782 563 c 0,57,58
 745 361 745 361 699 234 c 0,59,60
 637 60 637 60 568 60 c 0,0,1
EndSplineSet
Validated: 33
EndChar

StartChar: x
Encoding: 120 120 80
Width: 644
Flags: W
LayerCount: 2
Fore
SplineSet
413 418 m 1,0,1
 454 322 454 322 526 209 c 0,2,3
 587 112 587 112 587 76 c 0,4,5
 587 36 587 36 557 16 c 1,6,7
 535 3 535 3 510 3 c 0,8,9
 474 3 474 3 410 113 c 0,10,11
 398 134 398 134 330 268 c 1,12,13
 324 286 324 286 314 305 c 1,14,15
 287 310 287 310 258 273 c 0,16,17
 247 259 247 259 206 189 c 0,18,19
 161 114 161 114 150 99 c 0,20,21
 106 40 106 40 69 40 c 0,22,23
 26 40 26 40 5 70 c 0,24,25
 -13 95 -13 95 -8 126 c 0,26,27
 -1 173 -1 173 94 285 c 0,28,29
 183 389 183 389 235 423 c 0,30,31
 240 426 240 426 245 430 c 1,32,33
 245 442 245 442 164 539 c 1,34,35
 76 642 76 642 36 661 c 1,36,37
 22 687 22 687 22 710 c 0,38,39
 22 734 22 734 36 758 c 1,40,41
 52 766 52 766 68.5 774.5 c 128,-1,42
 85 783 85 783 102 783 c 0,43,44
 152 783 152 783 235 680 c 0,45,46
 271 635 271 635 340 529 c 1,47,-1
 554 738 l 2,48,49
 578 761 578 761 606 761 c 0,50,51
 638 761 638 761 669 734 c 1,52,53
 682 683 682 683 668 648 c 1,54,55
 551 529 551 529 413 418 c 1,0,1
EndSplineSet
Validated: 33
EndChar

StartChar: y
Encoding: 121 121 81
Width: 595
Flags: W
LayerCount: 2
Fore
SplineSet
165 -63 m 0,0,1
 158 -64 158 -64 151 -64 c 0,2,3
 111 -64 111 -64 99 -8 c 0,4,5
 97 1 97 1 97 10 c 0,6,7
 97 53 97 53 136 113 c 0,8,9
 152 137 152 137 209 208 c 0,10,11
 248 257 248 257 248 273 c 0,12,13
 248 275 248 275 202 336 c 0,14,15
 188 355 188 355 179 369 c 0,16,17
 -30 729 -30 729 -23 786 c 0,18,19
 -20 807 -20 807 -4 831 c 0,20,21
 19 865 19 865 53 867 c 0,22,23
 89 869 89 869 118 828 c 0,24,25
 143 793 143 793 174 710 c 0,26,27
 251 505 251 505 322 387 c 1,28,29
 358 444 358 444 417.5 641 c 128,-1,30
 477 838 477 838 548 828 c 0,31,32
 554 828 554 828 585 818 c 1,33,34
 618 784 618 784 618 744 c 0,35,36
 618 718 618 718 606 689 c 1,37,38
 584 604 584 604 404 283 c 0,39,40
 215 -54 215 -54 165 -63 c 0,0,1
EndSplineSet
Validated: 33
EndChar

StartChar: z
Encoding: 122 122 82
Width: 683
Flags: W
LayerCount: 2
Fore
SplineSet
658 190 m 2,0,1
 658 191 658 191 658 197 c 1,2,3
 682 169 682 169 679 141 c 0,4,5
 671 64 671 64 183 46 c 1,6,7
 139 46 139 46 85 74 c 0,8,9
 18 108 18 108 17 156 c 1,10,11
 15 197 15 197 142 315 c 1,12,13
 261 419 261 419 380 524 c 0,14,15
 510 639 510 639 515 670 c 1,16,17
 504 679 504 679 480 679 c 0,18,19
 312 679 312 679 81 549 c 1,20,21
 56 540 56 540 33 540 c 0,22,23
 9 540 9 540 -9 550 c 1,24,-1
 -20 568 l 2,25,26
 -18 566 -18 566 -18 564 c 1,27,28
 -30 584 -30 584 -30 601 c 0,29,30
 -30 681 -30 681 203 749 c 0,31,32
 406 808 406 808 546 806 c 0,33,34
 584 806 584 806 658 759 c 1,35,36
 661 742 661 742 661 725 c 0,37,38
 661 605 661 605 478 437 c 0,39,40
 434 397 434 397 327 310 c 0,41,42
 228 230 228 230 178 182 c 1,43,44
 182 177 182 177 185.5 175.5 c 128,-1,45
 189 174 189 174 191 174 c 0,46,47
 205 170 205 170 230 170 c 0,48,49
 281 170 281 170 393 187 c 0,50,51
 537 209 537 209 547 210 c 0,52,53
 616 218 616 218 644 209 c 1,54,-1
 658 190 l 2,0,1
EndSplineSet
Validated: 37
EndChar

StartChar: fraction
Encoding: 8260 8260 83
Width: 480
Flags: W
LayerCount: 2
Fore
SplineSet
58 20 m 1,0,-1
 60 20 l 1,1,2
 -6 21 -6 21 -6 56 c 0,3,4
 -6 72 -6 72 7 94 c 0,5,6
 103 251 103 251 245 565 c 0,7,8
 349 796 349 796 395 804 c 0,9,10
 405 806 405 806 414 806 c 0,11,12
 463 806 463 806 463 757 c 0,13,14
 463 746 463 746 460 734 c 0,15,16
 457 718 457 718 457 719 c 1,17,18
 457 707 457 707 367 527 c 0,19,20
 267 328 267 328 188 192 c 0,21,22
 85 15 85 15 58 20 c 1,0,-1
EndSplineSet
Validated: 33
EndChar

StartChar: Aacute
Encoding: 193 193 84
Width: 577
Flags: W
LayerCount: 2
Fore
SplineSet
522.624 993.495 m 4,0,1
 502.049 958.321 502.049 958.321 390 921 c 132,-1,2
 277.951 883.679 277.951 883.679 252.591 901.675 c 5,3,4
 247.008 931.327 247.008 931.327 259.449 952.596 c 4,5,6
 275.24 979.589 275.24 979.589 379.233 1032.96 c 132,-1,7
 483.228 1086.34 483.228 1086.34 510.662 1075.29 c 4,8,9
 514.809 1073.86 514.809 1073.86 517.998 1070.8 c 4,10,11
 530.12 1059.14 530.12 1059.14 529.482 1029.08 c 4,12,13
 528.845 1004.13 528.845 1004.13 522.624 993.495 c 4,0,1
410 234 m 1,14,15
 402 234 402 234 398 234 c 0,16,17
 390 234 390 234 307 197 c 1,18,19
 257 176 257 176 207 154 c 1,20,21
 196 97 196 97 184 40 c 0,22,23
 170 -24 170 -24 133 -69 c 1,24,25
 111 -74 111 -74 92 -74 c 0,26,27
 12 -74 12 -74 12 31 c 0,28,29
 12 55 12 55 146 439 c 0,30,31
 286 839 286 839 317 839 c 0,32,33
 376 839 376 839 438 677 c 0,34,35
 491 539 491 539 532 325 c 0,36,37
 559 181 559 181 559 131 c 0,38,39
 559 -11 559 -11 457 25 c 0,40,41
 409 41 409 41 409 174 c 0,42,43
 409 187 409 187 409 208 c 1,44,45
 410 228 410 228 410 234 c 1,14,15
349 551 m 0,46,47
 343 564 343 564 327 588 c 1,48,49
 249 379 249 379 249 354 c 2,50,-1
 249 342 l 1,51,52
 309 355 309 355 397 383 c 1,53,54
 370 509 370 509 349 551 c 0,46,47
EndSplineSet
Validated: 33
EndChar

StartChar: Eacute
Encoding: 201 201 85
Width: 567
Flags: W
LayerCount: 2
Fore
SplineSet
507.009 1000.87 m 4,0,1
 486.397 961.699 486.397 961.699 375.578 905.062 c 132,-1,2
 264.759 848.426 264.759 848.426 239.923 862.469 c 5,3,4
 234.693 891.659 234.693 891.659 247.156 915.342 c 4,5,6
 262.975 945.402 262.975 945.402 366 1017 c 132,-1,7
 469.026 1088.59 469.026 1088.59 495.973 1081.96 c 4,8,9
 500.048 1081.21 500.048 1081.21 503.164 1078.62 c 4,10,11
 515.008 1068.8 515.008 1068.8 514.1 1038.16 c 4,12,13
 513.24 1012.71 513.24 1012.71 507.009 1000.87 c 4,0,1
166 402 m 1,14,15
 191 408 191 408 307 455 c 1,16,17
 409 495 409 495 427 495 c 2,18,-1
 516 495 l 1,19,-1
 516 409 l 1,20,21
 417 334 417 334 307 296 c 1,22,23
 253 281 253 281 147 249 c 1,24,25
 145 239 145 239 145 199 c 0,26,27
 145 131 145 131 163 104.5 c 128,-1,28
 181 78 181 78 226 78 c 0,29,30
 277 78 277 78 363 114 c 1,31,32
 488 168 488 168 497 171 c 1,33,-1
 524 150 l 2,34,35
 523 152 523 152 523 154 c 1,36,37
 535 130 535 130 535 113 c 0,38,39
 535 69 535 69 462 21 c 0,40,41
 407 -14 407 -14 323 -45 c 0,42,43
 253 -70 253 -70 235 -70 c 0,44,45
 89 -70 89 -70 39 45 c 0,46,47
 10 111 10 111 10 251 c 0,48,49
 10 352 10 352 39 503 c 0,50,51
 82 724 82 724 156 724 c 0,52,53
 166 724 166 724 182.5 719.5 c 128,-1,54
 199 715 199 715 208 715 c 0,55,56
 238 715 238 715 361 761 c 0,57,58
 490 810 490 810 547 810 c 0,59,60
 571 810 571 810 587.5 793 c 128,-1,61
 604 776 604 776 604 757 c 0,62,63
 604 742 604 742 593 736 c 1,64,65
 543 671 543 671 458 641 c 1,66,67
 378 619 378 619 298 598 c 0,68,69
 234 581 234 581 208 549 c 1,70,71
 170 505 170 505 166 402 c 1,14,15
EndSplineSet
Validated: 33
EndChar

StartChar: Iacute
Encoding: 205 205 86
Width: 426
Flags: W
LayerCount: 2
Fore
SplineSet
376.443 1029.26 m 4,0,1
 358.283 992.78 358.283 992.78 249 948 c 132,-1,2
 139.719 903.219 139.719 903.219 113.204 919.466 c 5,3,4
 105.638 948.676 105.638 948.676 116.619 970.733 c 4,5,6
 130.556 998.729 130.556 998.729 230.72 1058.98 c 132,-1,7
 330.884 1119.23 330.884 1119.23 359 1110.06 c 4,8,9
 363.234 1108.92 363.234 1108.92 366.622 1106.08 c 4,10,11
 379.501 1095.25 379.501 1095.25 380.889 1065.22 c 4,12,13
 381.933 1040.29 381.933 1040.29 376.443 1029.26 c 4,0,1
309.156 822.685 m 0,14,15
 346.377 822.869 346.377 822.869 357.125 815.271 c 0,16,17
 361.84 812.188 361.84 812.188 364.844 807.681 c 0,18,19
 376.192 790.653 376.192 790.653 368.5 757.066 c 0,20,21
 362.061 729.521 362.061 729.521 352.375 719.293 c 0,22,23
 340.285 706.528 340.285 706.528 309.593 701.026 c 0,24,25
 283.281 696.31 283.281 696.31 226.281 690.28 c 1,26,27
 253.492 570.586 253.492 570.586 258 447 c 0,28,29
 264.463 270.008 264.463 270.008 260.47 132.072 c 1,30,31
 308.599 138.677 308.599 138.677 339 137.889 c 0,32,33
 370.537 137.071 370.537 137.071 383.844 128.276 c 1,34,-1
 383.906 128.241 l 2,35,36
 388.938 125.19 388.938 125.19 392.375 120.58 c 0,37,38
 405.318 103.219 405.318 103.219 397.719 69.7539 c 0,39,40
 391.329 42.2422 391.329 42.2422 380.938 32.2637 c 0,41,42
 364.144 16.1338 364.144 16.1338 319.093 6.93848 c 0,43,44
 274.377 -2.18848 274.377 -2.18848 201.75 -4.58887 c 128,-1,45
 129.14 -6.99023 129.14 -6.99023 86.0625 -1.50293 c 0,46,47
 42.5293 4.04199 42.5293 4.04199 28.875 17.8271 c 0,48,49
 28.2383 18.4814 28.2383 18.4814 28.2188 19.459 c 0,50,51
 27.1885 55.292 27.1885 55.292 47.75 75.0381 c 0,52,53
 57.9189 84.8057 57.9189 84.8057 85.5 94.4756 c 0,54,55
 112.018 103.774 112.018 103.774 155.812 113.31 c 1,56,57
 151.068 235.05 151.068 235.05 138.031 442.211 c 0,58,59
 126.243 625.718 126.243 625.718 124.406 683.61 c 1,60,61
 84.3779 681.263 84.3779 681.263 61.1562 683.61 c 0,62,63
 36.6152 686.094 36.6152 686.094 29.5 694.004 c 0,64,65
 28.9131 694.661 28.9131 694.661 28.9062 695.6 c 0,66,67
 28.791 742.94 28.791 742.94 48.25 763.487 c 0,68,69
 60.3369 776.248 60.3369 776.248 79.9062 783.137 c 0,70,71
 99.1279 789.906 99.1279 789.906 162.594 803.957 c 0,72,73
 245.623 822.341 245.623 822.341 309.156 822.685 c 0,14,15
EndSplineSet
Validated: 33
EndChar

StartChar: Oacute
Encoding: 211 211 87
Width: 663
Flags: W
LayerCount: 2
Fore
SplineSet
588.095 966.215 m 4,0,1
 569.935 929.735 569.935 929.735 460.652 884.955 c 132,-1,2
 351.371 840.174 351.371 840.174 324.856 856.421 c 5,3,4
 317.29 885.631 317.29 885.631 328.271 907.688 c 4,5,6
 342.208 935.684 342.208 935.684 442.372 995.939 c 132,-1,7
 542.536 1056.19 542.536 1056.19 570.652 1047.02 c 4,8,9
 574.886 1045.88 574.886 1045.88 578.274 1043.03 c 4,10,11
 591.153 1032.21 591.153 1032.21 592.541 1002.18 c 4,12,13
 593.585 977.243 593.585 977.243 588.095 966.215 c 4,0,1
239 2 m 0,14,15
 22 2 22 2 22 312 c 0,16,17
 22 473 22 473 105 611 c 0,18,19
 207 782 207 782 379 782 c 0,20,21
 499 782 499 782 575.5 703 c 128,-1,22
 652 624 652 624 652 496 c 0,23,24
 652 419 652 419 590 301 c 0,25,26
 525 179 525 179 435 97 c 1,27,28
 333 2 333 2 239 2 c 0,14,15
426 636 m 0,29,30
 422 636 422 636 409 626.5 c 128,-1,31
 396 617 396 617 379 617 c 0,32,33
 351 617 351 617 336 638 c 1,34,-1
 334 640 l 1,35,36
 253 637 253 637 202 526 c 0,37,38
 157 427 157 427 157 298 c 0,39,40
 157 224 157 224 166 192 c 0,41,42
 184 129 184 129 239 130 c 0,43,44
 329 132 329 132 423 257 c 128,-1,45
 517 382 517 382 517 492 c 0,46,47
 517 532 517 532 498 575 c 0,48,49
 472 636 472 636 426 636 c 0,29,30
EndSplineSet
Validated: 33
EndChar

StartChar: Uacute
Encoding: 218 218 88
Width: 519
Flags: W
LayerCount: 2
Fore
SplineSet
507.105 979.347 m 4,0,1
 484.265 944.146 484.265 944.146 380 904 c 132,-1,2
 275.736 863.852 275.736 863.852 255.59 880.746 c 5,3,4
 254.508 909.708 254.508 909.708 268.318 930.991 c 4,5,6
 285.849 958.005 285.849 958.005 385.061 1013.68 c 132,-1,7
 484.275 1069.35 484.275 1069.35 507.169 1059.35 c 4,8,9
 510.661 1058.07 510.661 1058.07 513.09 1055.16 c 4,10,11
 522.322 1044.08 522.322 1044.08 517.832 1014.52 c 4,12,13
 514.011 989.987 514.011 989.987 507.105 979.347 c 4,0,1
193 60 m 0,14,15
 93 60 93 60 48 178 c 0,16,17
 14 265 14 265 22 351 c 1,18,19
 26 430 26 430 42 582 c 1,20,21
 66 730 66 730 140 723 c 0,22,23
 209 716 209 716 209 650 c 0,24,25
 209 636 209 636 181 504 c 0,26,27
 154 378 154 378 154 368 c 0,28,29
 155 318 155 318 155 268 c 1,30,31
 163 201 163 201 206 200 c 0,32,33
 290 198 290 198 335 351 c 1,34,35
 366 452 366 452 366 532 c 0,36,37
 366 541 366 541 354 622.5 c 128,-1,38
 342 704 342 704 342 716 c 0,39,40
 342 741 342 741 363.5 760.5 c 128,-1,41
 385 780 385 780 408 780 c 0,42,43
 452 780 452 780 481 674 c 0,44,45
 502 597 502 597 502 551 c 0,46,47
 502 479 502 479 471 373 c 0,48,49
 433 243 433 243 372 162 c 0,50,51
 294 60 294 60 193 60 c 0,14,15
EndSplineSet
Validated: 33
EndChar

StartChar: aacute
Encoding: 225 225 89
Width: 565
Flags: W
LayerCount: 2
Fore
SplineSet
522.624 993.495 m 4,0,1
 502.049 958.321 502.049 958.321 390 921 c 132,-1,2
 277.951 883.679 277.951 883.679 252.591 901.675 c 5,3,4
 247.008 931.327 247.008 931.327 259.449 952.596 c 4,5,6
 275.24 979.589 275.24 979.589 379.233 1032.96 c 132,-1,7
 483.228 1086.34 483.228 1086.34 510.662 1075.29 c 4,8,9
 514.809 1073.86 514.809 1073.86 517.998 1070.8 c 4,10,11
 530.12 1059.14 530.12 1059.14 529.482 1029.08 c 4,12,13
 528.845 1004.13 528.845 1004.13 522.624 993.495 c 4,0,1
554 -63 m 0,14,15
 549 -72 549 -72 534 -102 c 1,16,-1
 450 -102 l 1,17,18
 410 -45 410 -45 399 49 c 0,19,20
 387 152 387 152 368 189 c 1,21,22
 244 149 244 149 140 96 c 0,23,24
 130 91 130 91 121 50 c 0,25,26
 116 24 116 24 112 -1 c 1,27,28
 96 -27 96 -27 54 -27 c 0,29,30
 15 -27 15 -27 -8 2 c 0,31,32
 -27 26 -27 26 -27 52 c 0,33,34
 -27 97 -27 97 39 268 c 1,35,36
 72 350 72 350 110 447 c 1,37,38
 143 550 143 550 209 730 c 1,39,40
 260 849 260 849 320 849 c 0,41,42
 335 849 335 849 350 841 c 1,43,44
 387 774 387 774 478 382 c 0,45,46
 563 14 563 14 563 -24 c 0,47,48
 563 -43 563 -43 554 -63 c 0,14,15
294 586 m 1,49,50
 174 302 174 302 174 295 c 2,51,-1
 174 275 l 1,52,53
 258 305 258 305 342 320 c 1,54,55
 327 475 327 475 294 586 c 1,49,50
EndSplineSet
Validated: 33
EndChar

StartChar: eacute
Encoding: 233 233 90
Width: 620
Flags: W
LayerCount: 2
Fore
SplineSet
501.009 1047.86 m 4,0,1
 480.397 1008.69 480.397 1008.69 369.578 952.058 c 132,-1,2
 258.759 895.421 258.759 895.421 233.923 909.464 c 5,3,4
 228.693 938.654 228.693 938.654 241.156 962.337 c 4,5,6
 256.975 992.397 256.975 992.397 360 1064 c 132,-1,7
 463.026 1135.59 463.026 1135.59 489.973 1128.96 c 4,8,9
 494.048 1128.2 494.048 1128.2 497.164 1125.61 c 4,10,11
 509.008 1115.8 509.008 1115.8 508.1 1085.16 c 4,12,13
 507.24 1059.7 507.24 1059.7 501.009 1047.86 c 4,0,1
167 774 m 1,14,15
 182 775 182 775 294 815 c 0,16,17
 415 859 415 859 477 859 c 0,18,19
 489 859 489 859 515 863 c 128,-1,20
 541 867 541 867 556 866 c 0,21,22
 617 863 617 863 655 796 c 1,23,24
 632 745 632 745 536 730 c 0,25,26
 450 717 450 717 364 705 c 1,27,28
 266 684 266 684 220 637 c 0,29,30
 160 577 160 577 166 465 c 1,31,32
 169 461 169 461 178 461 c 1,33,34
 177 461 177 461 317 507 c 0,35,36
 463 556 463 556 522 555 c 1,37,38
 554 535 554 535 550 498 c 1,39,40
 541 432 541 432 433 398 c 1,41,42
 337 374 337 374 241 351 c 1,43,44
 142 322 142 322 148 266 c 0,45,46
 153 220 153 220 162 199 c 0,47,48
 177 167 177 167 211 167 c 0,49,50
 256 167 256 167 325 184 c 0,51,52
 411 206 411 206 427 235 c 1,53,-1
 520 217 l 1,54,55
 523 209 523 209 523 200 c 0,56,57
 523 136 523 136 394 78 c 0,58,59
 284 29 284 29 216 29 c 0,60,61
 119 29 119 29 62 103 c 1,62,63
 12 166 12 166 12 250 c 0,64,65
 12 273 12 273 17 293 c 1,66,67
 23 325 23 325 29 411 c 0,68,69
 41 572 41 572 50 625 c 0,70,71
 76 779 76 779 135 783 c 0,72,73
 156 785 156 785 167 774 c 1,14,15
EndSplineSet
Validated: 33
EndChar

StartChar: iacute
Encoding: 237 237 91
Width: 306
Flags: W
LayerCount: 2
Fore
SplineSet
328.443 1002.26 m 4,0,1
 310.283 965.781 310.283 965.781 201 921 c 132,-1,2
 91.7188 876.219 91.7188 876.219 65.2031 892.467 c 5,3,4
 57.6367 921.676 57.6367 921.676 68.6191 943.734 c 4,5,6
 82.5547 971.729 82.5547 971.729 182.719 1031.98 c 132,-1,7
 282.883 1092.23 282.883 1092.23 311 1083.06 c 4,8,9
 315.234 1081.93 315.234 1081.93 318.621 1079.08 c 4,10,11
 331.5 1068.26 331.5 1068.26 332.889 1038.22 c 4,12,13
 333.932 1013.29 333.932 1013.29 328.443 1002.26 c 4,0,1
196 33 m 1,14,15
 167 11 167 11 147 11 c 0,16,17
 118 11 118 11 98 52 c 1,18,-1
 90 404 l 2,19,20
 89 465 89 465 76 587 c 0,21,22
 63 706 63 706 63 711 c 256,23,24
 63 716 63 716 70 755 c 0,25,26
 71 758 71 758 71 791 c 1,27,28
 108 791 108 791 114 796 c 0,29,30
 125 805 125 805 136 805 c 0,31,32
 175 805 175 805 191 717 c 0,33,34
 210 617 210 617 213 463 c 0,35,36
 213 460 213 460 213 208 c 0,37,38
 213 149 213 149 196 33 c 1,14,15
EndSplineSet
Validated: 33
EndChar

StartChar: oacute
Encoding: 243 243 92
Width: 675
Flags: W
LayerCount: 2
Fore
SplineSet
578.012 1025.08 m 4,0,1
 558.677 989.209 558.677 989.209 448 948 c 132,-1,2
 337.322 906.789 337.322 906.789 311.349 923.888 c 5,3,4
 304.735 953.328 304.735 953.328 316.426 975.018 c 4,5,6
 331.265 1002.54 331.265 1002.54 433.331 1059.52 c 132,-1,7
 535.398 1116.49 535.398 1116.49 563.201 1106.41 c 4,8,9
 567.396 1105.12 567.396 1105.12 570.69 1102.17 c 4,10,11
 583.212 1090.94 583.212 1090.94 583.624 1060.88 c 4,12,13
 583.858 1035.92 583.858 1035.92 578.012 1025.08 c 4,0,1
255 17 m 0,14,15
 131 17 131 17 63 124 c 0,16,17
 10 207 10 207 10 308 c 0,18,19
 10 389 10 389 45 497 c 0,20,21
 88 631 88 631 162 713 c 0,22,23
 256 817 256 817 381 817 c 0,24,25
 528 817 528 817 598 703 c 0,26,27
 650 618 650 618 650 493 c 0,28,29
 650 399 650 399 604 292 c 0,30,31
 553 174 553 174 470 102 c 0,32,33
 373 17 373 17 255 17 c 0,14,15
514 550 m 0,34,35
 509 613 509 613 479 641.5 c 128,-1,36
 449 670 449 670 381 670 c 0,37,38
 309 670 309 670 249 595 c 0,39,40
 199 533 199 533 168 436 c 0,41,42
 141 350 141 350 145 295 c 0,43,44
 149 244 149 244 173 204 c 0,45,46
 207 145 207 145 274 145 c 0,47,48
 383 145 383 145 456 275 c 0,49,50
 515 381 515 381 515 483 c 0,51,52
 515 537 515 537 514 550 c 0,34,35
EndSplineSet
Validated: 33
EndChar

StartChar: uacute
Encoding: 250 250 93
Width: 596
Flags: W
LayerCount: 2
Fore
SplineSet
494.002 935.028 m 4,0,1
 474.849 897.693 474.849 897.693 375.193 847.18 c 132,-1,2
 275.539 796.664 275.539 796.664 253.783 811.429 c 5,3,4
 249.77 840.131 249.77 840.131 261.35 862.705 c 4,5,6
 276.051 891.357 276.051 891.357 369.104 956.804 c 132,-1,7
 462.162 1022.25 462.162 1022.25 485.951 1014.62 c 4,8,9
 489.556 1013.71 489.556 1013.71 492.268 1011.05 c 4,10,11
 502.575 1000.97 502.575 1000.97 501.105 971.109 c 4,12,13
 499.793 946.314 499.793 946.314 494.002 935.028 c 4,0,1
230 89 m 1,14,15
 117 95 117 95 62 220 c 0,16,17
 20 313 20 313 20 436 c 0,18,19
 20 446 20 446 18 482.5 c 128,-1,20
 16 519 16 519 16 541 c 0,21,22
 16 678 16 678 95 687 c 0,23,24
 171 696 171 696 171 584 c 0,25,26
 171 568 171 568 169 541 c 0,27,28
 158 390 158 390 158 392 c 1,29,30
 158 244 158 244 247 216 c 1,31,32
 253 213 253 213 260 213 c 0,33,34
 325 213 325 213 392 361 c 1,35,36
 457 502 457 502 457 622 c 0,37,38
 457 683 457 683 435 711 c 1,39,40
 432 727 432 727 432 739 c 0,41,42
 432 770 432 770 449 788 c 0,43,44
 458 797 458 797 495 821 c 1,45,46
 554 806 554 806 571 745 c 1,47,48
 581 713 581 713 581 633 c 0,49,50
 581 456 581 456 510 298 c 0,51,52
 412 81 412 81 230 89 c 1,14,15
EndSplineSet
Validated: 33
EndChar

StartChar: udieresis
Encoding: 252 252 94
Width: 596
Flags: W
LayerCount: 2
Fore
SplineSet
306.757 948.251 m 0,0,1
 304.997 974.932 304.997 974.932 316.478 992.865 c 0,2,3
 330.294 1013.81 330.294 1013.81 357.203 1015.47 c 0,4,5
 376.544 1016.67 376.544 1016.67 402.653 1004.89 c 0,6,7
 436.581 989.765 436.581 989.765 438.343 963.083 c 0,8,9
 440.797 925.921 440.797 925.921 404.694 884.46 c 1,10,11
 370.318 867.983 370.318 867.983 340.72 881.462 c 1,12,13
 327.1 895.929 327.1 895.929 317.275 916.85 c 128,-1,14
 307.45 937.77 307.45 937.77 306.757 948.251 c 0,0,1
52.1221 917.202 m 0,15,16
 50.4238 942.929 50.4238 942.929 60.875 963.668 c 0,17,18
 74.25 991.285 74.25 991.285 102 993 c 0,19,20
 139.002 995.287 139.002 995.287 163.909 963.34 c 0,21,22
 183.331 937.75 183.331 937.75 185.091 911.069 c 0,23,24
 186.476 890.105 186.476 890.105 165.639 866.812 c 128,-1,25
 144.801 843.516 144.801 843.516 123.778 842.217 c 0,26,27
 57.3447 838.111 57.3447 838.111 52.1221 917.202 c 0,15,16
230 89 m 1,28,29
 117 95 117 95 62 220 c 0,30,31
 20 313 20 313 20 436 c 0,32,33
 20 446 20 446 18 482.5 c 128,-1,34
 16 519 16 519 16 541 c 0,35,36
 16 678 16 678 95 687 c 0,37,38
 171 696 171 696 171 584 c 0,39,40
 171 568 171 568 169 541 c 0,41,42
 158 390 158 390 158 392 c 1,43,44
 158 244 158 244 247 216 c 1,45,46
 253 213 253 213 260 213 c 0,47,48
 325 213 325 213 392 361 c 1,49,50
 457 502 457 502 457 622 c 0,51,52
 457 683 457 683 435 711 c 1,53,54
 432 727 432 727 432 739 c 0,55,56
 432 770 432 770 449 788 c 0,57,58
 458 797 458 797 495 821 c 1,59,60
 554 806 554 806 571 745 c 1,61,62
 581 713 581 713 581 633 c 0,63,64
 581 456 581 456 510 298 c 0,65,66
 412 81 412 81 230 89 c 1,28,29
EndSplineSet
Validated: 33
EndChar

StartChar: Udieresis
Encoding: 220 220 95
Width: 519
Flags: W
LayerCount: 2
Fore
SplineSet
354.521 899.472 m 4,0,1
 354.914 926.208 354.914 926.208 367.803 943.157 c 4,2,3
 383.261 962.923 383.261 962.923 410.216 962.414 c 4,4,5
 429.591 962.047 429.591 962.047 454.666 948.201 c 4,6,7
 487.267 930.394 487.267 930.394 486.873 903.657 c 4,8,9
 486.326 866.418 486.326 866.418 447 828 c 5,10,11
 411.409 814.345 411.409 814.345 382.993 830.164 c 5,12,13
 370.582 845.681 370.582 845.681 362.475 867.325 c 132,-1,14
 354.366 888.969 354.366 888.969 354.521 899.472 c 4,0,1
98.2119 889.032 m 4,15,16
 98.5908 914.813 98.5908 914.813 110.679 934.644 c 4,17,18
 126.234 961.093 126.234 961.093 154.033 960.567 c 4,19,20
 191.099 959.867 191.099 959.867 213.351 926.018 c 4,21,22
 230.648 898.946 230.648 898.946 230.255 872.21 c 4,23,24
 229.946 851.203 229.946 851.203 207.301 829.663 c 132,-1,25
 184.654 808.122 184.654 808.122 163.595 808.521 c 4,26,27
 97.0469 809.778 97.0469 809.778 98.2119 889.032 c 4,15,16
193 60 m 0,28,29
 93 60 93 60 48 178 c 0,30,31
 14 265 14 265 22 351 c 1,32,33
 26 430 26 430 42 582 c 1,34,35
 66 730 66 730 140 723 c 0,36,37
 209 716 209 716 209 650 c 0,38,39
 209 636 209 636 181 504 c 0,40,41
 154 378 154 378 154 368 c 0,42,43
 155 318 155 318 155 268 c 1,44,45
 163 201 163 201 206 200 c 0,46,47
 290 198 290 198 335 351 c 1,48,49
 366 452 366 452 366 532 c 0,50,51
 366 541 366 541 354 622.5 c 128,-1,52
 342 704 342 704 342 716 c 0,53,54
 342 741 342 741 363.5 760.5 c 128,-1,55
 385 780 385 780 408 780 c 0,56,57
 452 780 452 780 481 674 c 0,58,59
 502 597 502 597 502 551 c 0,60,61
 502 479 502 479 471 373 c 0,62,63
 433 243 433 243 372 162 c 0,64,65
 294 60 294 60 193 60 c 0,28,29
EndSplineSet
Validated: 33
EndChar

StartChar: Ntilde
Encoding: 209 209 96
Width: 685
Flags: HW
LayerCount: 2
Fore
SplineSet
432.5 1082.94 m 0,0,1
 464.414 1084.19 464.414 1084.19 493.031 1064.12 c 0,2,3
 520.633 1044.64 520.633 1044.64 516.27 1022.14 c 1,4,5
 498.948 969.709 498.948 969.709 468.125 933.781 c 0,6,7
 444.333 906.888 444.333 906.888 411.511 891.853 c 128,-1,8
 378.688 876.817 378.688 876.817 344.719 879.5 c 1,9,10
 322.107 882.648 322.107 882.648 284.624 901.726 c 128,-1,11
 247.141 920.803 247.141 920.803 229.656 925.312 c 1,12,13
 227.832 922.707 227.832 922.707 216.326 907.677 c 128,-1,14
 204.819 892.646 204.819 892.646 199.969 883.844 c 1,15,16
 198.751 880.302 198.751 880.302 194.67 875.096 c 128,-1,17
 190.588 869.89 190.588 869.89 189.406 867.688 c 0,18,19
 186.735 863.512 186.735 863.512 183.646 852.793 c 128,-1,20
 180.557 842.073 180.557 842.073 176.75 837.469 c 1,21,22
 155.877 819.312 155.877 819.312 118.947 827.421 c 0,23,24
 86.585 834.672 86.585 834.672 78.7188 854.188 c 1,25,26
 76.7207 862.956 76.7207 862.956 75.8438 879.908 c 0,27,28
 79.4248 949.459 79.4248 949.459 142.125 1005.91 c 0,29,30
 182.023 1042.38 182.023 1042.38 230.5 1042.88 c 0,31,32
 252.245 1043.02 252.245 1043.02 288.603 1027.21 c 128,-1,33
 324.959 1011.4 324.959 1011.4 333.344 1009.04 c 0,34,35
 361.962 999.945 361.962 999.945 373.656 1010.06 c 1,36,37
 380.907 1018.74 380.907 1018.74 389.369 1038.26 c 128,-1,38
 397.831 1057.78 397.831 1057.78 399.469 1060.84 c 1,39,40
 402.341 1070.91 402.341 1070.91 411.871 1076.79 c 128,-1,41
 421.402 1082.66 421.402 1082.66 432.5 1082.94 c 0,0,1
199 455 m 1,42,43
 196 375 196 375 184 234 c 1,44,45
 163 94 163 94 64 73 c 1,46,47
 26 105 26 105 26 133 c 0,48,49
 26 144 26 144 48 246 c 0,50,51
 70 344 70 344 70 399 c 0,52,53
 70 543 70 543 34 631 c 0,54,55
 26 652 26 652 26 668 c 0,56,57
 26 697 26 697 64 728 c 0,58,59
 95 754 95 754 117 760 c 0,60,61
 184 777 184 777 337 497 c 0,62,63
 408 367 408 367 418 350 c 0,64,65
 477 249 477 249 514 215 c 1,66,67
 521 252 521 252 521 283 c 1,68,69
 535 424 535 424 521 514 c 1,70,71
 521 524 521 524 489 636 c 0,72,73
 455 753 455 753 455 767 c 0,74,75
 455 810 455 810 468.5 823 c 128,-1,76
 482 836 482 836 528 836 c 0,77,78
 595 836 595 836 632 624 c 0,79,80
 656 489 656 489 656 408 c 0,81,82
 656 257 656 257 645 195 c 0,83,84
 619 46 619 46 532 46 c 0,85,86
 442 46 442 46 216 428 c 1,87,-1
 199 455 l 1,42,43
EndSplineSet
EndChar

StartChar: ntilde
Encoding: 241 241 97
Width: 662
Flags: HW
LayerCount: 2
Fore
SplineSet
53 -57 m 1,0,1
 28 -42 28 -42 28 57 c 0,2,3
 28 120 28 120 48 246 c 128,-1,4
 68 372 68 372 68 435 c 0,5,6
 68 495 68 495 27 622 c 0,7,8
 18 650 18 650 18 662 c 0,9,10
 18 721 18 721 89 726 c 0,11,12
 142 730 142 730 225 624 c 0,13,14
 271 564 271 564 369 406 c 0,15,16
 456 265 456 265 490 230 c 1,17,18
 493 240 493 240 493 348 c 0,19,20
 493 525 493 525 466 626 c 1,21,-1
 446.5 693.5 l 1,22,-1
 437 762 l 1,23,24
 437 788 437 788 455 812 c 0,25,26
 476 841 476 841 509 841 c 0,27,28
 563 841 563 841 601 588 c 0,29,30
 628 406 628 406 628 333 c 0,31,32
 628 211 628 211 617 157 c 0,33,34
 593 36 593 36 516 45 c 0,35,36
 444 54 444 54 337 199 c 0,37,38
 296 254 296 254 197 416 c 1,39,40
 197 255 197 255 180 127 c 0,41,42
 159 -25 159 -25 121 -57 c 1,43,44
 91 -63 91 -63 79 -63 c 0,45,46
 61 -63 61 -63 48 -55 c 1,47,-1
 53 -57 l 1,0,1
369.375 1091.16 m 4,48,49
 401.289 1092.41 401.289 1092.41 429.906 1072.34 c 4,50,51
 457.508 1052.86 457.508 1052.86 453.145 1030.36 c 5,52,53
 435.823 977.928 435.823 977.928 405 942 c 4,54,55
 381.208 915.106 381.208 915.106 348.386 900.071 c 132,-1,56
 315.562 885.036 315.562 885.036 281.594 887.719 c 5,57,58
 258.982 890.867 258.982 890.867 221.499 909.944 c 132,-1,59
 184.016 929.021 184.016 929.021 166.531 933.531 c 5,60,61
 164.707 930.926 164.707 930.926 153.201 915.896 c 132,-1,62
 141.694 900.864 141.694 900.864 136.844 892.062 c 5,63,64
 135.626 888.521 135.626 888.521 131.545 883.314 c 132,-1,65
 127.463 878.108 127.463 878.108 126.281 875.906 c 4,66,67
 123.61 871.73 123.61 871.73 120.521 861.012 c 132,-1,68
 117.432 850.292 117.432 850.292 113.625 845.688 c 5,69,70
 92.752 827.531 92.752 827.531 55.8223 835.64 c 4,71,72
 23.46 842.891 23.46 842.891 15.5938 862.406 c 5,73,74
 12.3584 876.604 12.3584 876.604 12.7188 888.127 c 4,75,76
 14.8525 956.374 14.8525 956.374 79 1014.12 c 4,77,78
 118.898 1050.6 118.898 1050.6 167.375 1051.09 c 4,79,80
 189.12 1051.24 189.12 1051.24 225.478 1035.43 c 132,-1,81
 261.834 1019.62 261.834 1019.62 270.219 1017.26 c 4,82,83
 298.837 1008.16 298.837 1008.16 310.531 1018.28 c 5,84,85
 317.782 1026.95 317.782 1026.95 326.244 1046.47 c 132,-1,86
 334.706 1066 334.706 1066 336.344 1069.06 c 5,87,88
 339.216 1079.13 339.216 1079.13 348.746 1085 c 132,-1,89
 358.277 1090.88 358.277 1090.88 369.375 1091.16 c 4,48,49
EndSplineSet
EndChar

StartChar: questiondown
Encoding: 191 191 98
Width: 588
Flags: W
LayerCount: 2
Fore
SplineSet
460.326 478.075 m 5,0,-1
 506.854 466.327 l 5,1,2
 501.507 445.72 501.507 445.72 501.249 429.057 c 4,3,4
 500.479 407.294 500.479 407.294 496.915 393.557 c 4,5,6
 479.096 324.867 479.096 324.867 389.074 288 c 4,7,8
 364.405 277.499 364.405 277.499 227.598 241.99 c 4,9,10
 141.394 219.843 141.394 219.843 133.248 188.441 c 4,11,12
 125.356 158.021 125.356 158.021 162.215 124.667 c 4,13,14
 184.077 105.556 184.077 105.556 210.009 92.7344 c 5,15,16
 242.301 91.9004 242.301 91.9004 337.152 119.184 c 4,17,18
 436.893 149.111 436.893 149.111 457.174 140.111 c 4,19,20
 503.954 119.936 503.954 119.936 489.699 71.2568 c 4,21,22
 489.19 69.2939 489.19 69.2939 488.682 67.3311 c 4,23,24
 487.154 64.5801 487.154 64.5801 487.154 64.5801 c 5,25,26
 467.554 -10.9785 467.554 -10.9785 328.719 -22.9736 c 5,27,28
 217.854 -33.667 217.854 -33.667 143.614 -9.69434 c 4,29,30
 96.3242 5.38184 96.3242 5.38184 53.625 66.3496 c 4,31,32
 2.53809 138.846 2.53809 138.846 21.376 211.46 c 4,33,34
 36.6504 270.337 36.6504 270.337 101.246 312.578 c 4,35,36
 149.059 343.373 149.059 343.373 230.178 367.851 c 5,37,38
 286.885 382.809 286.885 382.809 342.829 397.958 c 5,39,40
 431.341 488.529 431.341 488.529 458.8 478.46 c 5,41,-1
 460.326 478.075 l 5,0,-1
445.645 700.303 m 5,42,43
 501.082 726.036 501.082 726.036 533.88 717.755 c 4,44,45
 553.712 712.747 553.712 712.747 560.569 685.923 c 4,46,47
 566.665 662.427 566.665 662.427 560.556 638.876 c 4,48,49
 551.392 603.55 551.392 603.55 525.194 577.753 c 132,-1,50
 498.995 551.955 498.995 551.955 479.165 556.963 c 4,51,52
 437.977 567.362 437.977 567.362 415.869 616.857 c 5,53,-1
 445.645 700.303 l 5,42,43
EndSplineSet
Validated: 33
EndChar

StartChar: exclamdown
Encoding: 161 161 99
Width: 482
Flags: W
LayerCount: 2
Fore
SplineSet
359.164 547.419 m 6,0,1
 362.092 544.349 362.092 544.349 361.832 533.352 c 4,2,3
 360.98 497.361 360.98 497.361 333 414 c 4,4,5
 301.854 323.712 301.854 323.712 256.784 236.754 c 4,6,7
 198.056 122.111 198.056 122.111 138.131 41.5068 c 4,8,9
 75.0664 -45.0254 75.0664 -45.0254 44.0752 -44.291 c 4,10,11
 7.08496 -43.416 7.08496 -43.416 -13.1992 -12.9277 c 4,12,13
 -29.6504 10.4688 -29.6504 10.4688 -29.0352 36.4609 c 4,14,15
 -28.6094 54.4561 -28.6094 54.4561 30.2676 133.085 c 4,16,17
 67.4648 183.219 67.4648 183.219 105.638 232.329 c 5,18,19
 120.154 253.992 120.154 253.992 153.802 323.215 c 4,20,21
 211.602 440.88 211.602 440.88 242.682 486.157 c 4,22,23
 320.405 600.351 320.405 600.351 365.067 543.277 c 5,24,-1
 359.164 547.419 l 6,0,1
367.079 797.302 m 5,25,-1
 459.053 795.124 l 5,26,27
 458.58 775.13 458.58 775.13 462.271 762.039 c 4,28,29
 467.82 742.902 467.82 742.902 467.441 726.907 c 4,30,31
 466.637 692.916 466.637 692.916 447.122 671.372 c 132,-1,32
 427.606 649.828 427.606 649.828 394.615 650.608 c 4,33,34
 362.625 651.366 362.625 651.366 339.271 678.926 c 132,-1,35
 315.916 706.486 315.916 706.486 316.483 730.479 c 4,36,37
 317.762 784.465 317.762 784.465 367.079 797.302 c 5,25,-1
EndSplineSet
Validated: 33
EndChar

StartChar: emdash
Encoding: 8212 8212 100
Width: 726
Flags: W
LayerCount: 2
Fore
SplineSet
556.856 265.98 m 4,0,1
 512.03 267.544 512.03 267.544 452.996 274.106 c 4,2,3
 408.831 279.016 408.831 279.016 337.646 274.408 c 4,4,5
 285.026 271.002 285.026 271.002 246.649 268.577 c 4,6,7
 173.954 263.984 173.954 263.984 164.305 260.667 c 4,8,9
 140.521 252.491 140.521 252.491 120.25 253.198 c 4,10,11
 81.8428 254.538 81.8428 254.538 57.0049 277.418 c 5,12,13
 29.002 301.408 29.002 301.408 30.3623 340.385 c 4,14,15
 30.7803 352.377 30.7803 352.377 34.4697 366.257 c 5,16,17
 70.2285 418.266 70.2285 418.266 240 414 c 4,18,19
 366.179 410.658 366.179 410.658 492.357 407.315 c 4,20,21
 587.448 405.034 587.448 405.034 660.697 364.42 c 5,22,23
 672.663 339.988 672.663 339.988 672 321 c 4,24,25
 669.943 262.035 669.943 262.035 556.856 265.98 c 4,0,1
EndSplineSet
Validated: 33
EndChar

StartChar: endash
Encoding: 8211 8211 101
Width: 490
Flags: W
LayerCount: 2
Fore
SplineSet
35 334 m 1,0,1
 58 364 58 364 80 364 c 0,2,3
 99 364 99 364 193 368.5 c 128,-1,4
 287 373 287 373 311 373 c 0,5,6
 319 373 319 373 358 382 c 128,-1,7
 397 391 397 391 405 391 c 0,8,9
 444 391 444 391 452 377 c 0,10,11
 454 374 454 374 454 342 c 0,12,13
 455 306 455 306 351 285 c 1,14,15
 262 266 262 266 153 266 c 0,16,17
 48 266 48 266 35 284 c 1,18,-1
 35 334 l 1,0,1
EndSplineSet
Validated: 33
EndChar

StartChar: ellipsis
Encoding: 8230 8230 102
Width: 883
VWidth: 0
Flags: W
LayerCount: 2
Fore
SplineSet
631.409 58.6865 m 0,0,1
 645.927 129.735 645.927 129.735 734.416 110.132 c 0,2,3
 765.334 103.281 765.334 103.281 785 85 c 0,4,5
 807.412 63.7881 807.412 63.7881 802.194 38.2549 c 0,6,7
 794.256 -0.600586 794.256 -0.600586 751.497 -18.9775 c 0,8,9
 716.042 -34.3311 716.042 -34.3311 684.059 -27.2451 c 0,10,11
 664.867 -22.9932 664.867 -22.9932 646.097 7.85547 c 128,-1,12
 627.326 38.7041 627.326 38.7041 631.409 58.6865 c 0,0,1
488.38 27.0869 m 5,13,14
 473.119 13.7373 473.119 13.7373 443.689 2.6123 c 4,15,16
 418.619 -6.28809 418.619 -6.28809 408.81 -6.28809 c 4,17,18
 340.14 -6.28809 340.14 -6.28809 340.14 48.2246 c 4,19,20
 340.14 70.4746 340.14 70.4746 356.489 100.513 c 4,21,22
 375.02 135 375.02 135 399 135 c 4,23,24
 442.6 135 442.6 135 488.38 89.3877 c 5,25,26
 503.64 54.8994 503.64 54.8994 488.38 27.0869 c 5,13,14
217.31 52.1123 m 4,27,28
 217.31 -19.0879 217.31 -19.0879 126.84 -19.0879 c 4,29,30
 95.2305 -19.0879 95.2305 -19.0879 72.3398 -5.7373 c 4,31,32
 46.1797 9.83789 46.1797 9.83789 46.1797 35.4248 c 4,33,34
 46.1797 74.3623 46.1797 74.3623 84.3301 101.062 c 4,35,36
 115.94 123.312 115.94 123.312 148.64 123.312 c 4,37,38
 168.26 123.312 168.26 123.312 192.785 97.7246 c 132,-1,39
 217.31 72.1377 217.31 72.1377 217.31 52.1123 c 4,27,28
EndSplineSet
EndChar

StartChar: twodotenleader
Encoding: 8229 8229 103
Width: 553
VWidth: 0
Flags: W
LayerCount: 2
Fore
SplineSet
488.38 27.0869 m 1,0,1
 473.119 13.7373 473.119 13.7373 443.689 2.6123 c 0,2,3
 418.619 -6.28809 418.619 -6.28809 408.81 -6.28809 c 0,4,5
 340.14 -6.28809 340.14 -6.28809 340.14 48.2246 c 0,6,7
 340.14 70.4746 340.14 70.4746 356.489 100.513 c 0,8,9
 375.02 135 375.02 135 399 135 c 0,10,11
 442.6 135 442.6 135 488.38 89.3877 c 1,12,13
 503.64 54.8994 503.64 54.8994 488.38 27.0869 c 1,0,1
217.31 52.1123 m 0,14,15
 217.31 -19.0879 217.31 -19.0879 126.84 -19.0879 c 0,16,17
 95.2305 -19.0879 95.2305 -19.0879 72.3398 -5.7373 c 0,18,19
 46.1797 9.83789 46.1797 9.83789 46.1797 35.4248 c 0,20,21
 46.1797 74.3623 46.1797 74.3623 84.3301 101.062 c 0,22,23
 115.94 123.312 115.94 123.312 148.64 123.312 c 0,24,25
 168.26 123.312 168.26 123.312 192.785 97.7246 c 128,-1,26
 217.31 72.1377 217.31 72.1377 217.31 52.1123 c 0,14,15
EndSplineSet
EndChar

StartChar: onedotenleader
Encoding: 8228 8228 104
Width: 484
Flags: HW
LayerCount: 2
Fore
SplineSet
378.113 -24.4717 m 5,0,1
 338.853 -17.8359 338.853 -17.8359 301.25 -5.58203 c 5,2,3
 276.902 6.28027 276.902 6.28027 177.791 -8.81348 c 4,4,5
 177.867 -9.25879 177.867 -9.25879 112.178 -26.9238 c 4,6,7
 93.7803 -31.8701 93.7803 -31.8701 65.3682 -27.0918 c 4,8,9
 61.7422 -26.4805 61.7422 -26.4805 40.6299 -2.25879 c 132,-1,10
 19.5186 21.9619 19.5186 21.9619 21.1885 38.3145 c 4,11,12
 25.5605 75.459 25.5605 75.459 80.2617 104.329 c 4,13,14
 116.94 124.652 116.94 124.652 192 118 c 4,15,16
 316.34 108.165 316.34 108.165 318.588 107.807 c 4,17,18
 419.744 91.7207 419.744 91.7207 450.263 59.8867 c 5,19,20
 467.759 40.2314 467.759 40.2314 461.284 23.0947 c 4,21,22
 440.445 -32.0547 440.445 -32.0547 378.113 -24.4717 c 5,0,1
EndSplineSet
EndChar

StartChar: asterisk
Encoding: 42 42 105
Width: 506
Flags: W
LayerCount: 2
Fore
SplineSet
12.0234 326.301 m 1,0,1
 35.6487 348.348 35.6487 348.348 63.3369 350.733 c 0,2,3
 150.648 357.374 150.648 357.374 158.455 362.88 c 1,4,-1
 139.969 386.466 l 2,5,6
 130.005 391.671 130.005 391.671 78.2832 457.224 c 0,7,8
 54 488 54 488 66.8701 528.805 c 0,9,-1
 114 540 l 0,10,11
 140 526 140 526 170 486 c 0,12,-1
 208 434 l 1,13,14
 223 418 223 418 238 402 c 1,15,16
 248.654 414.005 248.654 414.005 271.49 452.173 c 128,-1,17
 294.325 490.341 294.325 490.341 310 508 c 0,18,19
 362.664 567.335 362.664 567.335 386.19 550.909 c 1,20,-1
 411.264 511.894 l 1,21,22
 403.495 478.526 403.495 478.526 375.446 441.481 c 0,23,24
 345.58 402.035 345.58 402.035 343.63 401.339 c 0,25,26
 318.714 392.436 318.714 392.436 299.3 370.036 c 2,27,-1
 296.354 366.637 l 1,28,29
 307.9 365.581 307.9 365.581 314.466 366.798 c 0,30,31
 339.645 372.358 339.645 372.358 368 374 c 0,32,33
 408.408 376.34 408.408 376.34 433.421 371.658 c 0,34,35
 485.063 361.992 485.063 361.992 486.893 360.003 c 0,36,37
 488.109 358.682 488.109 358.682 489.074 331.296 c 0,38,39
 489.593 316.597 489.593 316.597 460.351 305.116 c 128,-1,40
 431.11 293.636 431.11 293.636 371.656 284.941 c 0,41,42
 340.881 280.44 340.881 280.44 308.532 277.3 c 1,43,-1
 322.706 261.833 l 2,44,45
 351.559 230.348 351.559 230.348 400.01 188.637 c 0,46,47
 404.998 184.239 404.998 184.239 409.267 177.599 c 4,48,49
 417.269 165.146 417.269 165.146 423.963 131.183 c 5,50,51
 421.427 118.309 421.427 118.309 413.276 109.125 c 1,52,53
 394 88 394 88 368 94 c 1,54,55
 320.735 140.512 320.735 140.512 306 160 c 0,56,57
 275 201 275 201 244 242 c 1,58,59
 218.028 206.187 218.028 206.187 196 168 c 0,60,61
 160.694 106.795 160.694 106.795 120.464 75.3828 c 1,62,63
 111.62 74.0059 111.62 74.0059 103.403 73.3359 c 1,64,65
 89.4785 74.8203 89.4785 74.8203 70.5264 99.2656 c 1,66,67
 66.0362 140.525 66.0362 140.525 104.424 186.12 c 0,68,69
 138 226 138 226 172.413 267.02 c 1,70,-1
 175.036 270.23 l 1,71,72
 160.727 270.052 160.727 270.052 146.185 270.1 c 0,73,74
 26.6334 270.492 26.6334 270.492 11.8896 285.301 c 1,75,-1
 12.0234 326.301 l 1,0,1
EndSplineSet
EndChar

StartChar: Agrave
Encoding: 192 192 106
Width: 577
Flags: HW
LayerCount: 2
Fore
SplineSet
141.376 1000.5 m 4,0,1
 161.951 965.321 161.951 965.321 274 928 c 132,-1,2
 386.049 890.679 386.049 890.679 411.409 908.675 c 5,3,4
 416.992 938.327 416.992 938.327 404.551 959.596 c 4,5,6
 388.76 986.589 388.76 986.589 284.767 1039.96 c 132,-1,7
 180.772 1093.34 180.772 1093.34 153.338 1082.29 c 4,8,9
 149.191 1080.86 149.191 1080.86 146.002 1077.8 c 4,10,11
 133.88 1066.14 133.88 1066.14 134.518 1036.08 c 4,12,13
 135.155 1011.13 135.155 1011.13 141.376 1000.5 c 4,0,1
410 234 m 1,14,15
 402 234 402 234 398 234 c 0,16,17
 390 234 390 234 307 197 c 1,18,19
 257 176 257 176 207 154 c 1,20,21
 196 97 196 97 184 40 c 0,22,23
 170 -24 170 -24 133 -69 c 1,24,25
 111 -74 111 -74 92 -74 c 0,26,27
 12 -74 12 -74 12 31 c 0,28,29
 12 55 12 55 146 439 c 0,30,31
 286 839 286 839 317 839 c 0,32,33
 376 839 376 839 438 677 c 0,34,35
 491 539 491 539 532 325 c 0,36,37
 559 181 559 181 559 131 c 0,38,39
 559 -11 559 -11 457 25 c 0,40,41
 409 41 409 41 409 174 c 0,42,43
 409 187 409 187 409 208 c 1,44,45
 410 228 410 228 410 234 c 1,14,15
349 551 m 0,46,47
 343 564 343 564 327 588 c 1,48,49
 249 379 249 379 249 354 c 2,50,-1
 249 342 l 1,51,52
 309 355 309 355 397 383 c 1,53,54
 370 509 370 509 349 551 c 0,46,47
EndSplineSet
EndChar

StartChar: Ccedilla
Encoding: 199 199 107
Width: 524
Flags: HW
LayerCount: 2
Fore
SplineSet
284 13 m 5,0,1
 288 72 288 72 335 72 c 4,2,3
 371 72 371 72 402 27 c 5,4,5
 429.066 -16.0459 429.066 -16.0459 432 -33 c 4,6,7
 441.587 -95.6387 441.587 -95.6387 435 -123 c 28,8,9
 423.393 -171.214 423.393 -171.214 393 -195 c 28,10,11
 347 -231 347 -231 297 -231 c 4,12,13
 237.81 -231 237.81 -231 218 -167 c 5,14,15
 220.839 -142.873 220.839 -142.873 286 -117 c 4,16,17
 355.861 -89.2607 355.861 -89.2607 312 -30 c 260,18,19
 281.481 11.2344 281.481 11.2344 284 13 c 5,0,1
244.553 69.2998 m 0,20,21
 121.388 73.5117 121.388 73.5117 52.9629 218.422 c 0,22,23
 1.15527 326.262 1.15527 326.262 5.06543 415.567 c 0,24,25
 10.9297 552.052 10.9297 552.052 81.3105 653.995 c 0,26,27
 167.33 777 167.33 777 312 777 c 0,28,29
 392.155 777 392.155 777 440.053 698.647 c 0,30,31
 476.22 640.515 476.22 640.515 476.22 590.808 c 0,32,33
 476.22 548.683 476.22 548.683 453.737 499.817 c 0,34,35
 428.322 445.055 428.322 445.055 397.043 445.055 c 0,36,37
 314.933 445.055 314.933 445.055 314.933 511.612 c 0,38,39
 314.933 532.675 314.933 532.675 324.219 571.43 c 128,-1,40
 333.505 610.185 333.505 610.185 333.505 620.295 c 0,41,42
 333.505 653.152 333.505 653.152 289.518 653.152 c 0,43,44
 205.452 653.152 205.452 653.152 162.442 542.785 c 0,45,46
 135.072 472.857 135.072 472.857 135.072 415.567 c 0,47,48
 135.072 345.64 135.072 345.64 159.51 279.925 c 0,49,50
 193.723 185.564 193.723 185.564 263.125 185.564 c 0,51,52
 315.91 185.564 315.91 185.564 349.146 203.257 c 0,53,54
 362.83 210.84 362.83 210.84 399.975 243.697 c 0,55,56
 431.255 271.5 431.255 271.5 465.468 284.137 c 1,57,58
 493.815 259.705 493.815 259.705 493.815 227.689 c 0,59,60
 493.815 148.495 493.815 148.495 395.088 103 c 0,61,62
 317.865 66.7725 317.865 66.7725 244.553 69.2998 c 0,20,21
EndSplineSet
EndChar

StartChar: Acircumflex
Encoding: 194 194 108
Width: 598
Flags: HW
LayerCount: 2
Fore
SplineSet
328.719 1077.94 m 4,0,1
 332.447 1078.01 332.447 1078.01 340.721 1077.57 c 4,2,3
 366.774 1077.03 366.774 1077.03 378.625 1059.25 c 4,4,5
 383.629 1050.76 383.629 1050.76 421.977 987.055 c 132,-1,6
 460.325 923.35 460.325 923.35 479.202 889.312 c 5,7,8
 486.526 880.101 486.526 880.101 486.31 867.572 c 132,-1,9
 486.092 855.043 486.092 855.043 478.281 846.219 c 4,10,11
 464.158 830.423 464.158 830.423 423.875 830.089 c 5,12,13
 418.644 832.538 418.644 832.538 405.156 844.531 c 4,14,15
 388.381 860.891 388.381 860.891 374.882 881.303 c 132,-1,16
 361.383 901.715 361.383 901.715 345.03 932.728 c 132,-1,17
 328.677 963.74 328.677 963.74 322.219 974.656 c 5,18,19
 315.055 961.851 315.055 961.851 308.698 947.588 c 132,-1,20
 302.342 933.326 302.342 933.326 294.341 913.197 c 132,-1,21
 286.341 893.068 286.341 893.068 282.981 885.141 c 4,22,23
 281.516 881.959 281.516 881.959 277.129 871.882 c 132,-1,24
 272.742 861.806 272.742 861.806 270.353 857.086 c 132,-1,25
 267.963 852.367 267.963 852.367 263.6 844.742 c 132,-1,26
 259.237 837.118 259.237 837.118 254.322 831.687 c 132,-1,27
 249.407 826.254 249.407 826.254 243.469 821.906 c 4,28,29
 227.258 809.135 227.258 809.135 204.027 816.673 c 5,30,31
 182.743 819.484 182.743 819.484 175.312 835.094 c 4,32,33
 167.565 849.322 167.565 849.322 179.656 873.698 c 4,34,35
 233.846 989.706 233.846 989.706 272.462 1037.66 c 5,36,37
 303.736 1074.89 303.736 1074.89 328.719 1077.94 c 4,0,1
410 234 m 1,38,39
 402 234 402 234 398 234 c 0,40,41
 390 234 390 234 307 197 c 1,42,43
 257 176 257 176 207 154 c 1,44,45
 196 97 196 97 184 40 c 0,46,47
 170 -24 170 -24 133 -69 c 1,48,49
 111 -74 111 -74 92 -74 c 0,50,51
 12 -74 12 -74 12 31 c 0,52,53
 12 55 12 55 146 439 c 0,54,55
 286 839 286 839 317 839 c 0,56,57
 376 839 376 839 438 677 c 0,58,59
 491 539 491 539 532 325 c 0,60,61
 559 181 559 181 559 131 c 0,62,63
 559 -11 559 -11 457 25 c 0,64,65
 409 41 409 41 409 174 c 0,66,67
 409 187 409 187 409 208 c 1,68,69
 410 228 410 228 410 234 c 1,38,39
349 551 m 0,70,71
 343 564 343 564 327 588 c 1,72,73
 249 379 249 379 249 354 c 2,74,-1
 249 342 l 1,75,76
 309 355 309 355 397 383 c 1,77,78
 370 509 370 509 349 551 c 0,70,71
EndSplineSet
EndChar

StartChar: Atilde
Encoding: 195 195 109
Width: 598
Flags: HW
LayerCount: 2
Fore
SplineSet
485.312 1060.65 m 4,0,1
 512.026 1056.28 512.026 1056.28 532.529 1035.34 c 4,2,3
 552.284 1015.04 552.284 1015.04 544.993 997.688 c 5,4,5
 522.064 958.466 522.064 958.466 490.607 934.782 c 4,6,7
 466.462 917.176 466.462 917.176 436.749 910.619 c 132,-1,8
 407.035 904.062 407.035 904.062 379.255 911.938 c 5,9,10
 360.985 918.275 360.985 918.275 332.957 939.918 c 132,-1,11
 304.928 961.562 304.928 961.562 291.14 968.13 c 5,12,13
 289.199 966.343 289.199 966.343 277.193 956.2 c 132,-1,14
 265.186 946.059 265.186 946.059 259.724 939.802 c 5,15,16
 258.134 937.16 258.134 937.16 253.896 933.664 c 132,-1,17
 249.657 930.167 249.657 930.167 248.317 928.596 c 4,18,19
 245.419 925.689 245.419 925.689 241.106 917.596 c 132,-1,20
 236.794 909.502 236.794 909.502 232.881 906.441 c 5,21,22
 212.586 895.365 212.586 895.365 183.229 908.1 c 4,23,24
 157.529 919.376 157.529 919.376 154.173 936.385 c 5,25,26
 153.941 943.768 153.941 943.768 155.975 957.539 c 4,27,28
 170.279 1012.83 170.279 1012.83 231.559 1047.64 c 4,29,30
 270.643 1070.23 270.643 1070.23 310.991 1062.47 c 4,31,32
 329.078 1058.92 329.078 1058.92 356.704 1040.1 c 132,-1,33
 384.328 1021.27 384.328 1021.27 390.908 1017.96 c 4,34,35
 413.2 1005.83 413.2 1005.83 424.562 1011.99 c 5,36,37
 431.997 1017.74 431.997 1017.74 442.206 1032 c 132,-1,38
 452.415 1046.27 452.415 1046.27 454.275 1048.46 c 5,39,40
 458.301 1056.07 458.301 1056.07 467.175 1059.18 c 132,-1,41
 476.049 1062.3 476.049 1062.3 485.312 1060.65 c 4,0,1
410 234 m 1,42,43
 402 234 402 234 398 234 c 0,44,45
 390 234 390 234 307 197 c 1,46,47
 257 176 257 176 207 154 c 1,48,49
 196 97 196 97 184 40 c 0,50,51
 170 -24 170 -24 133 -69 c 1,52,53
 111 -74 111 -74 92 -74 c 0,54,55
 12 -74 12 -74 12 31 c 0,56,57
 12 55 12 55 146 439 c 0,58,59
 286 839 286 839 317 839 c 0,60,61
 376 839 376 839 438 677 c 0,62,63
 491 539 491 539 532 325 c 0,64,65
 559 181 559 181 559 131 c 0,66,67
 559 -11 559 -11 457 25 c 0,68,69
 409 41 409 41 409 174 c 0,70,71
 409 187 409 187 409 208 c 1,72,73
 410 228 410 228 410 234 c 1,42,43
349 551 m 0,74,75
 343 564 343 564 327 588 c 1,76,77
 249 379 249 379 249 354 c 2,78,-1
 249 342 l 1,79,80
 309 355 309 355 397 383 c 1,81,82
 370 509 370 509 349 551 c 0,74,75
EndSplineSet
EndChar

StartChar: Adieresis
Encoding: 196 196 110
Width: 598
Flags: HW
LayerCount: 2
Fore
SplineSet
385.521 948.472 m 4,0,1
 385.914 975.208 385.914 975.208 398.803 992.157 c 4,2,3
 414.261 1011.92 414.261 1011.92 441.216 1011.41 c 4,4,5
 460.591 1011.05 460.591 1011.05 485.666 997.201 c 4,6,7
 518.267 979.394 518.267 979.394 517.873 952.657 c 4,8,9
 517.326 915.418 517.326 915.418 478 877 c 5,10,11
 442.409 863.345 442.409 863.345 413.993 879.164 c 5,12,13
 401.582 894.681 401.582 894.681 393.475 916.325 c 132,-1,14
 385.366 937.969 385.366 937.969 385.521 948.472 c 4,0,1
129.212 938.032 m 4,15,16
 129.591 963.812 129.591 963.812 141.679 983.644 c 4,17,18
 157.234 1010.09 157.234 1010.09 185.033 1009.57 c 4,19,20
 222.099 1008.87 222.099 1008.87 244.351 975.018 c 4,21,22
 261.648 947.946 261.648 947.946 261.255 921.21 c 4,23,24
 260.946 900.203 260.946 900.203 238.301 878.663 c 132,-1,25
 215.654 857.122 215.654 857.122 194.595 857.521 c 4,26,27
 128.047 858.778 128.047 858.778 129.212 938.032 c 4,15,16
410 234 m 1,28,29
 402 234 402 234 398 234 c 0,30,31
 390 234 390 234 307 197 c 1,32,33
 257 176 257 176 207 154 c 1,34,35
 196 97 196 97 184 40 c 0,36,37
 170 -24 170 -24 133 -69 c 1,38,39
 111 -74 111 -74 92 -74 c 0,40,41
 12 -74 12 -74 12 31 c 0,42,43
 12 55 12 55 146 439 c 0,44,45
 286 839 286 839 317 839 c 0,46,47
 376 839 376 839 438 677 c 0,48,49
 491 539 491 539 532 325 c 0,50,51
 559 181 559 181 559 131 c 0,52,53
 559 -11 559 -11 457 25 c 0,54,55
 409 41 409 41 409 174 c 0,56,57
 409 187 409 187 409 208 c 1,58,59
 410 228 410 228 410 234 c 1,28,29
349 551 m 0,60,61
 343 564 343 564 327 588 c 1,62,63
 249 379 249 379 249 354 c 2,64,-1
 249 342 l 1,65,66
 309 355 309 355 397 383 c 1,67,68
 370 509 370 509 349 551 c 0,60,61
EndSplineSet
EndChar

StartChar: Aring
Encoding: 197 197 111
Width: 598
Flags: HW
LayerCount: 2
Fore
SplineSet
490.166 967.061 m 5,0,1
 497.006 924.42 497.006 924.42 435 858 c 132,-1,2
 372.993 791.58 372.993 791.58 323.688 791.58 c 4,3,4
 276.113 791.58 276.113 791.58 235.443 818.64 c 5,5,6
 189.188 848.16 189.188 848.16 181.822 894.08 c 4,7,8
 173.011 949.021 173.011 949.021 209.819 1026.92 c 4,9,10
 252.912 1119.58 252.912 1119.58 322.978 1119.58 c 4,11,12
 325.572 1119.58 325.572 1119.58 337.983 1120.4 c 132,-1,13
 350.394 1121.22 350.394 1121.22 359.909 1121.22 c 4,14,15
 441.219 1121.22 441.219 1121.22 473.856 1068.74 c 5,16,17
 488.258 1049.06 488.258 1049.06 492.336 1023.64 c 4,18,19
 496.677 996.58 496.677 996.58 490.166 967.061 c 5,0,1
400.097 1003.33 m 4,20,21
 385.404 1036.49 385.404 1036.49 372.298 1036.49 c 4,22,23
 368.849 1036.49 368.849 1036.49 361.784 1033.04 c 132,-1,24
 354.721 1029.58 354.721 1029.58 349.892 1029.58 c 4,25,26
 322.298 1029.58 322.298 1029.58 292.36 995.041 c 4,27,28
 260.084 957.735 260.084 957.735 265.958 919.048 c 4,29,30
 271.203 884.505 271.203 884.505 305.695 884.505 c 4,31,32
 328.46 884.505 328.46 884.505 367.05 921.12 c 5,33,34
 407.875 961.19 407.875 961.19 402.945 993.659 c 4,35,36
 402.211 998.495 402.211 998.495 400.097 1003.33 c 4,20,21
410 234 m 1,37,38
 402 234 402 234 398 234 c 0,39,40
 390 234 390 234 307 197 c 1,41,42
 257 176 257 176 207 154 c 1,43,44
 196 97 196 97 184 40 c 0,45,46
 170 -24 170 -24 133 -69 c 1,47,48
 111 -74 111 -74 92 -74 c 0,49,50
 -49.4702 -74 -49.4702 -74 12 31 c 0,51,52
 27.3443 57.2104 27.3443 57.2104 146 439 c 0,53,54
 247.35 771 247.35 771 318 771 c 0,55,56
 402.025 771 402.025 771 438 677 c 0,57,58
 491 539 491 539 532 325 c 0,59,60
 559 181 559 181 559 131 c 0,61,62
 559 -9 559 -9 457 25 c 0,63,64
 409 41 409 41 409 174 c 0,65,66
 409 187 409 187 409 208 c 1,67,68
 410 228 410 228 410 234 c 1,37,38
349 551 m 0,69,70
 343 564 343 564 327 588 c 1,71,72
 249 379 249 379 249 354 c 2,73,-1
 249 342 l 1,74,75
 309 355 309 355 397 383 c 1,76,77
 370 509 370 509 349 551 c 0,69,70
EndSplineSet
EndChar

StartChar: Egrave
Encoding: 200 200 112
Width: 567
Flags: HW
LayerCount: 2
Fore
SplineSet
128.376 922.495 m 4,0,1
 148.951 887.321 148.951 887.321 261 850 c 132,-1,2
 373.049 812.679 373.049 812.679 398.409 830.675 c 5,3,4
 403.992 860.327 403.992 860.327 391.551 881.596 c 4,5,6
 375.76 908.589 375.76 908.589 271.767 961.96 c 132,-1,7
 167.772 1015.34 167.772 1015.34 140.338 1004.29 c 4,8,9
 136.191 1002.86 136.191 1002.86 133.002 999.8 c 4,10,11
 120.88 988.14 120.88 988.14 121.518 958.08 c 4,12,13
 122.155 933.13 122.155 933.13 128.376 922.495 c 4,0,1
166 402 m 1,14,15
 191 408 191 408 307 455 c 1,16,17
 409 495 409 495 427 495 c 2,18,-1
 516 495 l 1,19,-1
 516 409 l 1,20,21
 417 334 417 334 307 296 c 1,22,23
 253 281 253 281 147 249 c 1,24,25
 145 239 145 239 145 199 c 0,26,27
 145 131 145 131 163 104.5 c 128,-1,28
 181 78 181 78 226 78 c 0,29,30
 277 78 277 78 363 114 c 1,31,32
 488 168 488 168 497 171 c 1,33,-1
 524 150 l 2,34,35
 523 152 523 152 523 154 c 1,36,37
 535 130 535 130 535 113 c 0,38,39
 535 69 535 69 462 21 c 0,40,41
 407 -14 407 -14 323 -45 c 0,42,43
 253 -70 253 -70 235 -70 c 0,44,45
 89 -70 89 -70 39 45 c 0,46,47
 10 111 10 111 10 251 c 0,48,49
 10 352 10 352 39 503 c 0,50,51
 82 724 82 724 156 724 c 0,52,53
 166 724 166 724 182.5 719.5 c 128,-1,54
 199 715 199 715 208 715 c 0,55,56
 238 715 238 715 361 761 c 0,57,58
 490 810 490 810 547 810 c 0,59,60
 571 810 571 810 587.5 793 c 128,-1,61
 604 776 604 776 604 757 c 0,62,63
 604 742 604 742 593 736 c 1,64,65
 543 671 543 671 458 641 c 1,66,67
 378 619 378 619 298 598 c 0,68,69
 234 581 234 581 208 549 c 1,70,71
 170 505 170 505 166 402 c 1,14,15
EndSplineSet
EndChar

StartChar: Ecircumflex
Encoding: 202 202 113
Width: 567
Flags: HW
LayerCount: 2
Fore
SplineSet
328.719 1077.94 m 4,0,1
 332.447 1078.01 332.447 1078.01 340.721 1077.57 c 4,2,3
 366.774 1077.03 366.774 1077.03 378.625 1059.25 c 4,4,5
 383.629 1050.76 383.629 1050.76 421.977 987.055 c 132,-1,6
 460.325 923.35 460.325 923.35 479.202 889.312 c 5,7,8
 486.526 880.101 486.526 880.101 486.31 867.572 c 132,-1,9
 486.092 855.043 486.092 855.043 478.281 846.219 c 4,10,11
 464.158 830.423 464.158 830.423 423.875 830.089 c 5,12,13
 418.644 832.538 418.644 832.538 405.156 844.531 c 4,14,15
 388.381 860.891 388.381 860.891 374.882 881.303 c 132,-1,16
 361.383 901.715 361.383 901.715 345.03 932.728 c 132,-1,17
 328.677 963.74 328.677 963.74 322.219 974.656 c 5,18,19
 315.055 961.851 315.055 961.851 308.698 947.588 c 132,-1,20
 302.342 933.326 302.342 933.326 294.341 913.197 c 132,-1,21
 286.341 893.068 286.341 893.068 282.981 885.141 c 4,22,23
 281.516 881.959 281.516 881.959 277.129 871.882 c 132,-1,24
 272.742 861.806 272.742 861.806 270.353 857.086 c 132,-1,25
 267.963 852.367 267.963 852.367 263.6 844.742 c 132,-1,26
 259.237 837.118 259.237 837.118 254.322 831.687 c 132,-1,27
 249.407 826.254 249.407 826.254 243.469 821.906 c 4,28,29
 227.258 809.135 227.258 809.135 204.027 816.673 c 5,30,31
 182.743 819.484 182.743 819.484 175.312 835.094 c 4,32,33
 167.565 849.322 167.565 849.322 179.656 873.698 c 4,34,35
 233.846 989.706 233.846 989.706 272.462 1037.66 c 5,36,37
 303.736 1074.89 303.736 1074.89 328.719 1077.94 c 4,0,1
166 402 m 1,38,39
 191 408 191 408 307 455 c 1,40,41
 409 495 409 495 427 495 c 2,42,-1
 516 495 l 1,43,-1
 516 409 l 1,44,45
 417 334 417 334 307 296 c 1,46,47
 253 281 253 281 147 249 c 1,48,49
 145 239 145 239 145 199 c 0,50,51
 145 131 145 131 163 104.5 c 128,-1,52
 181 78 181 78 226 78 c 0,53,54
 277 78 277 78 363 114 c 1,55,56
 488 168 488 168 497 171 c 1,57,-1
 524 150 l 2,58,59
 523 152 523 152 523 154 c 1,60,61
 535 130 535 130 535 113 c 0,62,63
 535 69 535 69 462 21 c 0,64,65
 407 -14 407 -14 323 -45 c 0,66,67
 253 -70 253 -70 235 -70 c 0,68,69
 89 -70 89 -70 39 45 c 0,70,71
 10 111 10 111 10 251 c 0,72,73
 10 352 10 352 39 503 c 0,74,75
 82 724 82 724 156 724 c 0,76,77
 166 724 166 724 182.5 719.5 c 128,-1,78
 199 715 199 715 208 715 c 0,79,80
 238 715 238 715 361 761 c 0,81,82
 490 810 490 810 547 810 c 0,83,84
 571 810 571 810 587.5 793 c 128,-1,85
 604 776 604 776 604 757 c 0,86,87
 604 742 604 742 593 736 c 1,88,89
 543 671 543 671 458 641 c 1,90,91
 378 619 378 619 298 598 c 0,92,93
 234 581 234 581 208 549 c 1,94,95
 170 505 170 505 166 402 c 1,38,39
EndSplineSet
EndChar

StartChar: Edieresis
Encoding: 203 203 114
Width: 567
Flags: HW
LayerCount: 2
Fore
SplineSet
385.521 948.472 m 4,0,1
 385.914 975.208 385.914 975.208 398.803 992.157 c 4,2,3
 414.261 1011.92 414.261 1011.92 441.216 1011.41 c 4,4,5
 460.591 1011.05 460.591 1011.05 485.666 997.201 c 4,6,7
 518.267 979.394 518.267 979.394 517.873 952.657 c 4,8,9
 517.326 915.418 517.326 915.418 478 877 c 5,10,11
 442.409 863.345 442.409 863.345 413.993 879.164 c 5,12,13
 401.582 894.681 401.582 894.681 393.475 916.325 c 132,-1,14
 385.366 937.969 385.366 937.969 385.521 948.472 c 4,0,1
129.212 938.032 m 4,15,16
 129.591 963.812 129.591 963.812 141.679 983.644 c 4,17,18
 157.234 1010.09 157.234 1010.09 185.033 1009.57 c 4,19,20
 222.099 1008.87 222.099 1008.87 244.351 975.018 c 4,21,22
 261.648 947.946 261.648 947.946 261.255 921.21 c 4,23,24
 260.946 900.203 260.946 900.203 238.301 878.663 c 132,-1,25
 215.654 857.122 215.654 857.122 194.595 857.521 c 4,26,27
 128.047 858.778 128.047 858.778 129.212 938.032 c 4,15,16
166 402 m 1,28,29
 191 408 191 408 307 455 c 1,30,31
 409 495 409 495 427 495 c 2,32,-1
 516 495 l 1,33,-1
 516 409 l 1,34,35
 417 334 417 334 307 296 c 1,36,37
 253 281 253 281 147 249 c 1,38,39
 145 239 145 239 145 199 c 0,40,41
 145 131 145 131 163 104.5 c 128,-1,42
 181 78 181 78 226 78 c 0,43,44
 277 78 277 78 363 114 c 1,45,46
 488 168 488 168 497 171 c 1,47,-1
 524 150 l 2,48,49
 523 152 523 152 523 154 c 1,50,51
 535 130 535 130 535 113 c 0,52,53
 535 69 535 69 462 21 c 0,54,55
 407 -14 407 -14 323 -45 c 0,56,57
 253 -70 253 -70 235 -70 c 0,58,59
 89 -70 89 -70 39 45 c 0,60,61
 10 111 10 111 10 251 c 0,62,63
 10 352 10 352 39 503 c 0,64,65
 82 724 82 724 156 724 c 0,66,67
 166 724 166 724 182.5 719.5 c 128,-1,68
 199 715 199 715 208 715 c 0,69,70
 238 715 238 715 361 761 c 0,71,72
 490 810 490 810 547 810 c 0,73,74
 571 810 571 810 587.5 793 c 128,-1,75
 604 776 604 776 604 757 c 0,76,77
 604 742 604 742 593 736 c 1,78,79
 543 671 543 671 458 641 c 1,80,81
 378 619 378 619 298 598 c 0,82,83
 234 581 234 581 208 549 c 1,84,85
 170 505 170 505 166 402 c 1,28,29
EndSplineSet
EndChar

StartChar: Igrave
Encoding: 204 204 115
Width: 426
Flags: HW
LayerCount: 2
Fore
SplineSet
-8.39062 983.535 m 4,0,1
 12.1846 948.361 12.1846 948.361 124.233 911.04 c 132,-1,2
 236.282 873.719 236.282 873.719 261.643 891.715 c 5,3,4
 267.226 921.367 267.226 921.367 254.784 942.636 c 4,5,6
 238.993 969.629 238.993 969.629 135 1023 c 132,-1,7
 31.0059 1076.38 31.0059 1076.38 3.57129 1065.33 c 4,8,9
 -0.575195 1063.9 -0.575195 1063.9 -3.76465 1060.84 c 4,10,11
 -15.8867 1049.18 -15.8867 1049.18 -15.249 1019.12 c 4,12,13
 -14.6113 994.17 -14.6113 994.17 -8.39062 983.535 c 4,0,1
309.156 822.685 m 0,14,15
 346.377 822.869 346.377 822.869 357.125 815.271 c 0,16,17
 361.84 812.188 361.84 812.188 364.844 807.681 c 0,18,19
 376.192 790.653 376.192 790.653 368.5 757.066 c 0,20,21
 362.061 729.521 362.061 729.521 352.375 719.293 c 0,22,23
 340.285 706.528 340.285 706.528 309.593 701.026 c 0,24,25
 283.281 696.31 283.281 696.31 226.281 690.28 c 1,26,27
 253.492 570.586 253.492 570.586 258 447 c 0,28,29
 264.463 270.008 264.463 270.008 260.47 132.072 c 1,30,31
 308.599 138.677 308.599 138.677 339 137.889 c 0,32,33
 370.537 137.071 370.537 137.071 383.844 128.276 c 1,34,-1
 383.906 128.241 l 2,35,36
 388.938 125.19 388.938 125.19 392.375 120.58 c 0,37,38
 405.318 103.219 405.318 103.219 397.719 69.7539 c 0,39,40
 391.329 42.2422 391.329 42.2422 380.938 32.2637 c 0,41,42
 364.144 16.1338 364.144 16.1338 319.093 6.93848 c 0,43,44
 274.377 -2.18848 274.377 -2.18848 201.75 -4.58887 c 128,-1,45
 129.14 -6.99023 129.14 -6.99023 86.0625 -1.50293 c 0,46,47
 42.5293 4.04199 42.5293 4.04199 28.875 17.8271 c 0,48,49
 28.2383 18.4814 28.2383 18.4814 28.2188 19.459 c 0,50,51
 27.1885 55.292 27.1885 55.292 47.75 75.0381 c 0,52,53
 57.9189 84.8057 57.9189 84.8057 85.5 94.4756 c 0,54,55
 112.018 103.774 112.018 103.774 155.812 113.31 c 1,56,57
 151.068 235.05 151.068 235.05 138.031 442.211 c 0,58,59
 126.243 625.718 126.243 625.718 124.406 683.61 c 1,60,61
 84.3779 681.263 84.3779 681.263 61.1562 683.61 c 0,62,63
 36.6152 686.094 36.6152 686.094 29.5 694.004 c 0,64,65
 28.9131 694.661 28.9131 694.661 28.9062 695.6 c 0,66,67
 28.791 742.94 28.791 742.94 48.25 763.487 c 0,68,69
 60.3369 776.248 60.3369 776.248 79.9062 783.137 c 0,70,71
 99.1279 789.906 99.1279 789.906 162.594 803.957 c 0,72,73
 245.623 822.341 245.623 822.341 309.156 822.685 c 0,14,15
EndSplineSet
EndChar

StartChar: Icircumflex
Encoding: 206 206 116
Width: 426
Flags: HW
LayerCount: 2
Fore
SplineSet
212.062 1116.24 m 4,0,1
 215.791 1116.31 215.791 1116.31 224.064 1115.87 c 4,2,3
 250.118 1115.33 250.118 1115.33 261.969 1097.55 c 4,4,5
 266.973 1089.06 266.973 1089.06 305.32 1025.36 c 132,-1,6
 343.669 961.651 343.669 961.651 362.546 927.613 c 5,7,8
 369.87 918.402 369.87 918.402 369.653 905.874 c 132,-1,9
 369.436 893.345 369.436 893.345 361.625 884.521 c 4,10,11
 347.502 868.725 347.502 868.725 307.219 868.391 c 5,12,13
 301.987 870.84 301.987 870.84 288.5 882.833 c 4,14,15
 271.725 899.192 271.725 899.192 258.226 919.604 c 132,-1,16
 244.727 940.017 244.727 940.017 228.374 971.029 c 132,-1,17
 212.021 1002.04 212.021 1002.04 205.562 1012.96 c 5,18,19
 198.398 1000.15 198.398 1000.15 192.042 985.89 c 132,-1,20
 185.686 971.628 185.686 971.628 177.685 951.499 c 132,-1,21
 169.685 931.37 169.685 931.37 166.325 923.442 c 4,22,23
 164.859 920.261 164.859 920.261 160.473 910.184 c 132,-1,24
 156.086 900.107 156.086 900.107 153.696 895.388 c 132,-1,25
 151.307 890.669 151.307 890.669 146.943 883.044 c 132,-1,26
 142.581 875.42 142.581 875.42 137.666 869.988 c 132,-1,27
 132.751 864.556 132.751 864.556 126.812 860.208 c 4,28,29
 110.602 847.437 110.602 847.437 87.3711 854.975 c 5,30,31
 66.0869 857.786 66.0869 857.786 58.6562 873.396 c 4,32,33
 50.9092 887.624 50.9092 887.624 63 912 c 4,34,35
 117.189 1028.01 117.189 1028.01 155.806 1075.96 c 5,36,37
 187.08 1113.19 187.08 1113.19 212.062 1116.24 c 4,0,1
309.156 822.685 m 0,38,39
 346.377 822.869 346.377 822.869 357.125 815.271 c 0,40,41
 361.84 812.188 361.84 812.188 364.844 807.681 c 0,42,43
 376.192 790.653 376.192 790.653 368.5 757.066 c 0,44,45
 362.061 729.521 362.061 729.521 352.375 719.293 c 0,46,47
 340.285 706.528 340.285 706.528 309.593 701.026 c 0,48,49
 283.281 696.31 283.281 696.31 226.281 690.28 c 1,50,51
 253.492 570.586 253.492 570.586 258 447 c 0,52,53
 264.463 270.008 264.463 270.008 260.47 132.072 c 1,54,55
 308.599 138.677 308.599 138.677 339 137.889 c 0,56,57
 370.537 137.071 370.537 137.071 383.844 128.276 c 1,58,-1
 383.906 128.241 l 2,59,60
 388.938 125.19 388.938 125.19 392.375 120.58 c 0,61,62
 405.318 103.219 405.318 103.219 397.719 69.7539 c 0,63,64
 391.329 42.2422 391.329 42.2422 380.938 32.2637 c 0,65,66
 364.144 16.1338 364.144 16.1338 319.093 6.93848 c 0,67,68
 274.377 -2.18848 274.377 -2.18848 201.75 -4.58887 c 128,-1,69
 129.14 -6.99023 129.14 -6.99023 86.0625 -1.50293 c 0,70,71
 42.5293 4.04199 42.5293 4.04199 28.875 17.8271 c 0,72,73
 28.2383 18.4814 28.2383 18.4814 28.2188 19.459 c 0,74,75
 27.1885 55.292 27.1885 55.292 47.75 75.0381 c 0,76,77
 57.9189 84.8057 57.9189 84.8057 85.5 94.4756 c 0,78,79
 112.018 103.774 112.018 103.774 155.812 113.31 c 1,80,81
 151.068 235.05 151.068 235.05 138.031 442.211 c 0,82,83
 126.243 625.718 126.243 625.718 124.406 683.61 c 1,84,85
 84.3779 681.263 84.3779 681.263 61.1562 683.61 c 0,86,87
 36.6152 686.094 36.6152 686.094 29.5 694.004 c 0,88,89
 28.9131 694.661 28.9131 694.661 28.9062 695.6 c 0,90,91
 28.791 742.94 28.791 742.94 48.25 763.487 c 0,92,93
 60.3369 776.248 60.3369 776.248 79.9062 783.137 c 0,94,95
 99.1279 789.906 99.1279 789.906 162.594 803.957 c 0,96,97
 245.623 822.341 245.623 822.341 309.156 822.685 c 0,38,39
EndSplineSet
EndChar

StartChar: Idieresis
Encoding: 207 207 117
Width: 426
Flags: HW
LayerCount: 2
Fore
SplineSet
309.156 822.685 m 4,0,1
 346.377 822.869 346.377 822.869 357.125 815.271 c 4,2,3
 361.84 812.188 361.84 812.188 364.844 807.681 c 4,4,5
 376.192 790.653 376.192 790.653 368.5 757.066 c 4,6,7
 362.061 729.521 362.061 729.521 352.375 719.293 c 4,8,9
 340.285 706.528 340.285 706.528 309.593 701.026 c 4,10,11
 283.281 696.31 283.281 696.31 226.281 690.28 c 5,12,13
 253.492 570.586 253.492 570.586 258 447 c 4,14,15
 264.463 270.008 264.463 270.008 260.47 132.072 c 5,16,17
 308.599 138.677 308.599 138.677 339 137.889 c 4,18,19
 370.537 137.071 370.537 137.071 383.844 128.276 c 5,20,-1
 383.906 128.241 l 6,21,22
 388.938 125.19 388.938 125.19 392.375 120.58 c 4,23,24
 405.318 103.219 405.318 103.219 397.719 69.7539 c 4,25,26
 391.329 42.2422 391.329 42.2422 380.938 32.2637 c 4,27,28
 364.144 16.1338 364.144 16.1338 319.093 6.93848 c 4,29,30
 274.377 -2.18848 274.377 -2.18848 201.75 -4.58887 c 132,-1,31
 129.14 -6.99023 129.14 -6.99023 86.0625 -1.50293 c 4,32,33
 42.5293 4.04199 42.5293 4.04199 28.875 17.8271 c 4,34,35
 28.2383 18.4814 28.2383 18.4814 28.2188 19.459 c 4,36,37
 27.1885 55.292 27.1885 55.292 47.75 75.0381 c 4,38,39
 57.9189 84.8057 57.9189 84.8057 85.5 94.4756 c 4,40,41
 112.018 103.774 112.018 103.774 155.812 113.31 c 5,42,43
 151.068 235.05 151.068 235.05 138.031 442.211 c 4,44,45
 126.243 625.718 126.243 625.718 124.406 683.61 c 5,46,47
 84.3779 681.263 84.3779 681.263 61.1562 683.61 c 4,48,49
 36.6152 686.094 36.6152 686.094 29.5 694.004 c 4,50,51
 28.9131 694.661 28.9131 694.661 28.9062 695.6 c 4,52,53
 28.791 742.94 28.791 742.94 48.25 763.487 c 4,54,55
 60.3369 776.248 60.3369 776.248 79.9062 783.137 c 4,56,57
 99.1279 789.906 99.1279 789.906 162.594 803.957 c 4,58,59
 245.623 822.341 245.623 822.341 309.156 822.685 c 4,0,1
EndSplineSet
EndChar

StartChar: Eth
Encoding: 208 208 118
Width: 611
Flags: HW
LayerCount: 2
Fore
SplineSet
194 673 m 0,0,1
 175 673 175 673 170 657 c 0,2,3
 168 651 168 651 168 623 c 0,4,5
 168 604.967 168 604.967 186.918 450.006 c 1,6,7
 201.383 453.846 201.383 453.846 208.881 455.513 c 0,8,9
 216.582 457.225 216.582 457.225 251.606 476.885 c 128,-1,10
 286.632 496.545 286.632 496.545 294.332 498.256 c 0,11,12
 331.873 506.598 331.873 506.598 343.485 490.704 c 0,13,14
 346.25 487.359 346.25 487.359 355.192 447.118 c 0,15,16
 366.214 402.059 366.214 402.059 271.977 353.405 c 0,17,18
 239.594 336.105 239.594 336.105 203.223 321.991 c 1,19,20
 218.042 210.75 218.042 210.75 231 133 c 1,21,22
 308 166 308 166 383 261 c 0,23,24
 463 363 463 363 460 446 c 1,25,26
 458 553 458 553 381 615 c 0,27,28
 308.994 672.992 308.994 672.992 194 673 c 0,0,1
99 -79 m 0,29,30
 85 -78 85 -78 69.5 -73 c 128,-1,31
 54 -68 54 -68 35 -68 c 1,32,-1
 35 23 l 1,33,34
 45 35 45 35 61.5 46 c 2,35,-1
 94.5 68.5 l 2,36,37
 111 80 111 80 111 85 c 0,38,39
 111 88 111 88 109 91 c 1,40,-1
 82.8877 286.32 l 1,41,42
 -14.7053 265.076 -14.7053 265.076 -31.916 284.555 c 1,43,-1
 -45.8887 347.432 l 1,44,45
 -32.1348 390.077 -32.1348 390.077 -10.958 394.783 c 0,46,47
 3.90171 398.086 3.90171 398.086 65.5891 415.714 c 1,48,-1
 34 652 l 1,49,50
 20 705 20 705 20 736 c 0,51,52
 20 811 20 811 116 818 c 0,53,54
 135 820 135 820 212 821 c 0,55,56
 324 822 324 822 447 724 c 0,57,58
 582 616 582 616 595 477 c 0,59,60
 604 380 604 380 513 239 c 0,61,62
 429 108 429 108 309 13 c 0,63,64
 183 -87 183 -87 99 -79 c 0,29,30
EndSplineSet
EndChar

StartChar: Ograve
Encoding: 210 210 119
Width: 663
Flags: HW
LayerCount: 2
Fore
SplineSet
204.609 956.535 m 4,0,1
 225.185 921.361 225.185 921.361 337.233 884.04 c 132,-1,2
 449.282 846.719 449.282 846.719 474.643 864.715 c 5,3,4
 480.226 894.367 480.226 894.367 467.784 915.636 c 4,5,6
 451.993 942.629 451.993 942.629 348 996 c 132,-1,7
 244.006 1049.38 244.006 1049.38 216.571 1038.33 c 4,8,9
 212.425 1036.9 212.425 1036.9 209.235 1033.84 c 4,10,11
 197.113 1022.18 197.113 1022.18 197.751 992.12 c 4,12,13
 198.389 967.17 198.389 967.17 204.609 956.535 c 4,0,1
239 2 m 0,14,15
 22 2 22 2 22 312 c 0,16,17
 22 473 22 473 105 611 c 0,18,19
 207 782 207 782 379 782 c 0,20,21
 499 782 499 782 575.5 703 c 128,-1,22
 652 624 652 624 652 496 c 0,23,24
 652 419 652 419 590 301 c 0,25,26
 525 179 525 179 435 97 c 1,27,28
 333 2 333 2 239 2 c 0,14,15
426 636 m 0,29,30
 422 636 422 636 409 626.5 c 128,-1,31
 396 617 396 617 379 617 c 0,32,33
 351 617 351 617 336 638 c 1,34,-1
 334 640 l 1,35,36
 253 637 253 637 202 526 c 0,37,38
 157 427 157 427 157 298 c 0,39,40
 157 224 157 224 166 192 c 0,41,42
 184 129 184 129 239 130 c 0,43,44
 329 132 329 132 423 257 c 128,-1,45
 517 382 517 382 517 492 c 0,46,47
 517 532 517 532 498 575 c 0,48,49
 472 636 472 636 426 636 c 0,29,30
EndSplineSet
EndChar

StartChar: Ocircumflex
Encoding: 212 212 120
Width: 663
Flags: HW
LayerCount: 2
Fore
SplineSet
392.742 1068.88 m 4,0,1
 396.471 1068.95 396.471 1068.95 404.744 1068.51 c 4,2,3
 430.798 1067.97 430.798 1067.97 442.648 1050.2 c 4,4,5
 447.652 1041.71 447.652 1041.71 486 978 c 132,-1,6
 524.349 914.295 524.349 914.295 543.226 880.257 c 5,7,8
 550.55 871.046 550.55 871.046 550.333 858.518 c 132,-1,9
 550.115 845.988 550.115 845.988 542.305 837.164 c 4,10,11
 528.182 821.368 528.182 821.368 487.898 821.034 c 5,12,13
 482.667 823.483 482.667 823.483 469.18 835.477 c 4,14,15
 452.404 851.836 452.404 851.836 438.905 872.248 c 132,-1,16
 425.406 892.66 425.406 892.66 409.054 923.673 c 132,-1,17
 392.7 954.686 392.7 954.686 386.242 965.602 c 5,18,19
 379.078 952.796 379.078 952.796 372.722 938.533 c 132,-1,20
 366.365 924.271 366.365 924.271 358.364 904.143 c 132,-1,21
 350.364 884.014 350.364 884.014 347.005 876.086 c 4,22,23
 345.539 872.904 345.539 872.904 341.152 862.827 c 132,-1,24
 336.766 852.751 336.766 852.751 334.376 848.031 c 132,-1,25
 331.986 843.312 331.986 843.312 327.623 835.688 c 132,-1,26
 323.261 828.063 323.261 828.063 318.346 822.632 c 132,-1,27
 313.431 817.199 313.431 817.199 307.492 812.852 c 4,28,29
 291.281 800.08 291.281 800.08 268.051 807.618 c 5,30,31
 246.767 810.43 246.767 810.43 239.336 826.039 c 4,32,33
 231.589 840.268 231.589 840.268 243.68 864.644 c 4,34,35
 297.869 980.651 297.869 980.651 336.485 1028.61 c 5,36,37
 367.76 1065.83 367.76 1065.83 392.742 1068.88 c 4,0,1
239 2 m 0,38,39
 22 2 22 2 22 312 c 0,40,41
 22 473 22 473 105 611 c 0,42,43
 207 782 207 782 379 782 c 0,44,45
 499 782 499 782 575.5 703 c 128,-1,46
 652 624 652 624 652 496 c 0,47,48
 652 419 652 419 590 301 c 0,49,50
 525 179 525 179 435 97 c 1,51,52
 333 2 333 2 239 2 c 0,38,39
426 636 m 0,53,54
 422 636 422 636 409 626.5 c 128,-1,55
 396 617 396 617 379 617 c 0,56,57
 351 617 351 617 336 638 c 1,58,-1
 334 640 l 1,59,60
 253 637 253 637 202 526 c 0,61,62
 157 427 157 427 157 298 c 0,63,64
 157 224 157 224 166 192 c 0,65,66
 184 129 184 129 239 130 c 0,67,68
 329 132 329 132 423 257 c 128,-1,69
 517 382 517 382 517 492 c 0,70,71
 517 532 517 532 498 575 c 0,72,73
 472 636 472 636 426 636 c 0,53,54
EndSplineSet
EndChar

StartChar: Otilde
Encoding: 213 213 121
Width: 663
Flags: HW
LayerCount: 2
Fore
SplineSet
576.705 1025.87 m 4,0,1
 603.419 1021.5 603.419 1021.5 623.922 1000.56 c 4,2,3
 643.677 980.253 643.677 980.253 636.386 962.905 c 5,4,5
 613.457 923.684 613.457 923.684 582 900 c 4,6,7
 557.854 882.394 557.854 882.394 528.142 875.837 c 132,-1,8
 498.428 869.28 498.428 869.28 470.647 877.156 c 5,9,10
 452.378 883.493 452.378 883.493 424.35 905.136 c 132,-1,11
 396.32 926.779 396.32 926.779 382.532 933.348 c 5,12,13
 380.592 931.561 380.592 931.561 368.586 921.418 c 132,-1,14
 356.578 911.276 356.578 911.276 351.116 905.02 c 5,15,16
 349.526 902.378 349.526 902.378 345.289 898.882 c 132,-1,17
 341.05 895.385 341.05 895.385 339.71 893.813 c 4,18,19
 336.812 890.907 336.812 890.907 332.499 882.813 c 132,-1,20
 328.187 874.72 328.187 874.72 324.273 871.659 c 5,21,22
 303.979 860.583 303.979 860.583 274.622 873.317 c 4,23,24
 248.922 884.594 248.922 884.594 245.565 901.603 c 5,25,26
 245.334 908.985 245.334 908.985 247.367 922.757 c 4,27,28
 261.672 978.049 261.672 978.049 322.951 1012.86 c 4,29,30
 362.035 1035.45 362.035 1035.45 402.384 1027.69 c 4,31,32
 420.471 1024.14 420.471 1024.14 448.097 1005.31 c 132,-1,33
 475.721 986.486 475.721 986.486 482.301 983.18 c 4,34,35
 504.593 971.05 504.593 971.05 515.954 977.211 c 5,36,37
 523.39 982.96 523.39 982.96 533.599 997.223 c 132,-1,38
 543.808 1011.49 543.808 1011.49 545.668 1013.67 c 5,39,40
 549.693 1021.28 549.693 1021.28 558.567 1024.4 c 132,-1,41
 567.441 1027.51 567.441 1027.51 576.705 1025.87 c 4,0,1
239 2 m 0,42,43
 22 2 22 2 22 312 c 0,44,45
 22 473 22 473 105 611 c 0,46,47
 207 782 207 782 379 782 c 0,48,49
 499 782 499 782 575.5 703 c 128,-1,50
 652 624 652 624 652 496 c 0,51,52
 652 419 652 419 590 301 c 0,53,54
 525 179 525 179 435 97 c 1,55,56
 333 2 333 2 239 2 c 0,42,43
426 636 m 0,57,58
 422 636 422 636 409 626.5 c 128,-1,59
 396 617 396 617 379 617 c 0,60,61
 351 617 351 617 336 638 c 1,62,-1
 334 640 l 1,63,64
 253 637 253 637 202 526 c 0,65,66
 157 427 157 427 157 298 c 0,67,68
 157 224 157 224 166 192 c 0,69,70
 184 129 184 129 239 130 c 0,71,72
 329 132 329 132 423 257 c 128,-1,73
 517 382 517 382 517 492 c 0,74,75
 517 532 517 532 498 575 c 0,76,77
 472 636 472 636 426 636 c 0,57,58
EndSplineSet
EndChar

StartChar: Odieresis
Encoding: 214 214 122
Width: 663
Flags: HW
LayerCount: 2
Fore
SplineSet
443.648 952.814 m 4,0,1
 444.041 979.551 444.041 979.551 456.93 996.5 c 4,2,3
 472.388 1016.27 472.388 1016.27 499.343 1015.76 c 4,4,5
 518.718 1015.39 518.718 1015.39 543.793 1001.54 c 4,6,7
 576.394 983.736 576.394 983.736 576 957 c 4,8,9
 575.453 919.761 575.453 919.761 536.127 881.343 c 5,10,11
 500.536 867.688 500.536 867.688 472.12 883.507 c 5,12,13
 459.709 899.023 459.709 899.023 451.602 920.668 c 132,-1,14
 443.493 942.312 443.493 942.312 443.648 952.814 c 4,0,1
187.339 942.375 m 4,15,16
 187.718 968.155 187.718 968.155 199.806 987.986 c 4,17,18
 215.361 1014.44 215.361 1014.44 243.16 1013.91 c 4,19,20
 280.226 1013.21 280.226 1013.21 302.478 979.36 c 4,21,22
 319.775 952.289 319.775 952.289 319.382 925.553 c 4,23,24
 319.073 904.546 319.073 904.546 296.428 883.006 c 132,-1,25
 273.781 861.465 273.781 861.465 252.722 861.864 c 4,26,27
 186.174 863.121 186.174 863.121 187.339 942.375 c 4,15,16
239 2 m 0,28,29
 22 2 22 2 22 312 c 0,30,31
 22 473 22 473 105 611 c 0,32,33
 207 782 207 782 379 782 c 0,34,35
 499 782 499 782 575.5 703 c 128,-1,36
 652 624 652 624 652 496 c 0,37,38
 652 419 652 419 590 301 c 0,39,40
 525 179 525 179 435 97 c 1,41,42
 333 2 333 2 239 2 c 0,28,29
426 636 m 0,43,44
 422 636 422 636 409 626.5 c 128,-1,45
 396 617 396 617 379 617 c 0,46,47
 351 617 351 617 336 638 c 1,48,-1
 334 640 l 1,49,50
 253 637 253 637 202 526 c 0,51,52
 157 427 157 427 157 298 c 0,53,54
 157 224 157 224 166 192 c 0,55,56
 184 129 184 129 239 130 c 0,57,58
 329 132 329 132 423 257 c 128,-1,59
 517 382 517 382 517 492 c 0,60,61
 517 532 517 532 498 575 c 0,62,63
 472 636 472 636 426 636 c 0,43,44
EndSplineSet
EndChar

StartChar: Oslash
Encoding: 216 216 123
Width: 663
Flags: HW
LayerCount: 2
Fore
SplineSet
504.421 755.009 m 1,0,1
 543.715 735.824 543.715 735.824 575.5 703 c 0,2,3
 652 624 652 624 652 496 c 0,4,5
 652 419 652 419 590 301 c 0,6,7
 525 179 525 179 435 97 c 1,8,9
 333 2 333 2 239 2 c 0,10,11
 222.634 2 222.634 2 207.503 3.76321 c 1,12,-1
 194.089 -27.0508 l 1,13,14
 184.782 -33.1045 184.782 -33.1045 172.673 -30.6816 c 0,15,16
 149.878 -26.121 149.878 -26.121 130.678 0.335938 c 0,17,18
 117.59 18.3712 117.59 18.3712 114.886 39.0577 c 1,19,20
 22 109.182 22 109.182 22 312 c 0,21,22
 22 472 22 472 105 611 c 0,23,24
 207 782 207 782 379 782 c 0,25,26
 398.416 782 398.416 782 416.693 779.932 c 1,27,28
 443.323 824.276 443.323 824.276 464.368 820.066 c 0,29,30
 472.203 818.498 472.203 818.498 477.964 810.562 c 1,31,32
 495.942 801.311 495.942 801.311 503.541 760.215 c 0,33,34
 504.008 757.613 504.008 757.613 504.421 755.009 c 1,0,1
343.092 629.903 m 1,35,36
 339.242 633.461 339.242 633.461 336 638 c 2,37,-1
 334 640 l 1,38,39
 253 637 253 637 202 526 c 0,40,41
 157 427 157 427 157 298 c 0,42,43
 157 224 157 224 166 192 c 2,44,-1
 166.953 188.795 l 1,45,-1
 264 435 l 1,46,47
 307.567 548.615 307.567 548.615 343.092 629.903 c 1,35,36
473.437 614.641 m 1,48,-1
 263.698 132.849 l 1,49,50
 341.859 149.099 341.859 149.099 423 257 c 0,51,52
 517 382 517 382 517 492 c 0,53,54
 517 532 517 532 498 575 c 0,55,56
 487.385 599.904 487.385 599.904 473.437 614.641 c 1,48,-1
EndSplineSet
EndChar

StartChar: Ugrave
Encoding: 217 217 124
Width: 519
Flags: HW
LayerCount: 2
Fore
SplineSet
89.376 918.495 m 4,0,1
 109.951 883.321 109.951 883.321 222 846 c 132,-1,2
 334.049 808.679 334.049 808.679 359.409 826.675 c 5,3,4
 364.992 856.327 364.992 856.327 352.551 877.596 c 4,5,6
 336.76 904.589 336.76 904.589 232.767 957.96 c 132,-1,7
 128.772 1011.34 128.772 1011.34 101.338 1000.29 c 4,8,9
 97.1914 998.86 97.1914 998.86 94.002 995.8 c 4,10,11
 81.8799 984.14 81.8799 984.14 82.5176 954.08 c 4,12,13
 83.1553 929.13 83.1553 929.13 89.376 918.495 c 4,0,1
193 60 m 0,14,15
 93 60 93 60 48 178 c 0,16,17
 14 265 14 265 22 351 c 1,18,19
 26 430 26 430 42 582 c 1,20,21
 66 730 66 730 140 723 c 0,22,23
 209 716 209 716 209 650 c 0,24,25
 209 636 209 636 181 504 c 0,26,27
 154 378 154 378 154 368 c 0,28,29
 155 318 155 318 155 268 c 1,30,31
 163 201 163 201 206 200 c 0,32,33
 290 198 290 198 335 351 c 1,34,35
 366 452 366 452 366 532 c 0,36,37
 366 541 366 541 354 622.5 c 128,-1,38
 342 704 342 704 342 716 c 0,39,40
 342 741 342 741 363.5 760.5 c 128,-1,41
 385 780 385 780 408 780 c 0,42,43
 452 780 452 780 481 674 c 0,44,45
 502 597 502 597 502 551 c 0,46,47
 502 479 502 479 471 373 c 0,48,49
 433 243 433 243 372 162 c 0,50,51
 294 60 294 60 193 60 c 0,14,15
EndSplineSet
EndChar

StartChar: Ucircumflex
Encoding: 219 219 125
Width: 519
Flags: HW
LayerCount: 2
Fore
SplineSet
305.742 1071.88 m 4,0,1
 309.471 1071.95 309.471 1071.95 317.744 1071.51 c 4,2,3
 343.798 1070.97 343.798 1070.97 355.648 1053.2 c 4,4,5
 360.652 1044.71 360.652 1044.71 399 981 c 132,-1,6
 437.349 917.295 437.349 917.295 456.226 883.257 c 5,7,8
 463.55 874.046 463.55 874.046 463.333 861.518 c 132,-1,9
 463.115 848.988 463.115 848.988 455.305 840.164 c 4,10,11
 441.182 824.368 441.182 824.368 400.898 824.034 c 5,12,13
 395.667 826.483 395.667 826.483 382.18 838.477 c 4,14,15
 365.404 854.836 365.404 854.836 351.905 875.248 c 132,-1,16
 338.406 895.66 338.406 895.66 322.054 926.673 c 132,-1,17
 305.7 957.686 305.7 957.686 299.242 968.602 c 5,18,19
 292.078 955.796 292.078 955.796 285.722 941.533 c 132,-1,20
 279.365 927.271 279.365 927.271 271.364 907.143 c 132,-1,21
 263.364 887.014 263.364 887.014 260.005 879.086 c 4,22,23
 258.539 875.904 258.539 875.904 254.152 865.827 c 132,-1,24
 249.766 855.751 249.766 855.751 247.376 851.031 c 132,-1,25
 244.986 846.312 244.986 846.312 240.623 838.688 c 132,-1,26
 236.261 831.063 236.261 831.063 231.346 825.632 c 132,-1,27
 226.431 820.199 226.431 820.199 220.492 815.852 c 4,28,29
 204.281 803.08 204.281 803.08 181.051 810.618 c 5,30,31
 159.767 813.43 159.767 813.43 152.336 829.039 c 4,32,33
 144.589 843.268 144.589 843.268 156.68 867.644 c 4,34,35
 210.869 983.651 210.869 983.651 249.485 1031.61 c 5,36,37
 280.76 1068.83 280.76 1068.83 305.742 1071.88 c 4,0,1
193 60 m 0,38,39
 93 60 93 60 48 178 c 0,40,41
 14 265 14 265 22 351 c 1,42,43
 26 430 26 430 42 582 c 1,44,45
 66 730 66 730 140 723 c 0,46,47
 209 716 209 716 209 650 c 0,48,49
 209 636 209 636 181 504 c 0,50,51
 154 378 154 378 154 368 c 0,52,53
 155 318 155 318 155 268 c 1,54,55
 163 201 163 201 206 200 c 0,56,57
 290 198 290 198 335 351 c 1,58,59
 366 452 366 452 366 532 c 0,60,61
 366 541 366 541 354 622.5 c 128,-1,62
 342 704 342 704 342 716 c 0,63,64
 342 741 342 741 363.5 760.5 c 128,-1,65
 385 780 385 780 408 780 c 0,66,67
 452 780 452 780 481 674 c 0,68,69
 502 597 502 597 502 551 c 0,70,71
 502 479 502 479 471 373 c 0,72,73
 433 243 433 243 372 162 c 0,74,75
 294 60 294 60 193 60 c 0,38,39
EndSplineSet
EndChar

StartChar: Yacute
Encoding: 221 221 126
Width: 623
Flags: HW
LayerCount: 2
Fore
SplineSet
533.073 946.379 m 4,0,1
 525.328 906.371 525.328 906.371 432 834 c 132,-1,2
 338.671 761.629 338.671 761.629 308.777 770.195 c 5,3,4
 293.676 796.317 293.676 796.317 298.359 820.509 c 4,5,6
 304.304 851.211 304.304 851.211 384.709 936.052 c 132,-1,7
 465.113 1020.9 465.113 1020.9 494.659 1019.58 c 4,8,9
 499.046 1019.6 499.046 1019.6 503.069 1017.77 c 4,10,11
 518.373 1010.79 518.373 1010.79 527.74 982.224 c 4,12,13
 535.415 958.475 535.415 958.475 533.073 946.379 c 4,0,1
186 -94 m 1,14,15
 137 -83 137 -83 129 -71 c 128,-1,16
 121 -59 121 -59 121 -5 c 0,17,18
 121 23 121 23 151 76 c 0,19,20
 174 116 174 116 197 156 c 0,21,22
 198 159 198 159 202 161 c 128,-1,23
 206 163 206 163 205 164 c 0,24,25
 159 234 159 234 97 401 c 0,26,27
 21 604 21 604 21 720 c 0,28,29
 21 737 21 737 23 752 c 1,30,31
 64 797 64 797 100 797 c 1,32,33
 139 770 139 770 167 686 c 0,34,35
 173 667 173 667 200 556 c 0,36,37
 246 362 246 362 296 278 c 1,38,39
 331 338 331 338 403 522 c 0,40,41
 480 718 480 718 527 758 c 1,42,-1
 594 758 l 1,43,44
 618 734 618 734 618 695 c 0,45,46
 618 599 618 599 436 268 c 1,47,48
 255 -59 255 -59 186 -94 c 1,14,15
EndSplineSet
EndChar

StartChar: germandbls
Encoding: 223 223 127
Width: 727
VWidth: 0
Flags: HW
LayerCount: 2
Fore
SplineSet
266.573 58.8184 m 0,0,1
 227.606 74.5381 227.606 74.5381 202.733 90.8604 c 1,2,3
 195.852 126.125 195.852 126.125 195.9 151.518 c 0,4,5
 196.042 224.507 196.042 224.507 263.784 224.145 c 0,6,7
 272.264 224.1 272.264 224.1 279.887 217.875 c 2,8,-1
 294.635 205.834 l 1,9,10
 390.576 156.414 390.576 156.414 482.812 213.769 c 1,11,-1
 523.038 239.457 l 1,12,13
 550.057 255.365 550.057 255.365 563.398 271.565 c 1,14,15
 541.188 308.375 541.188 308.375 475.415 330.87 c 0,16,17
 472.647 331.773 472.647 331.773 471.791 332.027 c 128,-1,18
 470.935 332.281 470.935 332.281 469.902 332.454 c 128,-1,19
 468.87 332.627 468.87 332.627 467.93 332.677 c 128,-1,20
 466.989 332.727 466.989 332.727 463.212 333.394 c 128,-1,21
 459.435 334.061 459.435 334.061 453.987 335.119 c 128,-1,22
 448.54 336.177 448.54 336.177 437.595 338.551 c 128,-1,23
 426.649 340.924 426.649 340.924 412.215 344.215 c 0,24,25
 334.486 361.596 334.486 361.596 301.081 384.157 c 1,26,27
 282.242 406.685 282.242 406.685 282.193 435.352 c 0,28,29
 282.135 465.038 282.135 465.038 301.713 485.547 c 1,30,-1
 411.643 558.779 l 1,31,32
 452.973 590.927 452.973 590.927 477.1 626.633 c 0,33,34
 510.936 676.706 510.936 676.706 496.795 702.352 c 0,35,36
 489.62 715.365 489.62 715.365 475.178 717.511 c 0,37,38
 457.706 720.108 457.706 720.108 442.98 713.971 c 0,39,40
 426.048 706.912 426.048 706.912 396.994 694.851 c 0,41,42
 333.558 667.49 333.558 667.49 258.895 543.81 c 0,43,44
 212.292 466.871 212.292 466.871 181.802 350.933 c 128,-1,45
 151.312 234.994 151.312 234.994 131.784 139.761 c 128,-1,46
 112.257 44.5273 112.257 44.5273 104.428 -17.2188 c 1,47,48
 85.4697 -45.2627 85.4697 -45.2627 72.1553 -47.4746 c 0,49,50
 23.7822 -55.5117 23.7822 -55.5117 3.12305 -24.4072 c 128,-1,51
 -17.5361 6.69824 -17.5361 6.69824 -21.123 95.6943 c 1,52,53
 -2.49609 182.935 -2.49609 182.935 51.2441 318.757 c 128,-1,54
 104.985 454.579 104.985 454.579 163.049 560.215 c 0,55,56
 167.179 567.729 167.179 567.729 175.164 582.333 c 0,57,58
 196.121 620.66 196.121 620.66 206.555 638.988 c 128,-1,59
 216.988 657.315 216.988 657.315 235.958 687.15 c 128,-1,60
 254.928 716.986 254.928 716.986 268.49 731.7 c 128,-1,61
 282.054 746.415 282.054 746.415 303.619 766.614 c 128,-1,62
 325.185 786.813 325.185 786.813 346.837 797.498 c 128,-1,63
 368.488 808.182 368.488 808.182 397.609 818.328 c 128,-1,64
 426.73 828.475 426.73 828.475 461.056 833.984 c 1,65,66
 506.891 833.646 506.891 833.646 563.978 810.897 c 0,67,68
 636.787 783.043 636.787 783.043 636.787 743.232 c 0,69,70
 636.787 686.321 636.787 686.321 596.53 625.103 c 128,-1,71
 556.273 563.883 556.273 563.883 447.228 484.245 c 1,72,73
 539.609 458.585 539.609 458.585 604.4 409.603 c 0,74,75
 691.528 345.186 691.528 345.186 691.527 258.272 c 0,76,77
 691.527 149.888 691.527 149.888 547.169 89.5605 c 1,78,79
 489.326 62.1943 489.326 62.1943 446.251 49.833 c 128,-1,80
 403.175 37.4717 403.175 37.4717 358.033 38.8154 c 128,-1,81
 312.892 40.1592 312.892 40.1592 266.573 58.8184 c 0,0,1
EndSplineSet
EndChar

StartChar: acircumflex
Encoding: 226 226 128
Width: 565
Flags: HW
LayerCount: 2
Fore
SplineSet
293.742 1080.88 m 4,0,1
 297.471 1080.95 297.471 1080.95 305.744 1080.51 c 4,2,3
 331.798 1079.97 331.798 1079.97 343.648 1062.2 c 4,4,5
 348.652 1053.71 348.652 1053.71 387 990 c 132,-1,6
 425.349 926.295 425.349 926.295 444.226 892.257 c 5,7,8
 451.55 883.046 451.55 883.046 451.333 870.518 c 132,-1,9
 451.115 857.988 451.115 857.988 443.305 849.164 c 4,10,11
 429.182 833.368 429.182 833.368 388.898 833.034 c 5,12,13
 383.667 835.483 383.667 835.483 370.18 847.477 c 4,14,15
 353.404 863.836 353.404 863.836 339.905 884.248 c 132,-1,16
 326.406 904.66 326.406 904.66 310.054 935.673 c 132,-1,17
 293.7 966.686 293.7 966.686 287.242 977.602 c 5,18,19
 280.078 964.796 280.078 964.796 273.722 950.533 c 132,-1,20
 267.365 936.271 267.365 936.271 259.364 916.143 c 132,-1,21
 251.364 896.014 251.364 896.014 248.005 888.086 c 4,22,23
 246.539 884.904 246.539 884.904 242.152 874.827 c 132,-1,24
 237.766 864.751 237.766 864.751 235.376 860.031 c 132,-1,25
 232.986 855.312 232.986 855.312 228.623 847.688 c 132,-1,26
 224.261 840.063 224.261 840.063 219.346 834.632 c 132,-1,27
 214.431 829.199 214.431 829.199 208.492 824.852 c 4,28,29
 192.281 812.08 192.281 812.08 169.051 819.618 c 5,30,31
 147.767 822.43 147.767 822.43 140.336 838.039 c 4,32,33
 132.589 852.268 132.589 852.268 144.68 876.644 c 4,34,35
 198.869 992.651 198.869 992.651 237.485 1040.61 c 5,36,37
 268.76 1077.83 268.76 1077.83 293.742 1080.88 c 4,0,1
554 -63 m 0,38,39
 549 -72 549 -72 534 -102 c 1,40,-1
 450 -102 l 1,41,42
 410 -45 410 -45 399 49 c 0,43,44
 387 152 387 152 368 189 c 1,45,46
 244 149 244 149 140 96 c 0,47,48
 130 91 130 91 121 50 c 0,49,50
 116 24 116 24 112 -1 c 1,51,52
 96 -27 96 -27 54 -27 c 0,53,54
 15 -27 15 -27 -8 2 c 0,55,56
 -27 26 -27 26 -27 52 c 0,57,58
 -27 97 -27 97 39 268 c 1,59,60
 72 350 72 350 110 447 c 1,61,62
 143 550 143 550 209 730 c 1,63,64
 260 849 260 849 320 849 c 0,65,66
 335 849 335 849 350 841 c 1,67,68
 387 774 387 774 478 382 c 0,69,70
 563 14 563 14 563 -24 c 0,71,72
 563 -43 563 -43 554 -63 c 0,38,39
294 586 m 1,73,74
 174 302 174 302 174 295 c 2,75,-1
 174 275 l 1,76,77
 258 305 258 305 342 320 c 1,78,79
 327 475 327 475 294 586 c 1,73,74
EndSplineSet
EndChar

StartChar: atilde
Encoding: 227 227 129
Width: 565
Flags: HW
LayerCount: 2
Fore
SplineSet
485.312 1060.65 m 4,0,1
 512.026 1056.28 512.026 1056.28 532.529 1035.34 c 4,2,3
 552.284 1015.04 552.284 1015.04 544.993 997.688 c 5,4,5
 522.064 958.466 522.064 958.466 490.607 934.782 c 4,6,7
 466.462 917.176 466.462 917.176 436.749 910.619 c 132,-1,8
 407.035 904.062 407.035 904.062 379.255 911.938 c 5,9,10
 360.985 918.275 360.985 918.275 332.957 939.918 c 132,-1,11
 304.928 961.562 304.928 961.562 291.14 968.13 c 5,12,13
 289.199 966.343 289.199 966.343 277.193 956.2 c 132,-1,14
 265.186 946.059 265.186 946.059 259.724 939.802 c 5,15,16
 258.134 937.16 258.134 937.16 253.896 933.664 c 132,-1,17
 249.657 930.167 249.657 930.167 248.317 928.596 c 4,18,19
 245.419 925.689 245.419 925.689 241.106 917.596 c 132,-1,20
 236.794 909.502 236.794 909.502 232.881 906.441 c 5,21,22
 212.586 895.365 212.586 895.365 183.229 908.1 c 4,23,24
 157.529 919.376 157.529 919.376 154.173 936.385 c 5,25,26
 153.941 943.768 153.941 943.768 155.975 957.539 c 4,27,28
 170.279 1012.83 170.279 1012.83 231.559 1047.64 c 4,29,30
 270.643 1070.23 270.643 1070.23 310.991 1062.47 c 4,31,32
 329.078 1058.92 329.078 1058.92 356.704 1040.1 c 132,-1,33
 384.328 1021.27 384.328 1021.27 390.908 1017.96 c 4,34,35
 413.2 1005.83 413.2 1005.83 424.562 1011.99 c 5,36,37
 431.997 1017.74 431.997 1017.74 442.206 1032 c 132,-1,38
 452.415 1046.27 452.415 1046.27 454.275 1048.46 c 5,39,40
 458.301 1056.07 458.301 1056.07 467.175 1059.18 c 132,-1,41
 476.049 1062.3 476.049 1062.3 485.312 1060.65 c 4,0,1
554 -63 m 0,42,43
 549 -72 549 -72 534 -102 c 1,44,-1
 450 -102 l 1,45,46
 410 -45 410 -45 399 49 c 0,47,48
 387 152 387 152 368 189 c 1,49,50
 244 149 244 149 140 96 c 0,51,52
 130 91 130 91 121 50 c 0,53,54
 116 24 116 24 112 -1 c 1,55,56
 96 -27 96 -27 54 -27 c 0,57,58
 15 -27 15 -27 -8 2 c 0,59,60
 -27 26 -27 26 -27 52 c 0,61,62
 -27 97 -27 97 39 268 c 1,63,64
 72 350 72 350 110 447 c 1,65,66
 143 550 143 550 209 730 c 1,67,68
 260 849 260 849 320 849 c 0,69,70
 335 849 335 849 350 841 c 1,71,72
 387 774 387 774 478 382 c 0,73,74
 563 14 563 14 563 -24 c 0,75,76
 563 -43 563 -43 554 -63 c 0,42,43
294 586 m 1,77,78
 174 302 174 302 174 295 c 2,79,-1
 174 275 l 1,80,81
 258 305 258 305 342 320 c 1,82,83
 327 475 327 475 294 586 c 1,77,78
EndSplineSet
EndChar

StartChar: adieresis
Encoding: 228 228 130
Width: 565
Flags: HW
LayerCount: 2
Fore
SplineSet
410.648 970.814 m 4,0,1
 411.041 997.551 411.041 997.551 423.93 1014.5 c 4,2,3
 439.388 1034.27 439.388 1034.27 466.343 1033.76 c 4,4,5
 485.718 1033.39 485.718 1033.39 510.793 1019.54 c 4,6,7
 543.394 1001.74 543.394 1001.74 543 975 c 4,8,9
 542.453 937.761 542.453 937.761 503.127 899.343 c 5,10,11
 467.536 885.688 467.536 885.688 439.12 901.507 c 5,12,13
 426.709 917.023 426.709 917.023 418.602 938.668 c 132,-1,14
 410.493 960.312 410.493 960.312 410.648 970.814 c 4,0,1
154.339 960.375 m 4,15,16
 154.718 986.155 154.718 986.155 166.806 1005.99 c 4,17,18
 182.361 1032.44 182.361 1032.44 210.16 1031.91 c 4,19,20
 247.226 1031.21 247.226 1031.21 269.478 997.36 c 4,21,22
 286.775 970.289 286.775 970.289 286.382 943.553 c 4,23,24
 286.073 922.546 286.073 922.546 263.428 901.006 c 132,-1,25
 240.781 879.465 240.781 879.465 219.722 879.864 c 4,26,27
 153.174 881.121 153.174 881.121 154.339 960.375 c 4,15,16
554 -63 m 0,28,29
 549 -72 549 -72 534 -102 c 1,30,-1
 450 -102 l 1,31,32
 410 -45 410 -45 399 49 c 0,33,34
 387 152 387 152 368 189 c 1,35,36
 244 149 244 149 140 96 c 0,37,38
 130 91 130 91 121 50 c 0,39,40
 116 24 116 24 112 -1 c 1,41,42
 96 -27 96 -27 54 -27 c 0,43,44
 15 -27 15 -27 -8 2 c 0,45,46
 -27 26 -27 26 -27 52 c 0,47,48
 -27 97 -27 97 39 268 c 1,49,50
 72 350 72 350 110 447 c 1,51,52
 143 550 143 550 209 730 c 1,53,54
 260 849 260 849 320 849 c 0,55,56
 335 849 335 849 350 841 c 1,57,58
 387 774 387 774 478 382 c 0,59,60
 563 14 563 14 563 -24 c 0,61,62
 563 -43 563 -43 554 -63 c 0,28,29
294 586 m 1,63,64
 174 302 174 302 174 295 c 2,65,-1
 174 275 l 1,66,67
 258 305 258 305 342 320 c 1,68,69
 327 475 327 475 294 586 c 1,63,64
EndSplineSet
EndChar

StartChar: aring
Encoding: 229 229 131
Width: 565
Flags: HW
LayerCount: 2
Fore
SplineSet
490.166 931.061 m 5,0,1
 497.006 888.42 497.006 888.42 435 822 c 132,-1,2
 372.993 755.58 372.993 755.58 323.688 755.58 c 4,3,4
 276.113 755.58 276.113 755.58 235.443 782.64 c 5,5,6
 189.188 812.16 189.188 812.16 181.822 858.08 c 4,7,8
 173.011 913.021 173.011 913.021 209.819 990.92 c 4,9,10
 252.912 1083.58 252.912 1083.58 322.978 1083.58 c 4,11,12
 325.572 1083.58 325.572 1083.58 337.983 1084.4 c 132,-1,13
 350.394 1085.22 350.394 1085.22 359.909 1085.22 c 4,14,15
 441.219 1085.22 441.219 1085.22 473.856 1032.74 c 5,16,17
 488.258 1013.06 488.258 1013.06 492.336 987.64 c 4,18,19
 496.677 960.58 496.677 960.58 490.166 931.061 c 5,0,1
400.097 967.331 m 4,20,21
 385.404 1000.49 385.404 1000.49 372.298 1000.49 c 4,22,23
 368.849 1000.49 368.849 1000.49 361.784 997.038 c 132,-1,24
 354.721 993.584 354.721 993.584 349.892 993.584 c 4,25,26
 322.298 993.584 322.298 993.584 292.36 959.041 c 4,27,28
 260.084 921.735 260.084 921.735 265.958 883.048 c 4,29,30
 271.203 848.505 271.203 848.505 305.695 848.505 c 4,31,32
 328.46 848.505 328.46 848.505 367.05 885.12 c 5,33,34
 407.875 925.19 407.875 925.19 402.945 957.659 c 4,35,36
 402.211 962.495 402.211 962.495 400.097 967.331 c 4,20,21
554 -63 m 0,37,38
 549 -72 549 -72 534 -102 c 1,39,-1
 450 -102 l 1,40,41
 410 -45 410 -45 399 49 c 0,42,43
 387 152 387 152 368 189 c 1,44,45
 244 149 244 149 140 96 c 0,46,47
 128.766 90.383 128.766 90.383 121 50 c 0,48,49
 116 24 116 24 112 -1 c 1,50,51
 96 -27 96 -27 54 -27 c 0,52,53
 15 -27 15 -27 -8 2 c 0,54,55
 -27 26 -27 26 -27 52 c 0,56,57
 -27 97 -27 97 39 268 c 1,58,59
 72 350 72 350 110 447 c 1,60,61
 183 582 183 582 222 645 c 1,62,63
 255 696 255 696 324 744 c 0,64,65
 330.978 748.278 330.978 748.278 354 736 c 1,66,67
 409.259 683.143 409.259 683.143 478 382 c 0,68,69
 563 14 563 14 563 -24 c 0,70,71
 563 -46.8 563 -46.8 554 -63 c 0,37,38
306 563 m 1,72,73
 214.338 379.206 214.338 379.206 186 306 c 2,74,-1
 174 275 l 1,75,76
 258 305 258 305 342 320 c 1,77,78
 330 456 330 456 306 563 c 1,72,73
EndSplineSet
EndChar

StartChar: ccedilla
Encoding: 231 231 132
Width: 553
Flags: HW
LayerCount: 2
Fore
SplineSet
329 19 m 5,0,1
 333 78 333 78 380 78 c 4,2,3
 416 78 416 78 447 33 c 5,4,5
 474.066 -10.0459 474.066 -10.0459 477 -27 c 4,6,7
 486.587 -89.6387 486.587 -89.6387 480 -117 c 28,8,9
 468.393 -165.214 468.393 -165.214 438 -189 c 28,10,11
 392 -225 392 -225 342 -225 c 4,12,13
 282.81 -225 282.81 -225 263 -161 c 5,14,15
 265.839 -136.873 265.839 -136.873 331 -111 c 4,16,17
 400.861 -83.2607 400.861 -83.2607 357 -24 c 260,18,19
 326.481 17.2344 326.481 17.2344 329 19 c 5,0,1
320 72 m 0,20,21
 168 70 168 70 90 257 c 0,22,23
 36 386 36 386 36 520 c 0,24,25
 36 630 36 630 96 741 c 0,26,27
 173 882 173 882 297 882 c 0,28,29
 386 882 386 882 437 794 c 1,30,31
 474 728 474 728 474 662 c 0,32,33
 474 635 474 635 448 578 c 0,34,35
 417 511 417 511 386 508 c 0,36,37
 340 504 340 504 313 522.5 c 128,-1,38
 286 541 286 541 286 579 c 0,39,40
 286 601 286 601 296 627 c 0,41,42
 299 635 299 635 315 652 c 128,-1,43
 331 669 331 669 331 671 c 0,44,45
 331 693 331 693 312.5 714 c 128,-1,46
 294 735 294 735 278 735 c 0,47,48
 224 735 224 735 189 638 c 0,49,50
 160 560 160 560 161 492 c 0,51,52
 162 396 162 396 209 306 c 0,53,54
 259 210 259 210 324 210 c 0,55,56
 377 210 377 210 426.5 244.5 c 128,-1,57
 476 279 476 279 501 336 c 1,58,59
 523 348 523 348 540 348 c 0,60,61
 575 348 575 348 575 303 c 0,62,63
 575 282 575 282 566 249 c 0,64,65
 544 172 544 172 456 119 c 0,66,67
 381 73 381 73 320 72 c 0,20,21
EndSplineSet
EndChar

StartChar: egrave
Encoding: 232 232 133
Width: 620
Flags: HW
LayerCount: 2
Fore
SplineSet
110.376 996.495 m 4,0,1
 130.951 961.321 130.951 961.321 243 924 c 132,-1,2
 355.049 886.679 355.049 886.679 380.409 904.675 c 5,3,4
 385.992 934.327 385.992 934.327 373.551 955.596 c 4,5,6
 357.76 982.589 357.76 982.589 253.767 1035.96 c 132,-1,7
 149.772 1089.34 149.772 1089.34 122.338 1078.29 c 4,8,9
 118.191 1076.86 118.191 1076.86 115.002 1073.8 c 4,10,11
 102.88 1062.14 102.88 1062.14 103.518 1032.08 c 4,12,13
 104.155 1007.13 104.155 1007.13 110.376 996.495 c 4,0,1
167 774 m 1,14,15
 182 775 182 775 294 815 c 0,16,17
 415 859 415 859 477 859 c 0,18,19
 489 859 489 859 515 863 c 128,-1,20
 541 867 541 867 556 866 c 0,21,22
 617 863 617 863 655 796 c 1,23,24
 632 745 632 745 536 730 c 0,25,26
 450 717 450 717 364 705 c 1,27,28
 266 684 266 684 220 637 c 0,29,30
 160 577 160 577 166 465 c 1,31,32
 169 461 169 461 178 461 c 1,33,34
 177 461 177 461 317 507 c 0,35,36
 463 556 463 556 522 555 c 1,37,38
 554 535 554 535 550 498 c 1,39,40
 541 432 541 432 433 398 c 1,41,42
 337 374 337 374 241 351 c 1,43,44
 142 322 142 322 148 266 c 0,45,46
 153 220 153 220 162 199 c 0,47,48
 177 167 177 167 211 167 c 0,49,50
 256 167 256 167 325 184 c 0,51,52
 411 206 411 206 427 235 c 1,53,-1
 520 217 l 1,54,55
 523 209 523 209 523 200 c 0,56,57
 523 136 523 136 394 78 c 0,58,59
 284 29 284 29 216 29 c 0,60,61
 119 29 119 29 62 103 c 1,62,63
 12 166 12 166 12 250 c 0,64,65
 12 273 12 273 17 293 c 1,66,67
 23 325 23 325 29 411 c 0,68,69
 41 572 41 572 50 625 c 0,70,71
 76 779 76 779 135 783 c 0,72,73
 156 785 156 785 167 774 c 1,14,15
EndSplineSet
EndChar

StartChar: ecircumflex
Encoding: 234 234 134
Width: 620
Flags: HW
LayerCount: 2
Fore
SplineSet
269.361 1131.89 m 4,0,1
 273.072 1132.17 273.072 1132.17 281.408 1132.2 c 4,2,3
 307.513 1133.13 307.513 1133.13 322.381 1116.17 c 4,4,5
 328.828 1108.03 328.828 1108.03 378 1047 c 132,-1,6
 427.174 985.973 427.174 985.973 451.836 953.274 c 5,7,8
 460.723 944.551 460.723 944.551 462.647 932.111 c 132,-1,9
 464.57 919.671 464.57 919.671 458.28 910.477 c 4,10,11
 446.879 894.012 446.879 894.012 406.717 891.407 c 5,12,13
 401.075 893.541 401.075 893.541 385.561 904.677 c 4,14,15
 366.017 919.957 366.017 919.957 349.051 939.443 c 132,-1,16
 332.085 958.929 332.085 958.929 310.46 988.769 c 132,-1,17
 288.833 1018.61 288.833 1018.61 280.521 1029.07 c 5,18,19
 275.556 1015.97 275.556 1015.97 271.646 1001.46 c 132,-1,20
 267.737 986.953 267.737 986.953 263.188 966.535 c 132,-1,21
 258.641 946.117 258.641 946.117 256.642 938.064 c 4,22,23
 255.722 934.825 255.722 934.825 253.063 924.582 c 132,-1,24
 250.405 914.339 250.405 914.339 248.825 909.522 c 132,-1,25
 247.246 904.707 247.246 904.707 244.192 896.897 c 132,-1,26
 241.141 889.089 241.141 889.089 237.162 883.424 c 132,-1,27
 233.182 877.757 233.182 877.757 227.997 873.109 c 4,28,29
 213.994 859.526 213.994 859.526 189.512 865.692 c 5,30,31
 167.781 867.28 167.781 867.28 157.695 882.345 c 4,32,33
 147.529 896.021 147.529 896.021 155.437 920.883 c 4,34,35
 189.716 1039.01 189.716 1039.01 220.076 1088.76 c 5,36,37
 244.94 1127.45 244.94 1127.45 269.361 1131.89 c 4,0,1
167 774 m 1,38,39
 182 775 182 775 294 815 c 0,40,41
 415 859 415 859 477 859 c 0,42,43
 489 859 489 859 515 863 c 128,-1,44
 541 867 541 867 556 866 c 0,45,46
 617 863 617 863 655 796 c 1,47,48
 632 745 632 745 536 730 c 0,49,50
 450 717 450 717 364 705 c 1,51,52
 266 684 266 684 220 637 c 0,53,54
 160 577 160 577 166 465 c 1,55,56
 169 461 169 461 178 461 c 1,57,58
 177 461 177 461 317 507 c 0,59,60
 463 556 463 556 522 555 c 1,61,62
 554 535 554 535 550 498 c 1,63,64
 541 432 541 432 433 398 c 1,65,66
 337 374 337 374 241 351 c 1,67,68
 142 322 142 322 148 266 c 0,69,70
 153 220 153 220 162 199 c 0,71,72
 177 167 177 167 211 167 c 0,73,74
 256 167 256 167 325 184 c 0,75,76
 411 206 411 206 427 235 c 1,77,-1
 520 217 l 1,78,79
 523 209 523 209 523 200 c 0,80,81
 523 136 523 136 394 78 c 0,82,83
 284 29 284 29 216 29 c 0,84,85
 119 29 119 29 62 103 c 1,86,87
 12 166 12 166 12 250 c 0,88,89
 12 273 12 273 17 293 c 1,90,91
 23 325 23 325 29 411 c 0,92,93
 41 572 41 572 50 625 c 0,94,95
 76 779 76 779 135 783 c 0,96,97
 156 785 156 785 167 774 c 1,38,39
EndSplineSet
EndChar

StartChar: edieresis
Encoding: 235 235 135
Width: 620
Flags: HW
LayerCount: 2
Fore
SplineSet
434.236 1002.22 m 4,0,1
 432.706 1028.92 432.706 1028.92 444.343 1046.75 c 4,2,3
 458.34 1067.57 458.34 1067.57 485.262 1069 c 4,4,5
 504.613 1070.03 504.613 1070.03 530.619 1058.02 c 4,6,7
 564.415 1042.6 564.415 1042.6 565.944 1015.91 c 4,8,9
 568.076 978.727 568.076 978.727 531.613 937.581 c 5,10,11
 497.097 921.402 497.097 921.402 467.616 935.138 c 5,12,13
 454.122 949.723 454.122 949.723 444.479 970.729 c 132,-1,14
 434.837 991.732 434.837 991.732 434.236 1002.22 c 4,0,1
179.341 973.383 m 4,15,16
 177.865 999.123 177.865 999.123 188.496 1019.77 c 4,17,18
 202.11 1047.27 202.11 1047.27 229.875 1048.75 c 4,19,20
 266.895 1050.71 266.895 1050.71 291.522 1018.55 c 4,21,22
 310.722 992.791 310.722 992.791 312.251 966.096 c 4,23,24
 313.453 945.121 313.453 945.121 292.415 922.009 c 132,-1,25
 271.375 898.896 271.375 898.896 250.342 897.78 c 4,26,27
 183.876 894.25 183.876 894.25 179.341 973.383 c 4,15,16
167 774 m 1,28,29
 182 775 182 775 294 815 c 0,30,31
 415 859 415 859 477 859 c 0,32,33
 489 859 489 859 515 863 c 128,-1,34
 541 867 541 867 556 866 c 0,35,36
 617 863 617 863 655 796 c 1,37,38
 632 745 632 745 536 730 c 0,39,40
 450 717 450 717 364 705 c 1,41,42
 266 684 266 684 220 637 c 0,43,44
 160 577 160 577 166 465 c 1,45,46
 169 461 169 461 178 461 c 1,47,48
 177 461 177 461 317 507 c 0,49,50
 463 556 463 556 522 555 c 1,51,52
 554 535 554 535 550 498 c 1,53,54
 541 432 541 432 433 398 c 1,55,56
 337 374 337 374 241 351 c 1,57,58
 142 322 142 322 148 266 c 0,59,60
 153 220 153 220 162 199 c 0,61,62
 177 167 177 167 211 167 c 0,63,64
 256 167 256 167 325 184 c 0,65,66
 411 206 411 206 427 235 c 1,67,-1
 520 217 l 1,68,69
 523 209 523 209 523 200 c 0,70,71
 523 136 523 136 394 78 c 0,72,73
 284 29 284 29 216 29 c 0,74,75
 119 29 119 29 62 103 c 1,76,77
 12 166 12 166 12 250 c 0,78,79
 12 273 12 273 17 293 c 1,80,81
 23 325 23 325 29 411 c 0,82,83
 41 572 41 572 50 625 c 0,84,85
 76 779 76 779 135 783 c 0,86,87
 156 785 156 785 167 774 c 1,28,29
EndSplineSet
EndChar

StartChar: igrave
Encoding: 236 236 136
Width: 306
Flags: HW
LayerCount: 2
Fore
SplineSet
-51.624 963.495 m 4,0,1
 -31.0488 928.321 -31.0488 928.321 81 891 c 132,-1,2
 193.049 853.679 193.049 853.679 218.409 871.675 c 5,3,4
 223.992 901.327 223.992 901.327 211.551 922.596 c 4,5,6
 195.76 949.589 195.76 949.589 91.7666 1002.96 c 132,-1,7
 -12.2275 1056.34 -12.2275 1056.34 -39.6621 1045.29 c 4,8,9
 -43.8086 1043.86 -43.8086 1043.86 -46.998 1040.8 c 4,10,11
 -59.1201 1029.14 -59.1201 1029.14 -58.4824 999.08 c 4,12,13
 -57.8447 974.13 -57.8447 974.13 -51.624 963.495 c 4,0,1
196 33 m 1,14,15
 167 11 167 11 147 11 c 0,16,17
 118 11 118 11 98 52 c 1,18,-1
 90 404 l 2,19,20
 89 465 89 465 76 587 c 0,21,22
 63 706 63 706 63 711 c 256,23,24
 63 716 63 716 70 755 c 0,25,26
 71 758 71 758 71 791 c 1,27,28
 108 791 108 791 114 796 c 0,29,30
 125 805 125 805 136 805 c 0,31,32
 175 805 175 805 191 717 c 0,33,34
 210 617 210 617 213 463 c 0,35,36
 213 460 213 460 213 208 c 0,37,38
 213 149 213 149 196 33 c 1,14,15
EndSplineSet
EndChar

StartChar: icircumflex
Encoding: 238 238 137
Width: 306
Flags: HW
LayerCount: 2
Fore
SplineSet
122.742 1086.88 m 4,0,1
 126.471 1086.95 126.471 1086.95 134.744 1086.51 c 4,2,3
 160.798 1085.97 160.798 1085.97 172.648 1068.2 c 4,4,5
 177.652 1059.71 177.652 1059.71 216 996 c 132,-1,6
 254.349 932.295 254.349 932.295 273.226 898.257 c 5,7,8
 280.55 889.046 280.55 889.046 280.333 876.518 c 132,-1,9
 280.115 863.988 280.115 863.988 272.305 855.164 c 4,10,11
 258.182 839.368 258.182 839.368 217.898 839.034 c 5,12,13
 212.667 841.483 212.667 841.483 199.18 853.477 c 4,14,15
 182.404 869.836 182.404 869.836 168.905 890.248 c 132,-1,16
 155.406 910.66 155.406 910.66 139.054 941.673 c 132,-1,17
 122.7 972.686 122.7 972.686 116.242 983.602 c 5,18,19
 109.078 970.796 109.078 970.796 102.722 956.533 c 132,-1,20
 96.3652 942.271 96.3652 942.271 88.3643 922.143 c 132,-1,21
 80.3643 902.014 80.3643 902.014 77.0049 894.086 c 4,22,23
 75.5391 890.904 75.5391 890.904 71.1523 880.827 c 132,-1,24
 66.7656 870.751 66.7656 870.751 64.376 866.031 c 132,-1,25
 61.9863 861.312 61.9863 861.312 57.623 853.688 c 132,-1,26
 53.2607 846.063 53.2607 846.063 48.3457 840.632 c 132,-1,27
 43.4307 835.199 43.4307 835.199 37.4922 830.852 c 4,28,29
 21.2812 818.08 21.2812 818.08 -1.94922 825.618 c 5,30,31
 -23.2334 828.43 -23.2334 828.43 -30.6641 844.039 c 4,32,33
 -38.4111 858.268 -38.4111 858.268 -26.3203 882.644 c 4,34,35
 27.8691 998.651 27.8691 998.651 66.4854 1046.61 c 5,36,37
 97.7598 1083.83 97.7598 1083.83 122.742 1086.88 c 4,0,1
196 33 m 1,38,39
 167 11 167 11 147 11 c 0,40,41
 118 11 118 11 98 52 c 1,42,-1
 90 404 l 2,43,44
 89 465 89 465 76 587 c 0,45,46
 63 706 63 706 63 711 c 256,47,48
 63 716 63 716 70 755 c 0,49,50
 71 758 71 758 71 791 c 1,51,52
 108 791 108 791 114 796 c 0,53,54
 125 805 125 805 136 805 c 0,55,56
 175 805 175 805 191 717 c 0,57,58
 210 617 210 617 213 463 c 0,59,60
 213 460 213 460 213 208 c 0,61,62
 213 149 213 149 196 33 c 1,38,39
EndSplineSet
EndChar

StartChar: idieresis
Encoding: 239 239 138
Width: 306
Flags: HW
LayerCount: 2
Fore
SplineSet
175.047 944.146 m 4,0,1
 175.439 970.883 175.439 970.883 188.328 987.832 c 4,2,3
 203.786 1007.6 203.786 1007.6 230.741 1007.09 c 4,4,5
 250.116 1006.72 250.116 1006.72 275.191 992.876 c 4,6,7
 307.792 975.068 307.792 975.068 307.398 948.332 c 4,8,9
 306.852 911.093 306.852 911.093 267.525 872.675 c 5,10,11
 231.935 859.02 231.935 859.02 203.519 874.839 c 5,12,13
 191.107 890.355 191.107 890.355 183 912 c 132,-1,14
 174.892 933.644 174.892 933.644 175.047 944.146 c 4,0,1
-34.1387 941.015 m 0,15,16
 -33.7598 966.795 -33.7598 966.795 -21.6719 986.626 c 0,17,18
 -6.11621 1013.08 -6.11621 1013.08 21.6826 1012.55 c 0,19,20
 58.748 1011.85 58.748 1011.85 81 978 c 0,21,22
 98.2979 950.929 98.2979 950.929 97.9043 924.192 c 0,23,24
 97.5957 903.186 97.5957 903.186 74.9502 881.646 c 128,-1,25
 52.3037 860.104 52.3037 860.104 31.2441 860.504 c 0,26,27
 -35.3037 861.761 -35.3037 861.761 -34.1387 941.015 c 0,15,16
196 33 m 1,28,29
 167 11 167 11 147 11 c 0,30,31
 118 11 118 11 98 52 c 1,32,-1
 90 404 l 2,33,34
 89 465 89 465 76 587 c 0,35,36
 63 706 63 706 63 711 c 256,37,38
 63 716 63 716 70 755 c 0,39,40
 71 758 71 758 71 791 c 1,41,42
 108 791 108 791 114 796 c 0,43,44
 125 805 125 805 136 805 c 0,45,46
 175 805 175 805 191 717 c 0,47,48
 210 617 210 617 213 463 c 0,49,50
 213 460 213 460 213 208 c 0,51,52
 213 149 213 149 196 33 c 1,28,29
EndSplineSet
EndChar

StartChar: ograve
Encoding: 242 242 139
Width: 675
Flags: HW
LayerCount: 2
Fore
SplineSet
141.376 1000.5 m 4,0,1
 161.951 965.321 161.951 965.321 274 928 c 132,-1,2
 386.049 890.679 386.049 890.679 411.409 908.675 c 5,3,4
 416.992 938.327 416.992 938.327 404.551 959.596 c 4,5,6
 388.76 986.589 388.76 986.589 284.767 1039.96 c 132,-1,7
 180.772 1093.34 180.772 1093.34 153.338 1082.29 c 4,8,9
 149.191 1080.86 149.191 1080.86 146.002 1077.8 c 4,10,11
 133.88 1066.14 133.88 1066.14 134.518 1036.08 c 4,12,13
 135.155 1011.13 135.155 1011.13 141.376 1000.5 c 4,0,1
255 17 m 0,14,15
 131 17 131 17 63 124 c 0,16,17
 10 207 10 207 10 308 c 0,18,19
 10 389 10 389 45 497 c 0,20,21
 88 631 88 631 162 713 c 0,22,23
 256 817 256 817 381 817 c 0,24,25
 528 817 528 817 598 703 c 0,26,27
 650 618 650 618 650 493 c 0,28,29
 650 399 650 399 604 292 c 0,30,31
 553 174 553 174 470 102 c 0,32,33
 373 17 373 17 255 17 c 0,14,15
514 550 m 0,34,35
 509 613 509 613 479 641.5 c 128,-1,36
 449 670 449 670 381 670 c 0,37,38
 309 670 309 670 249 595 c 0,39,40
 199 533 199 533 168 436 c 0,41,42
 141 350 141 350 145 295 c 0,43,44
 149 244 149 244 173 204 c 0,45,46
 207 145 207 145 274 145 c 0,47,48
 383 145 383 145 456 275 c 0,49,50
 515 381 515 381 515 483 c 0,51,52
 515 537 515 537 514 550 c 0,34,35
EndSplineSet
EndChar

StartChar: ocircumflex
Encoding: 244 244 140
Width: 675
Flags: HW
LayerCount: 2
Fore
SplineSet
377.742 1095.88 m 4,0,1
 381.471 1095.95 381.471 1095.95 389.744 1095.51 c 4,2,3
 415.798 1094.97 415.798 1094.97 427.648 1077.2 c 4,4,5
 432.652 1068.71 432.652 1068.71 471 1005 c 132,-1,6
 509.349 941.295 509.349 941.295 528.226 907.257 c 5,7,8
 535.55 898.046 535.55 898.046 535.333 885.518 c 132,-1,9
 535.115 872.988 535.115 872.988 527.305 864.164 c 4,10,11
 513.182 848.368 513.182 848.368 472.898 848.034 c 5,12,13
 467.667 850.483 467.667 850.483 454.18 862.477 c 4,14,15
 437.404 878.836 437.404 878.836 423.905 899.248 c 132,-1,16
 410.406 919.66 410.406 919.66 394.054 950.673 c 132,-1,17
 377.7 981.686 377.7 981.686 371.242 992.602 c 5,18,19
 364.078 979.796 364.078 979.796 357.722 965.533 c 132,-1,20
 351.365 951.271 351.365 951.271 343.364 931.143 c 132,-1,21
 335.364 911.014 335.364 911.014 332.005 903.086 c 4,22,23
 330.539 899.904 330.539 899.904 326.152 889.827 c 132,-1,24
 321.766 879.751 321.766 879.751 319.376 875.031 c 132,-1,25
 316.986 870.312 316.986 870.312 312.623 862.688 c 132,-1,26
 308.261 855.063 308.261 855.063 303.346 849.632 c 132,-1,27
 298.431 844.199 298.431 844.199 292.492 839.852 c 4,28,29
 276.281 827.08 276.281 827.08 253.051 834.618 c 5,30,31
 231.767 837.43 231.767 837.43 224.336 853.039 c 4,32,33
 216.589 867.268 216.589 867.268 228.68 891.644 c 4,34,35
 282.869 1007.65 282.869 1007.65 321.485 1055.61 c 5,36,37
 352.76 1092.83 352.76 1092.83 377.742 1095.88 c 4,0,1
255 17 m 0,38,39
 131 17 131 17 63 124 c 0,40,41
 10 207 10 207 10 308 c 0,42,43
 10 389 10 389 45 497 c 0,44,45
 88 631 88 631 162 713 c 0,46,47
 256 817 256 817 381 817 c 0,48,49
 528 817 528 817 598 703 c 0,50,51
 650 618 650 618 650 493 c 0,52,53
 650 399 650 399 604 292 c 0,54,55
 553 174 553 174 470 102 c 0,56,57
 373 17 373 17 255 17 c 0,38,39
514 550 m 0,58,59
 509 613 509 613 479 641.5 c 128,-1,60
 449 670 449 670 381 670 c 0,61,62
 309 670 309 670 249 595 c 0,63,64
 199 533 199 533 168 436 c 0,65,66
 141 350 141 350 145 295 c 0,67,68
 149 244 149 244 173 204 c 0,69,70
 207 145 207 145 274 145 c 0,71,72
 383 145 383 145 456 275 c 0,73,74
 515 381 515 381 515 483 c 0,75,76
 515 537 515 537 514 550 c 0,58,59
EndSplineSet
EndChar

StartChar: otilde
Encoding: 245 245 141
Width: 675
Flags: HW
LayerCount: 2
Fore
SplineSet
558.705 1043.87 m 4,0,1
 585.419 1039.5 585.419 1039.5 605.922 1018.56 c 4,2,3
 625.677 998.253 625.677 998.253 618.386 980.905 c 5,4,5
 595.457 941.684 595.457 941.684 564 918 c 4,6,7
 539.854 900.394 539.854 900.394 510.142 893.837 c 132,-1,8
 480.428 887.28 480.428 887.28 452.647 895.156 c 5,9,10
 434.378 901.493 434.378 901.493 406.35 923.136 c 132,-1,11
 378.32 944.779 378.32 944.779 364.532 951.348 c 5,12,13
 362.592 949.561 362.592 949.561 350.586 939.418 c 132,-1,14
 338.578 929.276 338.578 929.276 333.116 923.02 c 5,15,16
 331.526 920.378 331.526 920.378 327.289 916.882 c 132,-1,17
 323.05 913.385 323.05 913.385 321.71 911.813 c 4,18,19
 318.812 908.907 318.812 908.907 314.499 900.813 c 132,-1,20
 310.187 892.72 310.187 892.72 306.273 889.659 c 5,21,22
 285.979 878.583 285.979 878.583 256.622 891.317 c 4,23,24
 230.922 902.594 230.922 902.594 227.565 919.603 c 5,25,26
 227.334 926.985 227.334 926.985 229.367 940.757 c 4,27,28
 243.672 996.049 243.672 996.049 304.951 1030.86 c 4,29,30
 344.035 1053.45 344.035 1053.45 384.384 1045.69 c 4,31,32
 402.471 1042.14 402.471 1042.14 430.097 1023.31 c 132,-1,33
 457.721 1004.49 457.721 1004.49 464.301 1001.18 c 4,34,35
 486.593 989.05 486.593 989.05 497.954 995.211 c 5,36,37
 505.39 1000.96 505.39 1000.96 515.599 1015.22 c 132,-1,38
 525.808 1029.49 525.808 1029.49 527.668 1031.67 c 5,39,40
 531.693 1039.28 531.693 1039.28 540.567 1042.4 c 132,-1,41
 549.441 1045.51 549.441 1045.51 558.705 1043.87 c 4,0,1
255 17 m 0,42,43
 131 17 131 17 63 124 c 0,44,45
 10 207 10 207 10 308 c 0,46,47
 10 389 10 389 45 497 c 0,48,49
 88 631 88 631 162 713 c 0,50,51
 256 817 256 817 381 817 c 0,52,53
 528 817 528 817 598 703 c 0,54,55
 650 618 650 618 650 493 c 0,56,57
 650 399 650 399 604 292 c 0,58,59
 553 174 553 174 470 102 c 0,60,61
 373 17 373 17 255 17 c 0,42,43
514 550 m 0,62,63
 509 613 509 613 479 641.5 c 128,-1,64
 449 670 449 670 381 670 c 0,65,66
 309 670 309 670 249 595 c 0,67,68
 199 533 199 533 168 436 c 0,69,70
 141 350 141 350 145 295 c 0,71,72
 149 244 149 244 173 204 c 0,73,74
 207 145 207 145 274 145 c 0,75,76
 383 145 383 145 456 275 c 0,77,78
 515 381 515 381 515 483 c 0,79,80
 515 537 515 537 514 550 c 0,62,63
EndSplineSet
EndChar

StartChar: odieresis
Encoding: 246 246 142
Width: 675
Flags: HW
LayerCount: 2
Fore
SplineSet
476.648 967.814 m 4,0,1
 477.041 994.551 477.041 994.551 489.93 1011.5 c 4,2,3
 505.388 1031.27 505.388 1031.27 532.343 1030.76 c 4,4,5
 551.718 1030.39 551.718 1030.39 576.793 1016.54 c 4,6,7
 609.394 998.736 609.394 998.736 609 972 c 4,8,9
 608.453 934.761 608.453 934.761 569.127 896.343 c 5,10,11
 533.536 882.688 533.536 882.688 505.12 898.507 c 5,12,13
 492.709 914.023 492.709 914.023 484.602 935.668 c 132,-1,14
 476.493 957.312 476.493 957.312 476.648 967.814 c 4,0,1
220.339 957.375 m 4,15,16
 220.718 983.155 220.718 983.155 232.806 1002.99 c 4,17,18
 248.361 1029.44 248.361 1029.44 276.16 1028.91 c 4,19,20
 313.226 1028.21 313.226 1028.21 335.478 994.36 c 4,21,22
 352.775 967.289 352.775 967.289 352.382 940.553 c 4,23,24
 352.073 919.546 352.073 919.546 329.428 898.006 c 132,-1,25
 306.781 876.465 306.781 876.465 285.722 876.864 c 4,26,27
 219.174 878.121 219.174 878.121 220.339 957.375 c 4,15,16
255 17 m 0,28,29
 131 17 131 17 63 124 c 0,30,31
 10 207 10 207 10 308 c 0,32,33
 10 389 10 389 45 497 c 0,34,35
 88 631 88 631 162 713 c 0,36,37
 256 817 256 817 381 817 c 0,38,39
 528 817 528 817 598 703 c 0,40,41
 650 618 650 618 650 493 c 0,42,43
 650 399 650 399 604 292 c 0,44,45
 553 174 553 174 470 102 c 0,46,47
 373 17 373 17 255 17 c 0,28,29
514 550 m 0,48,49
 509 613 509 613 479 641.5 c 128,-1,50
 449 670 449 670 381 670 c 0,51,52
 309 670 309 670 249 595 c 0,53,54
 199 533 199 533 168 436 c 0,55,56
 141 350 141 350 145 295 c 0,57,58
 149 244 149 244 173 204 c 0,59,60
 207 145 207 145 274 145 c 0,61,62
 383 145 383 145 456 275 c 0,63,64
 515 381 515 381 515 483 c 0,65,66
 515 537 515 537 514 550 c 0,48,49
EndSplineSet
EndChar

StartChar: ugrave
Encoding: 249 249 143
Width: 605
Flags: HW
LayerCount: 2
Fore
SplineSet
53.376 828.495 m 4,0,1
 73.9512 793.321 73.9512 793.321 186 756 c 132,-1,2
 298.049 718.679 298.049 718.679 323.409 736.675 c 5,3,4
 328.992 766.327 328.992 766.327 316.551 787.596 c 4,5,6
 300.76 814.589 300.76 814.589 196.767 867.96 c 132,-1,7
 92.7725 921.34 92.7725 921.34 65.3379 910.29 c 4,8,9
 61.1914 908.86 61.1914 908.86 58.002 905.8 c 4,10,11
 45.8799 894.14 45.8799 894.14 46.5176 864.08 c 4,12,13
 47.1553 839.13 47.1553 839.13 53.376 828.495 c 4,0,1
230 89 m 1,14,15
 117 95 117 95 62 220 c 0,16,17
 20 313 20 313 20 436 c 0,18,19
 20 446 20 446 18 482.5 c 128,-1,20
 16 519 16 519 16 541 c 0,21,22
 16 678 16 678 95 687 c 0,23,24
 171 696 171 696 171 584 c 0,25,26
 171 568 171 568 169 541 c 0,27,28
 158 390 158 390 158 392 c 1,29,30
 158 244 158 244 247 216 c 1,31,32
 253 213 253 213 260 213 c 0,33,34
 325 213 325 213 392 361 c 1,35,36
 457 502 457 502 457 622 c 0,37,38
 457 683 457 683 435 711 c 1,39,40
 432 727 432 727 432 739 c 0,41,42
 432 770 432 770 449 788 c 0,43,44
 458 797 458 797 495 821 c 1,45,46
 554 806 554 806 571 745 c 1,47,48
 581 713 581 713 581 633 c 0,49,50
 581 456 581 456 510 298 c 0,51,52
 412 81 412 81 230 89 c 1,14,15
EndSplineSet
EndChar

StartChar: ucircumflex
Encoding: 251 251 144
Width: 605
Flags: HW
LayerCount: 2
Fore
SplineSet
212.804 1031.66 m 4,0,1
 209.135 1030.99 209.135 1030.99 201.114 1028.91 c 4,2,3
 175.687 1023.21 175.687 1023.21 167.602 1003.44 c 4,4,5
 164.383 994.122 164.383 994.122 139.447 924.071 c 132,-1,6
 114.512 854.021 114.512 854.021 102.769 816.912 c 5,7,8
 97.4189 806.43 97.4189 806.43 100.119 794.194 c 132,-1,9
 102.82 781.957 102.82 781.957 112.228 774.859 c 4,10,11
 129.205 762.183 129.205 762.183 168.753 769.854 c 5,12,13
 173.394 773.293 173.394 773.293 184.231 787.725 c 4,14,15
 197.425 807.09 197.425 807.09 206.602 829.775 c 132,-1,16
 215.779 852.461 215.779 852.461 225.648 886.104 c 132,-1,17
 235.519 919.746 235.519 919.746 239.681 931.727 c 5,18,19
 249.245 920.599 249.245 920.599 258.307 907.882 c 132,-1,20
 267.368 895.166 267.368 895.166 279.207 877.026 c 132,-1,21
 291.044 858.887 291.044 858.887 295.91 851.784 c 4,22,23
 297.979 848.957 297.979 848.957 304.279 839.951 c 132,-1,24
 310.579 830.946 310.579 830.946 313.858 826.795 c 132,-1,25
 317.138 822.645 317.138 822.645 322.928 816.038 c 132,-1,26
 328.717 809.432 328.717 809.432 334.612 805.084 c 132,-1,27
 340.509 800.736 340.509 800.736 347.192 797.654 c 4,28,29
 365.616 788.355 365.616 788.355 386.888 800.355 c 5,30,31
 407.189 807.338 407.189 807.338 411.373 824.111 c 4,32,33
 416.141 839.595 416.141 839.595 399.45 861.085 c 4,34,35
 323.307 964.023 323.307 964.023 275.938 1003.36 c 5,36,37
 237.895 1033.63 237.895 1033.63 212.804 1031.66 c 4,0,1
230 89 m 1,38,39
 117 95 117 95 62 220 c 0,40,41
 20 313 20 313 20 436 c 0,42,43
 20 446 20 446 18 482.5 c 128,-1,44
 16 519 16 519 16 541 c 0,45,46
 16 678 16 678 95 687 c 0,47,48
 171 696 171 696 171 584 c 0,49,50
 171 568 171 568 169 541 c 0,51,52
 158 390 158 390 158 392 c 1,53,54
 158 244 158 244 247 216 c 1,55,56
 253 213 253 213 260 213 c 0,57,58
 325 213 325 213 392 361 c 1,59,60
 457 502 457 502 457 622 c 0,61,62
 457 683 457 683 435 711 c 1,63,64
 432 727 432 727 432 739 c 0,65,66
 432 770 432 770 449 788 c 0,67,68
 458 797 458 797 495 821 c 1,69,70
 554 806 554 806 571 745 c 1,71,72
 581 713 581 713 581 633 c 0,73,74
 581 456 581 456 510 298 c 0,75,76
 412 81 412 81 230 89 c 1,38,39
EndSplineSet
EndChar

StartChar: yacute
Encoding: 253 253 145
Width: 595
Flags: HW
LayerCount: 2
Fore
SplineSet
557.243 1014.39 m 4,0,1
 545.43 975.387 545.43 975.387 445.16 912.986 c 132,-1,2
 344.891 850.586 344.891 850.586 316.035 862.179 c 5,3,4
 303.697 889.714 303.697 889.714 310.841 913.296 c 4,5,6
 319.908 943.226 319.908 943.226 408.604 1019.36 c 132,-1,7
 497.299 1095.5 497.299 1095.5 526.554 1091.14 c 4,8,9
 530.919 1090.72 530.919 1090.72 534.733 1088.49 c 4,10,11
 549.238 1079.97 549.238 1079.97 555.622 1050.59 c 4,12,13
 560.815 1026.18 560.815 1026.18 557.243 1014.39 c 4,0,1
165 -63 m 0,14,15
 158 -64 158 -64 151 -64 c 0,16,17
 111 -64 111 -64 99 -8 c 0,18,19
 97 1 97 1 97 10 c 0,20,21
 97 53 97 53 136 113 c 0,22,23
 152 137 152 137 209 208 c 0,24,25
 248 257 248 257 248 273 c 0,26,27
 248 275 248 275 202 336 c 0,28,29
 188 355 188 355 179 369 c 0,30,31
 -30 729 -30 729 -23 786 c 0,32,33
 -20 807 -20 807 -4 831 c 0,34,35
 19 865 19 865 53 867 c 0,36,37
 89 869 89 869 118 828 c 0,38,39
 143 793 143 793 174 710 c 0,40,41
 251 505 251 505 322 387 c 1,42,43
 358 444 358 444 417.5 641 c 128,-1,44
 477 838 477 838 548 828 c 0,45,46
 554 828 554 828 585 818 c 1,47,48
 618 784 618 784 618 744 c 0,49,50
 618 718 618 718 606 689 c 1,51,52
 584 604 584 604 404 283 c 0,53,54
 215 -54 215 -54 165 -63 c 0,14,15
EndSplineSet
EndChar

StartChar: ydieresis
Encoding: 255 255 146
Width: 595
Flags: HW
LayerCount: 2
Fore
SplineSet
407.648 991.814 m 4,0,1
 408.041 1018.55 408.041 1018.55 420.93 1035.5 c 4,2,3
 436.388 1055.27 436.388 1055.27 463.343 1054.76 c 4,4,5
 482.718 1054.39 482.718 1054.39 507.793 1040.54 c 4,6,7
 540.394 1022.74 540.394 1022.74 540 996 c 4,8,9
 539.453 958.761 539.453 958.761 500.127 920.343 c 5,10,11
 464.536 906.688 464.536 906.688 436.12 922.507 c 5,12,13
 423.709 938.023 423.709 938.023 415.602 959.668 c 132,-1,14
 407.493 981.312 407.493 981.312 407.648 991.814 c 4,0,1
151.339 981.375 m 4,15,16
 151.718 1007.16 151.718 1007.16 163.806 1026.99 c 4,17,18
 179.361 1053.44 179.361 1053.44 207.16 1052.91 c 4,19,20
 244.226 1052.21 244.226 1052.21 266.478 1018.36 c 4,21,22
 283.775 991.289 283.775 991.289 283.382 964.553 c 4,23,24
 283.073 943.546 283.073 943.546 260.428 922.006 c 132,-1,25
 237.781 900.465 237.781 900.465 216.722 900.864 c 4,26,27
 150.174 902.121 150.174 902.121 151.339 981.375 c 4,15,16
165 -63 m 0,28,29
 158 -64 158 -64 151 -64 c 0,30,31
 111 -64 111 -64 99 -8 c 0,32,33
 97 1 97 1 97 10 c 0,34,35
 97 53 97 53 136 113 c 0,36,37
 152 137 152 137 209 208 c 0,38,39
 248 257 248 257 248 273 c 0,40,41
 248 275 248 275 202 336 c 0,42,43
 188 355 188 355 179 369 c 0,44,45
 -30 729 -30 729 -23 786 c 0,46,47
 -20 807 -20 807 -4 831 c 0,48,49
 19 865 19 865 53 867 c 0,50,51
 89 869 89 869 118 828 c 0,52,53
 143 793 143 793 174 710 c 0,54,55
 251 505 251 505 322 387 c 1,56,57
 358 444 358 444 417.5 641 c 128,-1,58
 477 838 477 838 548 828 c 0,59,60
 554 828 554 828 585 818 c 1,61,62
 618 784 618 784 618 744 c 0,63,64
 618 718 618 718 606 689 c 1,65,66
 584 604 584 604 404 283 c 0,67,68
 215 -54 215 -54 165 -63 c 0,28,29
EndSplineSet
EndChar

